<svg width="50" height="50" viewBox="0 0 50 50" fill="none" xmlns="http://www.w3.org/2000/svg">
<rect width="50" height="50" fill="#A294FF"/>
<path d="M21.4485 11.4313C21.1956 11.6825 20.9821 11.9605 20.7965 12.2493L1.4178 31.6288C-0.471814 33.5202 -0.472711 36.5856 1.4187 38.4779C3.30922 40.3693 6.37548 40.3693 8.26779 38.4779L24.9569 21.787L41.7339 38.5622C43.6235 40.4545 46.6906 40.4545 48.5829 38.5622C49.5273 37.6161 49.9999 36.3775 49.9999 35.139C49.9999 33.9005 49.5273 32.6593 48.5811 31.7158L29.1173 12.2493C28.9316 11.9605 28.7191 11.6834 28.4653 11.4313C27.4967 10.4628 26.225 9.99821 24.9569 10.0197C23.6879 9.99732 22.4144 10.4628 21.4485 11.4313Z" fill="white"/>
</svg>
