<svg width="367" height="25" viewBox="0 0 367 25" fill="none" xmlns="http://www.w3.org/2000/svg">
<path d="M35 12H155V13H35V12Z" fill="#9181FF"/>
<path d="M8.075 8.025V15.625C8.075 16.4737 7.80267 17.1323 7.258 17.601C6.726 18.057 5.92167 18.285 4.845 18.285C3.781 18.285 2.97667 18.057 2.432 17.601C1.88733 17.1323 1.615 16.4737 1.615 15.625V8.025C1.615 7.17633 1.881 6.524 2.413 6.068C2.95767 5.59933 3.762 5.365 4.826 5.365C5.90267 5.365 6.71333 5.59933 7.258 6.068C7.80267 6.524 8.075 7.17633 8.075 8.025ZM6.745 15.625V8.025C6.745 7.01167 6.11167 6.505 4.845 6.505C3.57833 6.505 2.945 7.01167 2.945 8.025V15.625C2.945 16.6383 3.57833 17.145 4.845 17.145C6.11167 17.145 6.745 16.6383 6.745 15.625ZM17.5705 8.025V9.735C17.5705 10.8117 17.1209 11.502 16.2215 11.806C17.2475 12.0847 17.7605 12.7877 17.7605 13.915V15.625C17.7605 17.3983 16.6902 18.285 14.5495 18.285C12.4089 18.285 11.3385 17.3983 11.3385 15.625V14.01H12.6685V15.701C12.6685 16.157 12.8269 16.5117 13.1435 16.765C13.4602 17.0183 13.9289 17.145 14.5495 17.145C15.1702 17.145 15.6389 17.0183 15.9555 16.765C16.2722 16.5117 16.4305 16.157 16.4305 15.701V13.915C16.4305 13.5097 16.2785 13.1423 15.9745 12.813C15.6705 12.471 15.2589 12.3 14.7395 12.3H12.8205V11.35H14.5495C15.0815 11.35 15.4932 11.1853 15.7845 10.856C16.0885 10.5267 16.2405 10.153 16.2405 9.735V7.949C16.2405 7.493 16.0885 7.13833 15.7845 6.885C15.4932 6.63167 15.0499 6.505 14.4545 6.505C13.8592 6.505 13.4095 6.63167 13.1055 6.885C12.8142 7.13833 12.6685 7.493 12.6685 7.949V9.64H11.3385V8.025C11.3385 6.25167 12.3582 5.365 14.3975 5.365C15.4615 5.365 16.2532 5.59933 16.7725 6.068C17.3045 6.524 17.5705 7.17633 17.5705 8.025Z" fill="#373C42"/>
</svg>
