<svg width="1340" height="27" viewBox="0 0 1340 27" fill="none" xmlns="http://www.w3.org/2000/svg">
<path d="M737.826 15.0967H735.167V14.0234H737.826C738.341 14.0234 738.758 13.9414 739.077 13.7773C739.396 13.6133 739.629 13.3854 739.774 13.0938C739.925 12.8021 740 12.4694 740 12.0957C740 11.7539 739.925 11.4326 739.774 11.1318C739.629 10.8311 739.396 10.5895 739.077 10.4072C738.758 10.2204 738.341 10.127 737.826 10.127H735.475V19H734.155V9.04688H737.826C738.578 9.04688 739.214 9.17676 739.733 9.43652C740.253 9.69629 740.647 10.0563 740.916 10.5166C741.185 10.9723 741.319 11.4941 741.319 12.082C741.319 12.7201 741.185 13.2646 740.916 13.7158C740.647 14.167 740.253 14.5111 739.733 14.748C739.214 14.9805 738.578 15.0967 737.826 15.0967ZM742.615 15.3838V15.2266C742.615 14.6934 742.693 14.1989 742.848 13.7432C743.003 13.2829 743.226 12.8841 743.518 12.5469C743.809 12.2051 744.162 11.9408 744.577 11.7539C744.992 11.5625 745.457 11.4668 745.972 11.4668C746.491 11.4668 746.958 11.5625 747.373 11.7539C747.792 11.9408 748.148 12.2051 748.439 12.5469C748.736 12.8841 748.961 13.2829 749.116 13.7432C749.271 14.1989 749.349 14.6934 749.349 15.2266V15.3838C749.349 15.917 749.271 16.4115 749.116 16.8672C748.961 17.3229 748.736 17.7217 748.439 18.0635C748.148 18.4007 747.795 18.665 747.38 18.8564C746.97 19.0433 746.505 19.1367 745.985 19.1367C745.466 19.1367 744.999 19.0433 744.584 18.8564C744.169 18.665 743.814 18.4007 743.518 18.0635C743.226 17.7217 743.003 17.3229 742.848 16.8672C742.693 16.4115 742.615 15.917 742.615 15.3838ZM743.88 15.2266V15.3838C743.88 15.7529 743.923 16.1016 744.01 16.4297C744.096 16.7533 744.226 17.0404 744.399 17.291C744.577 17.5417 744.798 17.7399 745.062 17.8857C745.327 18.027 745.634 18.0977 745.985 18.0977C746.332 18.0977 746.635 18.027 746.895 17.8857C747.159 17.7399 747.378 17.5417 747.551 17.291C747.724 17.0404 747.854 16.7533 747.94 16.4297C748.032 16.1016 748.077 15.7529 748.077 15.3838V15.2266C748.077 14.862 748.032 14.5179 747.94 14.1943C747.854 13.8662 747.722 13.5768 747.544 13.3262C747.371 13.071 747.152 12.8704 746.888 12.7246C746.628 12.5788 746.323 12.5059 745.972 12.5059C745.625 12.5059 745.32 12.5788 745.056 12.7246C744.796 12.8704 744.577 13.071 744.399 13.3262C744.226 13.5768 744.096 13.8662 744.01 14.1943C743.923 14.5179 743.88 14.862 743.88 15.2266ZM752.449 12.7656V19H751.185V11.6035H752.415L752.449 12.7656ZM754.76 11.5625L754.753 12.7383C754.648 12.7155 754.548 12.7018 754.452 12.6973C754.361 12.6882 754.256 12.6836 754.138 12.6836C753.846 12.6836 753.589 12.7292 753.365 12.8203C753.142 12.9115 752.953 13.0391 752.798 13.2031C752.643 13.3672 752.52 13.5632 752.429 13.791C752.342 14.0143 752.285 14.2604 752.258 14.5293L751.902 14.7344C751.902 14.2878 751.946 13.8685 752.032 13.4766C752.123 13.0846 752.262 12.7383 752.449 12.4375C752.636 12.1322 752.873 11.8952 753.16 11.7266C753.452 11.5534 753.798 11.4668 754.199 11.4668C754.29 11.4668 754.395 11.4782 754.514 11.501C754.632 11.5192 754.714 11.5397 754.76 11.5625ZM759.617 11.6035V12.5742H755.618V11.6035H759.617ZM756.972 9.80566H758.236V17.168C758.236 17.4186 758.275 17.6077 758.353 17.7354C758.43 17.863 758.53 17.9473 758.653 17.9883C758.776 18.0293 758.909 18.0498 759.05 18.0498C759.155 18.0498 759.264 18.0407 759.378 18.0225C759.496 17.9997 759.585 17.9814 759.645 17.9678L759.651 19C759.551 19.0319 759.419 19.0615 759.255 19.0889C759.095 19.1208 758.902 19.1367 758.674 19.1367C758.364 19.1367 758.079 19.0752 757.819 18.9521C757.56 18.8291 757.352 18.624 757.197 18.3369C757.047 18.0452 756.972 17.6533 756.972 17.1611V9.80566ZM764.42 19.1367C763.905 19.1367 763.438 19.0501 763.019 18.877C762.604 18.6992 762.246 18.4508 761.945 18.1318C761.649 17.8128 761.421 17.4346 761.262 16.9971C761.102 16.5596 761.022 16.0811 761.022 15.5615V15.2744C761.022 14.6729 761.111 14.1374 761.289 13.668C761.467 13.194 761.708 12.793 762.014 12.4648C762.319 12.1367 762.665 11.8883 763.053 11.7197C763.44 11.5511 763.841 11.4668 764.256 11.4668C764.785 11.4668 765.24 11.5579 765.623 11.7402C766.01 11.9225 766.327 12.1777 766.573 12.5059C766.819 12.8294 767.002 13.2122 767.12 13.6543C767.239 14.0918 767.298 14.5703 767.298 15.0898V15.6572H761.774V14.625H766.033V14.5293C766.015 14.2012 765.947 13.8822 765.828 13.5723C765.714 13.2624 765.532 13.0072 765.281 12.8066C765.031 12.6061 764.689 12.5059 764.256 12.5059C763.969 12.5059 763.704 12.5674 763.463 12.6904C763.221 12.8089 763.014 12.9867 762.841 13.2236C762.668 13.4606 762.533 13.75 762.438 14.0918C762.342 14.4336 762.294 14.8278 762.294 15.2744V15.5615C762.294 15.9124 762.342 16.2428 762.438 16.5527C762.538 16.8581 762.681 17.127 762.868 17.3594C763.06 17.5918 763.29 17.7741 763.559 17.9062C763.832 18.0384 764.142 18.1045 764.488 18.1045C764.935 18.1045 765.313 18.0133 765.623 17.8311C765.933 17.6488 766.204 17.4049 766.437 17.0996L767.202 17.708C767.043 17.9495 766.84 18.1797 766.594 18.3984C766.348 18.6172 766.045 18.7949 765.685 18.9316C765.329 19.0684 764.908 19.1367 764.42 19.1367ZM770.289 13.1826V19H769.024V11.6035H770.221L770.289 13.1826ZM769.988 15.0215L769.462 15.001C769.466 14.4951 769.542 14.028 769.688 13.5996C769.833 13.1667 770.038 12.7907 770.303 12.4717C770.567 12.1527 770.882 11.9066 771.246 11.7334C771.615 11.5557 772.023 11.4668 772.47 11.4668C772.834 11.4668 773.162 11.5169 773.454 11.6172C773.746 11.7129 773.994 11.8678 774.199 12.082C774.409 12.2962 774.568 12.5742 774.678 12.916C774.787 13.2533 774.842 13.6657 774.842 14.1533V19H773.57V14.1396C773.57 13.7523 773.513 13.4424 773.399 13.21C773.285 12.973 773.119 12.8021 772.9 12.6973C772.682 12.5879 772.413 12.5332 772.094 12.5332C771.779 12.5332 771.492 12.5993 771.232 12.7314C770.977 12.8636 770.756 13.0459 770.569 13.2783C770.387 13.5107 770.243 13.7773 770.139 14.0781C770.038 14.3743 769.988 14.6888 769.988 15.0215ZM780.109 11.6035V12.5742H776.11V11.6035H780.109ZM777.464 9.80566H778.729V17.168C778.729 17.4186 778.767 17.6077 778.845 17.7354C778.922 17.863 779.022 17.9473 779.146 17.9883C779.269 18.0293 779.401 18.0498 779.542 18.0498C779.647 18.0498 779.756 18.0407 779.87 18.0225C779.989 17.9997 780.077 17.9814 780.137 17.9678L780.144 19C780.043 19.0319 779.911 19.0615 779.747 19.0889C779.588 19.1208 779.394 19.1367 779.166 19.1367C778.856 19.1367 778.571 19.0752 778.312 18.9521C778.052 18.8291 777.844 18.624 777.689 18.3369C777.539 18.0452 777.464 17.6533 777.464 17.1611V9.80566ZM786.368 17.291V11.6035H787.64V19H786.43L786.368 17.291ZM786.607 15.7324L787.134 15.7188C787.134 16.2109 787.081 16.6667 786.977 17.0859C786.876 17.5007 786.712 17.8607 786.484 18.166C786.257 18.4714 785.958 18.7106 785.589 18.8838C785.22 19.0524 784.771 19.1367 784.242 19.1367C783.882 19.1367 783.552 19.0843 783.251 18.9795C782.955 18.8747 782.7 18.7129 782.485 18.4941C782.271 18.2754 782.105 17.9906 781.986 17.6396C781.872 17.2887 781.815 16.8672 781.815 16.375V11.6035H783.08V16.3887C783.08 16.7214 783.117 16.9971 783.189 17.2158C783.267 17.43 783.369 17.6009 783.497 17.7285C783.629 17.8516 783.775 17.9382 783.935 17.9883C784.099 18.0384 784.267 18.0635 784.44 18.0635C784.978 18.0635 785.404 17.9609 785.719 17.7559C786.033 17.5462 786.259 17.266 786.396 16.915C786.537 16.5596 786.607 16.1654 786.607 15.7324ZM794.124 17.0381C794.124 16.8558 794.083 16.6872 794.001 16.5322C793.924 16.3727 793.762 16.2292 793.516 16.1016C793.274 15.9694 792.91 15.8555 792.422 15.7598C792.012 15.6732 791.64 15.5706 791.308 15.4521C790.979 15.3337 790.699 15.1901 790.467 15.0215C790.239 14.8529 790.063 14.6546 789.94 14.4268C789.817 14.1989 789.756 13.9323 789.756 13.627C789.756 13.3353 789.82 13.0596 789.947 12.7998C790.079 12.54 790.264 12.3099 790.501 12.1094C790.743 11.9089 791.032 11.7516 791.369 11.6377C791.706 11.5238 792.082 11.4668 792.497 11.4668C793.09 11.4668 793.595 11.5716 794.015 11.7812C794.434 11.9909 794.755 12.2712 794.979 12.6221C795.202 12.9684 795.313 13.3535 795.313 13.7773H794.049C794.049 13.5723 793.987 13.374 793.864 13.1826C793.746 12.9867 793.57 12.8249 793.338 12.6973C793.11 12.5697 792.83 12.5059 792.497 12.5059C792.146 12.5059 791.861 12.5605 791.643 12.6699C791.428 12.7747 791.271 12.9092 791.171 13.0732C791.075 13.2373 791.027 13.4105 791.027 13.5928C791.027 13.7295 791.05 13.8525 791.096 13.9619C791.146 14.0667 791.232 14.1647 791.355 14.2559C791.479 14.3424 791.652 14.4245 791.875 14.502C792.098 14.5794 792.383 14.6569 792.729 14.7344C793.336 14.8711 793.835 15.0352 794.227 15.2266C794.618 15.418 794.91 15.6527 795.102 15.9307C795.293 16.2087 795.389 16.5459 795.389 16.9424C795.389 17.266 795.32 17.5622 795.184 17.8311C795.051 18.0999 794.858 18.3324 794.603 18.5283C794.352 18.7197 794.051 18.8701 793.7 18.9795C793.354 19.0843 792.964 19.1367 792.531 19.1367C791.88 19.1367 791.328 19.0205 790.877 18.7881C790.426 18.5557 790.084 18.2549 789.852 17.8857C789.619 17.5166 789.503 17.127 789.503 16.7168H790.774C790.793 17.0632 790.893 17.3389 791.075 17.5439C791.257 17.7445 791.481 17.888 791.745 17.9746C792.009 18.0566 792.271 18.0977 792.531 18.0977C792.878 18.0977 793.167 18.0521 793.399 17.9609C793.636 17.8698 793.816 17.7445 793.939 17.585C794.062 17.4255 794.124 17.2432 794.124 17.0381Z" fill="#9181FF"/>
<path d="M712.025 7.75H713.388V17.4619L713.271 19H712.025V7.75ZM718.742 14.9717V15.1255C718.742 15.7017 718.673 16.2363 718.537 16.7295C718.4 17.2178 718.2 17.6426 717.936 18.0039C717.672 18.3652 717.35 18.646 716.969 18.8462C716.588 19.0464 716.151 19.1465 715.658 19.1465C715.155 19.1465 714.713 19.061 714.333 18.8901C713.957 18.7144 713.639 18.4629 713.38 18.1357C713.122 17.8086 712.914 17.4131 712.758 16.9492C712.606 16.4854 712.501 15.9629 712.443 15.3818V14.708C712.501 14.1221 712.606 13.5972 712.758 13.1333C712.914 12.6694 713.122 12.2739 713.38 11.9468C713.639 11.6147 713.957 11.3633 714.333 11.1924C714.708 11.0166 715.146 10.9287 715.644 10.9287C716.142 10.9287 716.583 11.0264 716.969 11.2217C717.355 11.4121 717.677 11.6855 717.936 12.042C718.2 12.3984 718.4 12.8257 718.537 13.3237C718.673 13.8169 718.742 14.3662 718.742 14.9717ZM717.379 15.1255V14.9717C717.379 14.5762 717.343 14.2051 717.27 13.8584C717.196 13.5068 717.079 13.1992 716.918 12.9355C716.757 12.667 716.544 12.457 716.281 12.3057C716.017 12.1494 715.692 12.0713 715.307 12.0713C714.965 12.0713 714.667 12.1299 714.413 12.2471C714.164 12.3643 713.952 12.5229 713.776 12.7231C713.6 12.9185 713.456 13.1431 713.344 13.397C713.236 13.646 713.156 13.9048 713.102 14.1733V15.9385C713.18 16.2803 713.307 16.6099 713.483 16.9272C713.664 17.2397 713.903 17.4961 714.201 17.6963C714.503 17.8965 714.877 17.9966 715.321 17.9966C715.688 17.9966 716 17.9233 716.259 17.7769C716.522 17.6255 716.735 17.418 716.896 17.1543C717.062 16.8906 717.184 16.5854 717.262 16.2388C717.34 15.8921 717.379 15.521 717.379 15.1255ZM722.844 18.1797L725.049 11.0752H726.499L723.32 20.2231C723.247 20.4185 723.149 20.6284 723.027 20.853C722.91 21.0825 722.759 21.2998 722.573 21.5049C722.388 21.71 722.163 21.876 721.899 22.0029C721.641 22.1348 721.331 22.2007 720.969 22.2007C720.862 22.2007 720.725 22.186 720.559 22.1567C720.393 22.1274 720.276 22.103 720.208 22.0835L720.2 20.9849C720.239 20.9897 720.3 20.9946 720.383 20.9995C720.471 21.0093 720.532 21.0142 720.566 21.0142C720.874 21.0142 721.135 20.9727 721.35 20.8896C721.565 20.8115 721.746 20.6772 721.892 20.4868C722.043 20.3013 722.173 20.0449 722.28 19.7178L722.844 18.1797ZM721.226 11.0752L723.284 17.2275L723.635 18.6558L722.661 19.1538L719.746 11.0752H721.226Z" fill="white"/>
<path d="M519.676 15.6089H521.082C521.009 16.2827 520.816 16.8857 520.503 17.418C520.191 17.9502 519.749 18.3726 519.178 18.6851C518.606 18.9927 517.894 19.1465 517.039 19.1465C516.414 19.1465 515.845 19.0293 515.333 18.7949C514.825 18.5605 514.388 18.2285 514.021 17.7988C513.655 17.3643 513.372 16.8442 513.172 16.2388C512.977 15.6284 512.879 14.9497 512.879 14.2026V13.1406C512.879 12.3936 512.977 11.7173 513.172 11.1118C513.372 10.5015 513.658 9.979 514.029 9.54443C514.405 9.10986 514.856 8.77539 515.384 8.54102C515.911 8.30664 516.504 8.18945 517.164 8.18945C517.969 8.18945 518.65 8.34082 519.207 8.64355C519.764 8.94629 520.196 9.36621 520.503 9.90332C520.816 10.4355 521.009 11.0532 521.082 11.7563H519.676C519.607 11.2583 519.48 10.8311 519.295 10.4746C519.109 10.1133 518.846 9.83496 518.504 9.63965C518.162 9.44434 517.715 9.34668 517.164 9.34668C516.69 9.34668 516.272 9.43701 515.911 9.61768C515.555 9.79834 515.254 10.0547 515.01 10.3867C514.771 10.7188 514.59 11.1167 514.468 11.5806C514.346 12.0444 514.285 12.5596 514.285 13.126V14.2026C514.285 14.7251 514.339 15.2158 514.446 15.6748C514.559 16.1338 514.727 16.5366 514.952 16.8833C515.176 17.23 515.462 17.5034 515.809 17.7036C516.155 17.8989 516.565 17.9966 517.039 17.9966C517.64 17.9966 518.118 17.9014 518.475 17.7109C518.831 17.5205 519.1 17.2471 519.28 16.8906C519.466 16.5342 519.598 16.1069 519.676 15.6089ZM522.694 15.1255V14.957C522.694 14.3857 522.777 13.856 522.943 13.3677C523.109 12.8745 523.349 12.4473 523.661 12.0859C523.974 11.7197 524.352 11.4365 524.796 11.2363C525.241 11.0312 525.739 10.9287 526.291 10.9287C526.847 10.9287 527.348 11.0312 527.792 11.2363C528.241 11.4365 528.622 11.7197 528.935 12.0859C529.252 12.4473 529.494 12.8745 529.66 13.3677C529.826 13.856 529.909 14.3857 529.909 14.957V15.1255C529.909 15.6968 529.826 16.2266 529.66 16.7148C529.494 17.2031 529.252 17.6304 528.935 17.9966C528.622 18.3579 528.244 18.6411 527.799 18.8462C527.36 19.0464 526.862 19.1465 526.305 19.1465C525.749 19.1465 525.248 19.0464 524.804 18.8462C524.359 18.6411 523.979 18.3579 523.661 17.9966C523.349 17.6304 523.109 17.2031 522.943 16.7148C522.777 16.2266 522.694 15.6968 522.694 15.1255ZM524.049 14.957V15.1255C524.049 15.521 524.096 15.8945 524.188 16.2461C524.281 16.5928 524.42 16.9004 524.606 17.1689C524.796 17.4375 525.033 17.6499 525.316 17.8062C525.6 17.9575 525.929 18.0332 526.305 18.0332C526.676 18.0332 527.001 17.9575 527.279 17.8062C527.562 17.6499 527.797 17.4375 527.982 17.1689C528.168 16.9004 528.307 16.5928 528.4 16.2461C528.498 15.8945 528.546 15.521 528.546 15.1255V14.957C528.546 14.5664 528.498 14.1978 528.4 13.8511C528.307 13.4995 528.166 13.1895 527.975 12.9209C527.79 12.6475 527.555 12.4326 527.272 12.2764C526.994 12.1201 526.667 12.042 526.291 12.042C525.919 12.042 525.592 12.1201 525.309 12.2764C525.031 12.4326 524.796 12.6475 524.606 12.9209C524.42 13.1895 524.281 13.4995 524.188 13.8511C524.096 14.1978 524.049 14.5664 524.049 14.957ZM533.213 12.5986V22.0469H531.851V11.0752H533.096L533.213 12.5986ZM538.552 14.9717V15.1255C538.552 15.7017 538.484 16.2363 538.347 16.7295C538.21 17.2178 538.01 17.6426 537.747 18.0039C537.488 18.3652 537.168 18.646 536.787 18.8462C536.406 19.0464 535.969 19.1465 535.476 19.1465C534.973 19.1465 534.529 19.0635 534.143 18.8975C533.757 18.7314 533.43 18.4897 533.162 18.1724C532.893 17.855 532.678 17.4741 532.517 17.0298C532.361 16.5854 532.253 16.085 532.195 15.5283V14.708C532.253 14.1221 532.363 13.5972 532.524 13.1333C532.686 12.6694 532.898 12.2739 533.162 11.9468C533.43 11.6147 533.755 11.3633 534.136 11.1924C534.517 11.0166 534.956 10.9287 535.454 10.9287C535.952 10.9287 536.394 11.0264 536.78 11.2217C537.166 11.4121 537.49 11.6855 537.754 12.042C538.018 12.3984 538.215 12.8257 538.347 13.3237C538.484 13.8169 538.552 14.3662 538.552 14.9717ZM537.19 15.1255V14.9717C537.19 14.5762 537.148 14.2051 537.065 13.8584C536.982 13.5068 536.853 13.1992 536.677 12.9355C536.506 12.667 536.287 12.457 536.018 12.3057C535.75 12.1494 535.43 12.0713 535.059 12.0713C534.717 12.0713 534.419 12.1299 534.165 12.2471C533.916 12.3643 533.704 12.5229 533.528 12.7231C533.352 12.9185 533.208 13.1431 533.096 13.397C532.988 13.646 532.908 13.9048 532.854 14.1733V16.0703C532.952 16.4121 533.088 16.7344 533.264 17.0371C533.44 17.335 533.674 17.5767 533.967 17.7622C534.26 17.9429 534.629 18.0332 535.073 18.0332C535.439 18.0332 535.754 17.9575 536.018 17.8062C536.287 17.6499 536.506 17.4375 536.677 17.1689C536.853 16.9004 536.982 16.5928 537.065 16.2461C537.148 15.8945 537.19 15.521 537.19 15.1255ZM542.669 18.1797L544.874 11.0752H546.324L543.146 20.2231C543.072 20.4185 542.975 20.6284 542.853 20.853C542.735 21.0825 542.584 21.2998 542.398 21.5049C542.213 21.71 541.988 21.876 541.725 22.0029C541.466 22.1348 541.156 22.2007 540.794 22.2007C540.687 22.2007 540.55 22.186 540.384 22.1567C540.218 22.1274 540.101 22.103 540.033 22.0835L540.025 20.9849C540.064 20.9897 540.125 20.9946 540.208 20.9995C540.296 21.0093 540.357 21.0142 540.392 21.0142C540.699 21.0142 540.96 20.9727 541.175 20.8896C541.39 20.8115 541.571 20.6772 541.717 20.4868C541.869 20.3013 541.998 20.0449 542.105 19.7178L542.669 18.1797ZM541.051 11.0752L543.109 17.2275L543.46 18.6558L542.486 19.1538L539.571 11.0752H541.051ZM549.152 12.3203V19H547.797V11.0752H549.116L549.152 12.3203ZM551.628 11.0312L551.621 12.291C551.508 12.2666 551.401 12.252 551.298 12.2471C551.201 12.2373 551.088 12.2324 550.961 12.2324C550.649 12.2324 550.373 12.2812 550.134 12.3789C549.895 12.4766 549.692 12.6133 549.526 12.7891C549.36 12.9648 549.228 13.1748 549.13 13.4189C549.038 13.6582 548.977 13.9219 548.947 14.21L548.566 14.4297C548.566 13.9512 548.613 13.502 548.706 13.082C548.803 12.6621 548.952 12.291 549.152 11.9688C549.353 11.6416 549.606 11.3877 549.914 11.207C550.227 11.0215 550.598 10.9287 551.027 10.9287C551.125 10.9287 551.237 10.9409 551.364 10.9653C551.491 10.9849 551.579 11.0068 551.628 11.0312ZM554.603 11.0752V19H553.24V11.0752H554.603ZM553.138 8.97314C553.138 8.75342 553.204 8.56787 553.335 8.4165C553.472 8.26514 553.672 8.18945 553.936 8.18945C554.195 8.18945 554.393 8.26514 554.529 8.4165C554.671 8.56787 554.742 8.75342 554.742 8.97314C554.742 9.18311 554.671 9.36377 554.529 9.51514C554.393 9.66162 554.195 9.73486 553.936 9.73486C553.672 9.73486 553.472 9.66162 553.335 9.51514C553.204 9.36377 553.138 9.18311 553.138 8.97314ZM562.162 11.0752H563.393V18.8315C563.393 19.5298 563.251 20.1255 562.968 20.6187C562.685 21.1118 562.289 21.4854 561.781 21.7393C561.278 21.998 560.697 22.1274 560.038 22.1274C559.765 22.1274 559.442 22.0835 559.071 21.9956C558.705 21.9126 558.344 21.7686 557.987 21.5635C557.636 21.3633 557.34 21.0923 557.101 20.7505L557.812 19.9448C558.144 20.3452 558.49 20.6235 558.852 20.7798C559.218 20.936 559.579 21.0142 559.936 21.0142C560.365 21.0142 560.736 20.9336 561.049 20.7725C561.361 20.6113 561.603 20.3721 561.774 20.0547C561.95 19.7422 562.038 19.3564 562.038 18.8975V12.8184L562.162 11.0752ZM556.706 15.1255V14.9717C556.706 14.3662 556.776 13.8169 556.918 13.3237C557.064 12.8257 557.272 12.3984 557.541 12.042C557.814 11.6855 558.144 11.4121 558.529 11.2217C558.915 11.0264 559.35 10.9287 559.833 10.9287C560.331 10.9287 560.766 11.0166 561.137 11.1924C561.513 11.3633 561.83 11.6147 562.089 11.9468C562.353 12.2739 562.56 12.6694 562.711 13.1333C562.863 13.5972 562.968 14.1221 563.026 14.708V15.3818C562.973 15.9629 562.868 16.4854 562.711 16.9492C562.56 17.4131 562.353 17.8086 562.089 18.1357C561.83 18.4629 561.513 18.7144 561.137 18.8901C560.761 19.061 560.321 19.1465 559.818 19.1465C559.345 19.1465 558.915 19.0464 558.529 18.8462C558.148 18.646 557.821 18.3652 557.548 18.0039C557.274 17.6426 557.064 17.2178 556.918 16.7295C556.776 16.2363 556.706 15.7017 556.706 15.1255ZM558.061 14.9717V15.1255C558.061 15.521 558.1 15.8921 558.178 16.2388C558.261 16.5854 558.385 16.8906 558.551 17.1543C558.722 17.418 558.939 17.6255 559.203 17.7769C559.467 17.9233 559.782 17.9966 560.148 17.9966C560.597 17.9966 560.968 17.9014 561.261 17.7109C561.554 17.5205 561.786 17.269 561.957 16.9565C562.133 16.644 562.27 16.3047 562.367 15.9385V14.1733C562.313 13.9048 562.23 13.646 562.118 13.397C562.011 13.1431 561.869 12.9185 561.693 12.7231C561.522 12.5229 561.31 12.3643 561.056 12.2471C560.802 12.1299 560.504 12.0713 560.163 12.0713C559.792 12.0713 559.472 12.1494 559.203 12.3057C558.939 12.457 558.722 12.667 558.551 12.9355C558.385 13.1992 558.261 13.5068 558.178 13.8584C558.1 14.2051 558.061 14.5762 558.061 14.9717ZM567.056 7.75V19H565.701V7.75H567.056ZM566.733 14.7373L566.169 14.7153C566.174 14.1733 566.255 13.6729 566.411 13.2139C566.567 12.75 566.787 12.3472 567.07 12.0054C567.354 11.6636 567.69 11.3999 568.081 11.2144C568.477 11.0239 568.914 10.9287 569.392 10.9287C569.783 10.9287 570.134 10.9824 570.447 11.0898C570.759 11.1924 571.025 11.3584 571.245 11.5879C571.47 11.8174 571.641 12.1152 571.758 12.4814C571.875 12.8428 571.934 13.2847 571.934 13.8071V19H570.571V13.7925C570.571 13.3774 570.51 13.0454 570.388 12.7964C570.266 12.5425 570.088 12.3594 569.854 12.2471C569.619 12.1299 569.331 12.0713 568.989 12.0713C568.652 12.0713 568.345 12.1421 568.066 12.2837C567.793 12.4253 567.556 12.6206 567.356 12.8696C567.161 13.1187 567.007 13.4043 566.895 13.7266C566.787 14.0439 566.733 14.3809 566.733 14.7373ZM577.53 11.0752V12.1152H573.246V11.0752H577.53ZM574.696 9.14893H576.051V17.0371C576.051 17.3057 576.092 17.5083 576.175 17.645C576.258 17.7817 576.366 17.8721 576.498 17.916C576.629 17.96 576.771 17.9819 576.922 17.9819C577.035 17.9819 577.152 17.9722 577.274 17.9526C577.401 17.9282 577.496 17.9087 577.56 17.894L577.567 19C577.459 19.0342 577.318 19.0659 577.142 19.0952C576.971 19.1294 576.764 19.1465 576.52 19.1465C576.188 19.1465 575.882 19.0806 575.604 18.9487C575.326 18.8169 575.104 18.5972 574.938 18.2896C574.776 17.9771 574.696 17.5571 574.696 17.0298V9.14893ZM589.441 14.6201H590.511C590.511 15.3867 590.291 15.9629 589.852 16.3486C589.417 16.7295 588.826 16.9199 588.079 16.9199C587.562 16.9199 587.112 16.8003 586.731 16.561C586.355 16.3218 586.062 15.9897 585.853 15.5649C585.647 15.1401 585.545 14.647 585.545 14.0854V13.2432C585.545 12.6816 585.647 12.1885 585.853 11.7637C586.062 11.3389 586.355 11.0068 586.731 10.7676C587.112 10.5283 587.562 10.4087 588.079 10.4087C588.826 10.4087 589.419 10.5991 589.859 10.98C590.298 11.3608 590.518 11.9346 590.518 12.7012H589.449C589.449 12.2178 589.332 11.8711 589.097 11.6611C588.868 11.4512 588.528 11.3462 588.079 11.3462C587.757 11.3462 587.486 11.4268 587.266 11.5879C587.046 11.749 586.88 11.9736 586.768 12.2617C586.656 12.5449 586.6 12.8696 586.6 13.2358V14.0854C586.6 14.4565 586.656 14.7861 586.768 15.0742C586.88 15.3574 587.046 15.5796 587.266 15.7407C587.486 15.9019 587.757 15.9824 588.079 15.9824C588.528 15.9824 588.868 15.8774 589.097 15.6675C589.327 15.4575 589.441 15.1084 589.441 14.6201ZM583.824 13.6606C583.824 14.3101 583.936 14.9155 584.161 15.4771C584.385 16.0386 584.698 16.5293 585.098 16.9492C585.499 17.3691 585.962 17.6963 586.49 17.9307C587.017 18.165 587.581 18.2822 588.182 18.2822C588.782 18.2822 589.344 18.165 589.866 17.9307C590.394 17.6963 590.855 17.3691 591.25 16.9492C591.651 16.5293 591.963 16.0386 592.188 15.4771C592.413 14.9155 592.525 14.3101 592.525 13.6606C592.525 13.0063 592.413 12.4009 592.188 11.8442C591.963 11.2876 591.651 10.8018 591.25 10.3867C590.855 9.9668 590.394 9.64209 589.866 9.4126C589.344 9.17822 588.782 9.06104 588.182 9.06104C587.581 9.06104 587.017 9.17822 586.49 9.4126C585.962 9.64209 585.499 9.9668 585.098 10.3867C584.698 10.8018 584.385 11.2876 584.161 11.8442C583.936 12.4009 583.824 13.0063 583.824 13.6606ZM582.981 13.6606C582.981 12.8843 583.116 12.1641 583.384 11.5C583.653 10.8359 584.026 10.2573 584.505 9.76416C584.983 9.26611 585.535 8.88037 586.16 8.60693C586.79 8.32861 587.464 8.18945 588.182 8.18945C588.899 8.18945 589.571 8.32861 590.196 8.60693C590.826 8.88037 591.377 9.26611 591.851 9.76416C592.33 10.2573 592.703 10.8359 592.972 11.5C593.24 12.1641 593.375 12.8843 593.375 13.6606C593.375 14.437 593.24 15.1572 592.972 15.8213C592.703 16.4854 592.33 17.0688 591.851 17.5718C591.377 18.0698 590.826 18.458 590.196 18.7363C589.571 19.0146 588.899 19.1538 588.182 19.1538C587.464 19.1538 586.79 19.0146 586.16 18.7363C585.535 18.458 584.983 18.0698 584.505 17.5718C584.026 17.0688 583.653 16.4854 583.384 15.8213C583.116 15.1572 582.981 14.437 582.981 13.6606ZM602.223 17.8867V19H595.243V18.0259L598.737 14.1367C599.167 13.6582 599.499 13.2529 599.733 12.9209C599.972 12.584 600.138 12.2837 600.231 12.02C600.329 11.7515 600.377 11.478 600.377 11.1997C600.377 10.8481 600.304 10.5308 600.158 10.2476C600.016 9.95947 599.806 9.72998 599.528 9.55908C599.25 9.38818 598.913 9.30273 598.517 9.30273C598.043 9.30273 597.648 9.39551 597.331 9.58105C597.018 9.76172 596.784 10.0156 596.627 10.3428C596.471 10.6699 596.393 11.0459 596.393 11.4707H595.038C595.038 10.8701 595.17 10.3208 595.434 9.82275C595.697 9.32471 596.088 8.9292 596.605 8.63623C597.123 8.33838 597.76 8.18945 598.517 8.18945C599.191 8.18945 599.767 8.30908 600.246 8.54834C600.724 8.78271 601.09 9.11475 601.344 9.54443C601.603 9.96924 601.732 10.4673 601.732 11.0386C601.732 11.3511 601.679 11.6685 601.571 11.9907C601.469 12.3081 601.325 12.6255 601.139 12.9429C600.958 13.2603 600.746 13.5728 600.502 13.8804C600.263 14.188 600.006 14.4907 599.733 14.7886L596.876 17.8867H602.223ZM610.618 12.8184V14.4443C610.618 15.3184 610.54 16.0557 610.383 16.6562C610.227 17.2568 610.002 17.7402 609.709 18.1064C609.417 18.4727 609.062 18.7388 608.647 18.9048C608.237 19.0659 607.773 19.1465 607.256 19.1465C606.846 19.1465 606.467 19.0952 606.121 18.9927C605.774 18.8901 605.461 18.7266 605.183 18.502C604.91 18.2725 604.675 17.9746 604.48 17.6084C604.285 17.2422 604.136 16.7979 604.033 16.2754C603.931 15.7529 603.879 15.1426 603.879 14.4443V12.8184C603.879 11.9443 603.958 11.2119 604.114 10.6211C604.275 10.0303 604.502 9.55664 604.795 9.2002C605.088 8.83887 605.439 8.58008 605.85 8.42383C606.265 8.26758 606.729 8.18945 607.241 8.18945C607.656 8.18945 608.037 8.24072 608.384 8.34326C608.735 8.44092 609.048 8.59961 609.321 8.81934C609.595 9.03418 609.827 9.32227 610.017 9.68359C610.212 10.04 610.361 10.4771 610.464 10.9946C610.566 11.5122 610.618 12.1201 610.618 12.8184ZM609.255 14.6641V12.5913C609.255 12.1128 609.226 11.6929 609.167 11.3315C609.114 10.9653 609.033 10.6528 608.926 10.394C608.818 10.1353 608.682 9.92529 608.516 9.76416C608.354 9.60303 608.167 9.48584 607.952 9.4126C607.742 9.33447 607.505 9.29541 607.241 9.29541C606.919 9.29541 606.633 9.35645 606.384 9.47852C606.135 9.5957 605.925 9.78369 605.754 10.0425C605.588 10.3013 605.461 10.6406 605.374 11.0605C605.286 11.4805 605.242 11.9907 605.242 12.5913V14.6641C605.242 15.1426 605.269 15.5649 605.322 15.9312C605.381 16.2974 605.466 16.6147 605.579 16.8833C605.691 17.147 605.828 17.3643 605.989 17.5352C606.15 17.7061 606.335 17.833 606.545 17.916C606.76 17.9941 606.997 18.0332 607.256 18.0332C607.588 18.0332 607.878 17.9697 608.127 17.8428C608.376 17.7158 608.584 17.5181 608.75 17.2495C608.921 16.9761 609.048 16.627 609.131 16.2021C609.214 15.7725 609.255 15.2598 609.255 14.6641ZM619.598 17.8867V19H612.618V18.0259L616.112 14.1367C616.542 13.6582 616.874 13.2529 617.108 12.9209C617.347 12.584 617.513 12.2837 617.606 12.02C617.704 11.7515 617.752 11.478 617.752 11.1997C617.752 10.8481 617.679 10.5308 617.533 10.2476C617.391 9.95947 617.181 9.72998 616.903 9.55908C616.625 9.38818 616.288 9.30273 615.892 9.30273C615.418 9.30273 615.023 9.39551 614.706 9.58105C614.393 9.76172 614.159 10.0156 614.002 10.3428C613.846 10.6699 613.768 11.0459 613.768 11.4707H612.413C612.413 10.8701 612.545 10.3208 612.809 9.82275C613.072 9.32471 613.463 8.9292 613.98 8.63623C614.498 8.33838 615.135 8.18945 615.892 8.18945C616.566 8.18945 617.142 8.30908 617.621 8.54834C618.099 8.78271 618.465 9.11475 618.719 9.54443C618.978 9.96924 619.107 10.4673 619.107 11.0386C619.107 11.3511 619.054 11.6685 618.946 11.9907C618.844 12.3081 618.7 12.6255 618.514 12.9429C618.333 13.2603 618.121 13.5728 617.877 13.8804C617.638 14.188 617.381 14.4907 617.108 14.7886L614.251 17.8867H619.598ZM628.286 17.8867V19H621.306V18.0259L624.799 14.1367C625.229 13.6582 625.561 13.2529 625.795 12.9209C626.035 12.584 626.201 12.2837 626.293 12.02C626.391 11.7515 626.44 11.478 626.44 11.1997C626.44 10.8481 626.367 10.5308 626.22 10.2476C626.079 9.95947 625.869 9.72998 625.59 9.55908C625.312 9.38818 624.975 9.30273 624.58 9.30273C624.106 9.30273 623.71 9.39551 623.393 9.58105C623.081 9.76172 622.846 10.0156 622.69 10.3428C622.534 10.6699 622.456 11.0459 622.456 11.4707H621.101C621.101 10.8701 621.232 10.3208 621.496 9.82275C621.76 9.32471 622.15 8.9292 622.668 8.63623C623.186 8.33838 623.823 8.18945 624.58 8.18945C625.253 8.18945 625.83 8.30908 626.308 8.54834C626.787 8.78271 627.153 9.11475 627.407 9.54443C627.666 9.96924 627.795 10.4673 627.795 11.0386C627.795 11.3511 627.741 11.6685 627.634 11.9907C627.531 12.3081 627.387 12.6255 627.202 12.9429C627.021 13.2603 626.809 13.5728 626.564 13.8804C626.325 14.188 626.069 14.4907 625.795 14.7886L622.939 17.8867H628.286ZM634.755 8.33594H636.125L639.618 17.0298L643.104 8.33594H644.481L640.146 19H639.076L634.755 8.33594ZM634.308 8.33594H635.517L635.714 14.8398V19H634.308V8.33594ZM643.712 8.33594H644.921V19H643.515V14.8398L643.712 8.33594ZM652.122 17.645V13.5654C652.122 13.2529 652.058 12.9819 651.931 12.7524C651.809 12.5181 651.624 12.3374 651.375 12.2104C651.125 12.0835 650.818 12.02 650.452 12.02C650.11 12.02 649.81 12.0786 649.551 12.1958C649.297 12.313 649.097 12.4668 648.95 12.6572C648.809 12.8477 648.738 13.0527 648.738 13.2725H647.383C647.383 12.9893 647.456 12.7085 647.603 12.4302C647.749 12.1519 647.959 11.9004 648.232 11.6758C648.511 11.4463 648.843 11.2656 649.229 11.1338C649.619 10.9971 650.054 10.9287 650.532 10.9287C651.108 10.9287 651.616 11.0264 652.056 11.2217C652.5 11.417 652.847 11.7124 653.096 12.1079C653.35 12.4985 653.477 12.9893 653.477 13.5801V17.2715C653.477 17.5352 653.499 17.8159 653.542 18.1138C653.591 18.4116 653.662 18.668 653.755 18.8828V19H652.341C652.273 18.8438 652.219 18.6362 652.18 18.3774C652.141 18.1138 652.122 17.8696 652.122 17.645ZM652.356 14.1953L652.371 15.1475H651.001C650.615 15.1475 650.271 15.1792 649.968 15.2427C649.666 15.3013 649.412 15.3916 649.207 15.5137C649.001 15.6357 648.845 15.7896 648.738 15.9751C648.63 16.1558 648.577 16.3682 648.577 16.6123C648.577 16.8613 648.633 17.0884 648.745 17.2935C648.857 17.4985 649.026 17.6621 649.25 17.7842C649.48 17.9014 649.761 17.96 650.093 17.96C650.508 17.96 650.874 17.8721 651.191 17.6963C651.509 17.5205 651.76 17.3057 651.946 17.0518C652.136 16.7979 652.239 16.5513 652.253 16.312L652.832 16.9639C652.798 17.1689 652.705 17.396 652.554 17.645C652.402 17.894 652.2 18.1333 651.946 18.3628C651.697 18.5874 651.399 18.7754 651.052 18.9268C650.71 19.0732 650.325 19.1465 649.895 19.1465C649.358 19.1465 648.887 19.0415 648.481 18.8315C648.081 18.6216 647.769 18.3408 647.544 17.9893C647.324 17.6328 647.214 17.2349 647.214 16.7954C647.214 16.3706 647.297 15.9971 647.463 15.6748C647.629 15.3477 647.869 15.0767 648.181 14.8618C648.494 14.6421 648.87 14.4761 649.309 14.3638C649.749 14.2515 650.239 14.1953 650.781 14.1953H652.356ZM660.853 17.4619V7.75H662.215V19H660.97L660.853 17.4619ZM655.521 15.1255V14.9717C655.521 14.3662 655.594 13.8169 655.741 13.3237C655.892 12.8257 656.104 12.3984 656.378 12.042C656.656 11.6855 656.986 11.4121 657.367 11.2217C657.752 11.0264 658.182 10.9287 658.656 10.9287C659.154 10.9287 659.588 11.0166 659.959 11.1924C660.335 11.3633 660.653 11.6147 660.912 11.9468C661.175 12.2739 661.383 12.6694 661.534 13.1333C661.686 13.5972 661.791 14.1221 661.849 14.708V15.3818C661.795 15.9629 661.69 16.4854 661.534 16.9492C661.383 17.4131 661.175 17.8086 660.912 18.1357C660.653 18.4629 660.335 18.7144 659.959 18.8901C659.583 19.061 659.144 19.1465 658.641 19.1465C658.177 19.1465 657.752 19.0464 657.367 18.8462C656.986 18.646 656.656 18.3652 656.378 18.0039C656.104 17.6426 655.892 17.2178 655.741 16.7295C655.594 16.2363 655.521 15.7017 655.521 15.1255ZM656.883 14.9717V15.1255C656.883 15.521 656.922 15.8921 657 16.2388C657.083 16.5854 657.21 16.8906 657.381 17.1543C657.552 17.418 657.77 17.6255 658.033 17.7769C658.297 17.9233 658.612 17.9966 658.978 17.9966C659.427 17.9966 659.796 17.9014 660.084 17.7109C660.377 17.5205 660.611 17.269 660.787 16.9565C660.963 16.644 661.1 16.3047 661.197 15.9385V14.1733C661.139 13.9048 661.053 13.646 660.941 13.397C660.833 13.1431 660.692 12.9185 660.516 12.7231C660.345 12.5229 660.133 12.3643 659.879 12.2471C659.63 12.1299 659.334 12.0713 658.993 12.0713C658.622 12.0713 658.302 12.1494 658.033 12.3057C657.77 12.457 657.552 12.667 657.381 12.9355C657.21 13.1992 657.083 13.5068 657 13.8584C656.922 14.2051 656.883 14.5762 656.883 14.9717ZM667.863 19.1465C667.312 19.1465 666.811 19.0537 666.362 18.8682C665.917 18.6777 665.534 18.4116 665.212 18.0698C664.895 17.728 664.65 17.3228 664.479 16.854C664.309 16.3853 664.223 15.8726 664.223 15.3159V15.0083C664.223 14.3638 664.318 13.79 664.509 13.2871C664.699 12.7793 664.958 12.3496 665.285 11.998C665.612 11.6465 665.983 11.3804 666.398 11.1997C666.813 11.019 667.243 10.9287 667.688 10.9287C668.254 10.9287 668.742 11.0264 669.152 11.2217C669.567 11.417 669.907 11.6904 670.17 12.042C670.434 12.3887 670.629 12.7988 670.756 13.2725C670.883 13.7412 670.947 14.2539 670.947 14.8105V15.4185H665.029V14.3125H669.592V14.21C669.572 13.8584 669.499 13.5166 669.372 13.1846C669.25 12.8525 669.055 12.5791 668.786 12.3643C668.518 12.1494 668.151 12.042 667.688 12.042C667.38 12.042 667.097 12.1079 666.838 12.2397C666.579 12.3667 666.357 12.5571 666.171 12.811C665.986 13.0649 665.842 13.375 665.739 13.7412C665.637 14.1074 665.585 14.5298 665.585 15.0083V15.3159C665.585 15.6919 665.637 16.0459 665.739 16.3779C665.847 16.7051 666 16.9932 666.201 17.2422C666.406 17.4912 666.652 17.6865 666.94 17.8281C667.233 17.9697 667.565 18.0405 667.937 18.0405C668.415 18.0405 668.82 17.9429 669.152 17.7476C669.484 17.5522 669.775 17.291 670.024 16.9639L670.844 17.6157C670.673 17.8745 670.456 18.1211 670.192 18.3555C669.929 18.5898 669.604 18.7803 669.218 18.9268C668.837 19.0732 668.386 19.1465 667.863 19.1465ZM678.756 17.5938L680.792 11.0752H681.686L681.51 12.3716L679.438 19H678.566L678.756 17.5938ZM677.387 11.0752L679.123 17.667L679.247 19H678.332L676.032 11.0752H677.387ZM683.634 17.6157L685.29 11.0752H686.637L684.337 19H683.429L683.634 17.6157ZM681.884 11.0752L683.876 17.4839L684.103 19H683.239L681.107 12.3569L680.932 11.0752H681.884ZM689.751 11.0752V19H688.389V11.0752H689.751ZM688.286 8.97314C688.286 8.75342 688.352 8.56787 688.484 8.4165C688.621 8.26514 688.821 8.18945 689.084 8.18945C689.343 8.18945 689.541 8.26514 689.678 8.4165C689.819 8.56787 689.89 8.75342 689.89 8.97314C689.89 9.18311 689.819 9.36377 689.678 9.51514C689.541 9.66162 689.343 9.73486 689.084 9.73486C688.821 9.73486 688.621 9.66162 688.484 9.51514C688.352 9.36377 688.286 9.18311 688.286 8.97314ZM695.494 11.0752V12.1152H691.209V11.0752H695.494ZM692.66 9.14893H694.015V17.0371C694.015 17.3057 694.056 17.5083 694.139 17.645C694.222 17.7817 694.33 17.8721 694.461 17.916C694.593 17.96 694.735 17.9819 694.886 17.9819C694.999 17.9819 695.116 17.9722 695.238 17.9526C695.365 17.9282 695.46 17.9087 695.523 17.894L695.531 19C695.423 19.0342 695.282 19.0659 695.106 19.0952C694.935 19.1294 694.728 19.1465 694.483 19.1465C694.151 19.1465 693.846 19.0806 693.568 18.9487C693.29 18.8169 693.067 18.5972 692.901 18.2896C692.74 17.9771 692.66 17.5571 692.66 17.0298V9.14893ZM698.688 7.75V19H697.333V7.75H698.688ZM698.366 14.7373L697.802 14.7153C697.807 14.1733 697.888 13.6729 698.044 13.2139C698.2 12.75 698.42 12.3472 698.703 12.0054C698.986 11.6636 699.323 11.3999 699.714 11.2144C700.109 11.0239 700.546 10.9287 701.025 10.9287C701.416 10.9287 701.767 10.9824 702.08 11.0898C702.392 11.1924 702.658 11.3584 702.878 11.5879C703.103 11.8174 703.273 12.1152 703.391 12.4814C703.508 12.8428 703.566 13.2847 703.566 13.8071V19H702.204V13.7925C702.204 13.3774 702.143 13.0454 702.021 12.7964C701.899 12.5425 701.721 12.3594 701.486 12.2471C701.252 12.1299 700.964 12.0713 700.622 12.0713C700.285 12.0713 699.978 12.1421 699.699 12.2837C699.426 12.4253 699.189 12.6206 698.989 12.8696C698.793 13.1187 698.64 13.4043 698.527 13.7266C698.42 14.0439 698.366 14.3809 698.366 14.7373Z" fill="white"/>
</svg>
