<svg width="343" height="73" viewBox="0 0 343 73" fill="none" xmlns="http://www.w3.org/2000/svg">
<path d="M44.475 54.525C40.7417 54.525 37.825 53.4167 35.725 51.2C33.625 48.9833 32.575 45.8333 32.575 41.75C32.575 39.0667 33.03 36.7683 33.94 34.855C34.8733 32.9183 36.1683 31.46 37.825 30.48C39.505 29.4767 41.4417 28.975 43.635 28.975C44.965 28.975 46.3067 29.36 47.66 30.13C48.1733 30.41 48.6867 30.7833 49.2 31.25C49.5967 30.6433 50.005 30.165 50.425 29.815C50.845 29.5117 51.0783 29.3483 51.125 29.325H52V35.975H50.6C50.2967 34.855 49.8417 33.84 49.235 32.93C48.675 32.0433 47.975 31.3083 47.135 30.725C46.3183 30.1417 45.3733 29.85 44.3 29.85C42.69 29.85 41.3483 30.7833 40.275 32.65C39.225 34.5167 38.7 37.55 38.7 41.75C38.7 46.02 39.2717 49.0767 40.415 50.92C41.5817 52.74 43.1683 53.65 45.175 53.65C46.2717 53.65 47.31 53.3467 48.29 52.74C49.2933 52.11 50.0983 51.2817 50.705 50.255C51.335 49.2283 51.65 48.1433 51.65 47H52.525C52.525 48.33 52.1633 49.5783 51.44 50.745C50.74 51.8883 49.7717 52.81 48.535 53.51C47.3217 54.1867 45.9683 54.525 44.475 54.525ZM64.0969 54.525C61.2035 54.525 58.9285 53.7083 57.2719 52.075C55.6385 50.4183 54.8219 48.1433 54.8219 45.25C54.8219 42.3567 55.6385 40.0933 57.2719 38.46C58.9285 36.8033 61.2035 35.975 64.0969 35.975C66.9902 35.975 69.2535 36.8033 70.8869 38.46C72.5435 40.0933 73.3719 42.3567 73.3719 45.25C73.3719 48.1433 72.5435 50.4183 70.8869 52.075C69.2535 53.7083 66.9902 54.525 64.0969 54.525ZM64.0969 53.825C65.0302 53.825 65.8119 53.1717 66.4419 51.865C67.0952 50.5583 67.4219 48.3533 67.4219 45.25C67.4219 42.1467 67.0952 39.9417 66.4419 38.635C65.8119 37.3283 65.0302 36.675 64.0969 36.675C63.1635 36.675 62.3702 37.3283 61.7169 38.635C61.0869 39.9417 60.7719 42.1467 60.7719 45.25C60.7719 48.3533 61.0869 50.5583 61.7169 51.865C62.3702 53.1717 63.1635 53.825 64.0969 53.825ZM76.1842 53.475L78.2842 52.95V37.55L76.1842 37.025V36.5H79.3342C80.7108 36.5 81.7958 36.9433 82.5892 37.83C82.8925 38.18 83.1492 38.6117 83.3592 39.125C83.6858 38.5183 84.0708 37.9933 84.5142 37.55C85.5642 36.5 86.8708 35.975 88.4342 35.975C89.7408 35.975 90.9075 36.255 91.9342 36.815C92.9842 37.3517 93.8008 38.0633 94.3842 38.95C94.9675 39.8367 95.2592 40.77 95.2592 41.75V52.95L97.3592 53.475V54H92.8092C90.7092 54 89.6592 52.95 89.6592 50.85V41.75C89.6592 40.28 89.3908 39.16 88.8542 38.39C88.3408 37.5967 87.7342 37.2 87.0342 37.2C86.1475 37.2 85.3542 37.6667 84.6542 38.6C84.3508 38.9967 84.0942 39.4633 83.8842 40V52.95L85.9842 53.475V54H76.1842V53.475ZM108.561 54.525C107.021 54.525 105.679 54.245 104.536 53.685C103.416 53.125 102.552 52.355 101.946 51.375C101.339 50.395 101.036 49.2867 101.036 48.05V37.375H98.5855V36.5H101.036V34.75C101.036 32.65 102.086 31.6 104.186 31.6H106.636V36.5H111.536V37.375H106.636V48.05C106.636 50.1967 106.857 51.6667 107.301 52.46C107.744 53.2533 108.397 53.65 109.261 53.65C110.101 53.65 110.836 53.2417 111.466 52.425C112.096 51.6083 112.411 50.5 112.411 49.1H113.286C113.286 50.8267 112.854 52.1683 111.991 53.125C111.127 54.0583 109.984 54.525 108.561 54.525ZM124.667 54.525C121.681 54.525 119.359 53.7083 117.702 52.075C116.046 50.4183 115.217 48.1433 115.217 45.25C115.217 43.36 115.579 41.715 116.302 40.315C117.026 38.915 118.029 37.8417 119.312 37.095C120.619 36.3483 122.112 35.975 123.792 35.975C125.472 35.975 126.942 36.29 128.202 36.92C129.486 37.55 130.466 38.4017 131.142 39.475C131.842 40.525 132.192 41.6917 132.192 42.975C132.192 43.5583 132.134 44.06 132.017 44.48L131.842 45.075C130.839 45.285 129.754 45.46 128.587 45.6C126.137 45.95 123.664 46.125 121.167 46.125C121.167 48.8317 121.541 50.7683 122.287 51.935C123.034 53.0783 124.061 53.65 125.367 53.65C126.277 53.65 127.117 53.44 127.887 53.02C128.681 52.5767 129.299 52.005 129.742 51.305C130.209 50.5817 130.442 49.8467 130.442 49.1H131.317C131.317 50.0333 131.037 50.92 130.477 51.76C129.917 52.6 129.136 53.2767 128.132 53.79C127.129 54.28 125.974 54.525 124.667 54.525ZM121.167 45.25C122.661 45.25 123.874 45.1917 124.807 45.075C125.204 45.0517 125.624 44.9933 126.067 44.9C126.091 44.7833 126.149 44.5267 126.242 44.13C126.359 43.5467 126.417 42.9283 126.417 42.275C126.417 40.3383 126.161 38.9267 125.647 38.04C125.134 37.13 124.516 36.675 123.792 36.675C122.042 36.675 121.167 39.5333 121.167 45.25ZM134.802 53.475L136.902 52.95V37.55L134.802 37.025V36.5H137.952C139.329 36.5 140.414 36.9433 141.207 37.83C141.511 38.18 141.767 38.6117 141.977 39.125C142.304 38.5183 142.689 37.9933 143.132 37.55C144.182 36.5 145.489 35.975 147.052 35.975C148.359 35.975 149.526 36.255 150.552 36.815C151.602 37.3517 152.419 38.0633 153.002 38.95C153.586 39.8367 153.877 40.77 153.877 41.75V52.95L155.977 53.475V54H151.427C149.327 54 148.277 52.95 148.277 50.85V41.75C148.277 40.28 148.009 39.16 147.472 38.39C146.959 37.5967 146.352 37.2 145.652 37.2C144.766 37.2 143.972 37.6667 143.272 38.6C142.969 38.9967 142.712 39.4633 142.502 40V52.95L144.602 53.475V54H134.802V53.475ZM167.179 54.525C165.639 54.525 164.297 54.245 163.154 53.685C162.034 53.125 161.17 52.355 160.564 51.375C159.957 50.395 159.654 49.2867 159.654 48.05V37.375H157.204V36.5H159.654V34.75C159.654 32.65 160.704 31.6 162.804 31.6H165.254V36.5H170.154V37.375H165.254V48.05C165.254 50.1967 165.475 51.6667 165.919 52.46C166.362 53.2533 167.015 53.65 167.879 53.65C168.719 53.65 169.454 53.2417 170.084 52.425C170.714 51.6083 171.029 50.5 171.029 49.1H171.904C171.904 50.8267 171.472 52.1683 170.609 53.125C169.745 54.0583 168.602 54.525 167.179 54.525ZM195.72 54.525C191.987 54.525 189.07 53.4167 186.97 51.2C184.87 48.9833 183.82 45.8333 183.82 41.75C183.82 39.0667 184.275 36.7683 185.185 34.855C186.118 32.9183 187.413 31.46 189.07 30.48C190.75 29.4767 192.687 28.975 194.88 28.975C196.21 28.975 197.552 29.36 198.905 30.13C199.418 30.41 199.932 30.7833 200.445 31.25C200.842 30.6433 201.25 30.165 201.67 29.815C202.09 29.5117 202.323 29.3483 202.37 29.325H203.245V35.975H201.845C201.542 34.855 201.087 33.84 200.48 32.93C199.92 32.0433 199.22 31.3083 198.38 30.725C197.563 30.1417 196.618 29.85 195.545 29.85C193.935 29.85 192.593 30.7833 191.52 32.65C190.47 34.5167 189.945 37.55 189.945 41.75C189.945 46.02 190.517 49.0767 191.66 50.92C192.827 52.74 194.413 53.65 196.42 53.65C197.517 53.65 198.555 53.3467 199.535 52.74C200.538 52.11 201.343 51.2817 201.95 50.255C202.58 49.2283 202.895 48.1433 202.895 47H203.77C203.77 48.33 203.408 49.5783 202.685 50.745C201.985 51.8883 201.017 52.81 199.78 53.51C198.567 54.1867 197.213 54.525 195.72 54.525ZM206.409 53.475L208.509 52.95V37.55L206.409 37.025V36.5H209.559C210.935 36.5 212.02 36.9433 212.814 37.83C213.117 38.18 213.374 38.6117 213.584 39.125C213.934 38.6117 214.365 38.145 214.879 37.725C216.045 36.7917 217.352 36.325 218.799 36.325C220.035 36.325 220.957 36.6167 221.564 37.2C222.194 37.76 222.509 38.5767 222.509 39.65C222.509 40.4433 222.264 41.085 221.774 41.575C221.307 42.0417 220.677 42.275 219.884 42.275C219.557 42.275 219.23 42.2517 218.904 42.205L218.484 42.1V37.2C217.294 37.2 216.209 37.6667 215.229 38.6C214.762 39.0667 214.389 39.5333 214.109 40V52.95L216.209 53.475V54H206.409V53.475ZM233.53 54.525C230.543 54.525 228.221 53.7083 226.565 52.075C224.908 50.4183 224.08 48.1433 224.08 45.25C224.08 43.36 224.441 41.715 225.165 40.315C225.888 38.915 226.891 37.8417 228.175 37.095C229.481 36.3483 230.975 35.975 232.655 35.975C234.335 35.975 235.805 36.29 237.065 36.92C238.348 37.55 239.328 38.4017 240.005 39.475C240.705 40.525 241.055 41.6917 241.055 42.975C241.055 43.5583 240.996 44.06 240.88 44.48L240.705 45.075C239.701 45.285 238.616 45.46 237.45 45.6C235 45.95 232.526 46.125 230.03 46.125C230.03 48.8317 230.403 50.7683 231.15 51.935C231.896 53.0783 232.923 53.65 234.23 53.65C235.14 53.65 235.98 53.44 236.75 53.02C237.543 52.5767 238.161 52.005 238.605 51.305C239.071 50.5817 239.305 49.8467 239.305 49.1H240.18C240.18 50.0333 239.9 50.92 239.34 51.76C238.78 52.6 237.998 53.2767 236.995 53.79C235.991 54.28 234.836 54.525 233.53 54.525ZM230.03 45.25C231.523 45.25 232.736 45.1917 233.67 45.075C234.066 45.0517 234.486 44.9933 234.93 44.9C234.953 44.7833 235.011 44.5267 235.105 44.13C235.221 43.5467 235.28 42.9283 235.28 42.275C235.28 40.3383 235.023 38.9267 234.51 38.04C233.996 37.13 233.378 36.675 232.655 36.675C230.905 36.675 230.03 39.5333 230.03 45.25ZM250.148 54.525C248.071 54.525 246.473 54.0817 245.353 53.195C244.233 52.3083 243.673 51.1767 243.673 49.8C243.673 48.89 243.871 47.9917 244.268 47.105C244.431 46.685 244.641 46.3 244.898 45.95C245.855 45.7167 246.893 45.5067 248.013 45.32C250.533 44.9 252.761 44.6433 254.698 44.55V43.5C254.698 40.91 254.383 39.125 253.753 38.145C253.123 37.165 252.155 36.675 250.848 36.675C250.358 36.675 249.938 36.7333 249.588 36.85L249.098 37.025V42.275L248.643 42.38C248.27 42.4267 247.955 42.45 247.698 42.45C246.905 42.45 246.263 42.2167 245.773 41.75C245.306 41.26 245.073 40.6183 245.073 39.825C245.073 38.7517 245.61 37.8417 246.683 37.095C247.78 36.3483 249.401 35.975 251.548 35.975C253.368 35.975 254.931 36.3017 256.238 36.955C257.568 37.585 258.571 38.4717 259.248 39.615C259.948 40.735 260.298 42.03 260.298 43.5V52.95L262.398 53.475V54H259.248C257.848 54 256.763 53.5683 255.993 52.705C255.666 52.355 255.41 51.9117 255.223 51.375C254.896 51.9583 254.511 52.4833 254.068 52.95C253.018 54 251.711 54.525 250.148 54.525ZM251.548 53.3C252.411 53.3 253.193 52.8333 253.893 51.9C254.15 51.55 254.418 51.0833 254.698 50.5V45.425C253.625 45.425 252.598 45.4833 251.618 45.6C250.895 45.6933 250.405 45.7517 250.148 45.775C250.031 46.0317 249.915 46.3817 249.798 46.825C249.565 47.7117 249.448 48.5867 249.448 49.45C249.448 50.7567 249.646 51.725 250.043 52.355C250.44 52.985 250.941 53.3 251.548 53.3ZM273.614 54.525C272.074 54.525 270.733 54.245 269.589 53.685C268.469 53.125 267.606 52.355 266.999 51.375C266.393 50.395 266.089 49.2867 266.089 48.05V37.375H263.639V36.5H266.089V34.75C266.089 32.65 267.139 31.6 269.239 31.6H271.689V36.5H276.589V37.375H271.689V48.05C271.689 50.1967 271.911 51.6667 272.354 52.46C272.798 53.2533 273.451 53.65 274.314 53.65C275.154 53.65 275.889 53.2417 276.519 52.425C277.149 51.6083 277.464 50.5 277.464 49.1H278.339C278.339 50.8267 277.908 52.1683 277.044 53.125C276.181 54.0583 275.038 54.525 273.614 54.525ZM280.271 53.475L282.371 52.95V37.55L280.271 37.025V36.5H284.821C286.921 36.5 287.971 37.55 287.971 39.65V52.95L290.071 53.475V54H280.271V53.475ZM284.821 34.4C284.121 34.4 283.538 34.1667 283.071 33.7C282.604 33.2333 282.371 32.65 282.371 31.95C282.371 31.25 282.604 30.6667 283.071 30.2C283.538 29.7333 284.121 29.5 284.821 29.5C285.521 29.5 286.104 29.7333 286.571 30.2C287.038 30.6667 287.271 31.25 287.271 31.95C287.271 32.65 287.038 33.2333 286.571 33.7C286.104 34.1667 285.521 34.4 284.821 34.4ZM301.441 54.525C298.547 54.525 296.272 53.7083 294.616 52.075C292.982 50.4183 292.166 48.1433 292.166 45.25C292.166 42.3567 292.982 40.0933 294.616 38.46C296.272 36.8033 298.547 35.975 301.441 35.975C304.334 35.975 306.597 36.8033 308.231 38.46C309.887 40.0933 310.716 42.3567 310.716 45.25C310.716 48.1433 309.887 50.4183 308.231 52.075C306.597 53.7083 304.334 54.525 301.441 54.525ZM301.441 53.825C302.374 53.825 303.156 53.1717 303.786 51.865C304.439 50.5583 304.766 48.3533 304.766 45.25C304.766 42.1467 304.439 39.9417 303.786 38.635C303.156 37.3283 302.374 36.675 301.441 36.675C300.507 36.675 299.714 37.3283 299.061 38.635C298.431 39.9417 298.116 42.1467 298.116 45.25C298.116 48.3533 298.431 50.5583 299.061 51.865C299.714 53.1717 300.507 53.825 301.441 53.825ZM313.528 53.475L315.628 52.95V37.55L313.528 37.025V36.5H316.678C318.055 36.5 319.14 36.9433 319.933 37.83C320.236 38.18 320.493 38.6117 320.703 39.125C321.03 38.5183 321.415 37.9933 321.858 37.55C322.908 36.5 324.215 35.975 325.778 35.975C327.085 35.975 328.251 36.255 329.278 36.815C330.328 37.3517 331.145 38.0633 331.728 38.95C332.311 39.8367 332.603 40.77 332.603 41.75V52.95L334.703 53.475V54H330.153C328.053 54 327.003 52.95 327.003 50.85V41.75C327.003 40.28 326.735 39.16 326.198 38.39C325.685 37.5967 325.078 37.2 324.378 37.2C323.491 37.2 322.698 37.6667 321.998 38.6C321.695 38.9967 321.438 39.4633 321.228 40V52.95L323.328 53.475V54H313.528V53.475Z" fill="#373C42"/>
<path d="M9.075 32.025V39.625C9.075 40.4737 8.80267 41.1323 8.258 41.601C7.726 42.057 6.92167 42.285 5.845 42.285C4.781 42.285 3.97667 42.057 3.432 41.601C2.88733 41.1323 2.615 40.4737 2.615 39.625V32.025C2.615 31.1763 2.881 30.524 3.413 30.068C3.95767 29.5993 4.762 29.365 5.826 29.365C6.90267 29.365 7.71333 29.5993 8.258 30.068C8.80267 30.524 9.075 31.1763 9.075 32.025ZM7.745 39.625V32.025C7.745 31.0117 7.11167 30.505 5.845 30.505C4.57833 30.505 3.945 31.0117 3.945 32.025V39.625C3.945 40.6383 4.57833 41.145 5.845 41.145C7.11167 41.145 7.745 40.6383 7.745 39.625ZM17.6395 29.65V38.01H18.5895V39.15H17.6395V42H16.3095V39.15H11.2745V38.01L16.3095 29.65H17.6395ZM16.3095 38.01V31.854L12.6045 38.01H16.3095Z" fill="#373C42"/>
</svg>
