<svg width="92" height="30" viewBox="0 0 92 30" fill="none" xmlns="http://www.w3.org/2000/svg">
<path d="M11.3379 13.1973V14.0059C11.3379 14.9668 11.2178 15.8281 10.9775 16.5898C10.7373 17.3516 10.3916 17.999 9.94043 18.5322C9.48926 19.0654 8.94727 19.4727 8.31445 19.7539C7.6875 20.0352 6.98438 20.1758 6.20508 20.1758C5.44922 20.1758 4.75488 20.0352 4.12207 19.7539C3.49512 19.4727 2.9502 19.0654 2.4873 18.5322C2.03027 17.999 1.67578 17.3516 1.42383 16.5898C1.17188 15.8281 1.0459 14.9668 1.0459 14.0059V13.1973C1.0459 12.2363 1.16895 11.3779 1.41504 10.6221C1.66699 9.86035 2.02148 9.21289 2.47852 8.67969C2.93555 8.14062 3.47754 7.73047 4.10449 7.44922C4.7373 7.16797 5.43164 7.02734 6.1875 7.02734C6.9668 7.02734 7.66992 7.16797 8.29688 7.44922C8.92969 7.73047 9.47168 8.14062 9.92285 8.67969C10.3799 9.21289 10.7285 9.86035 10.9688 10.6221C11.2148 11.3779 11.3379 12.2363 11.3379 13.1973ZM9.65918 14.0059V13.1797C9.65918 12.418 9.58008 11.7441 9.42188 11.1582C9.26953 10.5723 9.04395 10.0801 8.74512 9.68164C8.44629 9.2832 8.08008 8.98145 7.64648 8.77637C7.21875 8.57129 6.73242 8.46875 6.1875 8.46875C5.66016 8.46875 5.18262 8.57129 4.75488 8.77637C4.33301 8.98145 3.96973 9.2832 3.66504 9.68164C3.36621 10.0801 3.13477 10.5723 2.9707 11.1582C2.80664 11.7441 2.72461 12.418 2.72461 13.1797V14.0059C2.72461 14.7734 2.80664 15.4531 2.9707 16.0449C3.13477 16.6309 3.36914 17.126 3.67383 17.5303C3.98438 17.9287 4.35059 18.2305 4.77246 18.4355C5.2002 18.6406 5.67773 18.7432 6.20508 18.7432C6.75586 18.7432 7.24512 18.6406 7.67285 18.4355C8.10059 18.2305 8.46094 17.9287 8.75391 17.5303C9.05273 17.126 9.27832 16.6309 9.43066 16.0449C9.58301 15.4531 9.65918 14.7734 9.65918 14.0059ZM19.4502 17.8027V10.4902H21.085V20H19.5293L19.4502 17.8027ZM19.7578 15.7988L20.4346 15.7812C20.4346 16.4141 20.3672 17 20.2324 17.5391C20.1035 18.0723 19.8926 18.5352 19.5996 18.9277C19.3066 19.3203 18.9229 19.6279 18.4482 19.8506C17.9736 20.0674 17.3965 20.1758 16.7168 20.1758C16.2539 20.1758 15.8291 20.1084 15.4424 19.9736C15.0615 19.8389 14.7334 19.6309 14.458 19.3496C14.1826 19.0684 13.9688 18.7021 13.8164 18.251C13.6699 17.7998 13.5967 17.2578 13.5967 16.625V10.4902H15.2227V16.6426C15.2227 17.0703 15.2695 17.4248 15.3633 17.7061C15.4629 17.9814 15.5947 18.2012 15.7588 18.3652C15.9287 18.5234 16.1162 18.6348 16.3213 18.6992C16.5322 18.7637 16.749 18.7959 16.9717 18.7959C17.6631 18.7959 18.2109 18.6641 18.6152 18.4004C19.0195 18.1309 19.3096 17.7705 19.4854 17.3193C19.667 16.8623 19.7578 16.3555 19.7578 15.7988ZM25.1895 11.9844V20H23.5635V10.4902H25.1455L25.1895 11.9844ZM28.1602 10.4375L28.1514 11.9492C28.0166 11.9199 27.8877 11.9023 27.7646 11.8965C27.6475 11.8848 27.5127 11.8789 27.3604 11.8789C26.9854 11.8789 26.6543 11.9375 26.3672 12.0547C26.0801 12.1719 25.8369 12.3359 25.6377 12.5469C25.4385 12.7578 25.2803 13.0098 25.1631 13.3027C25.0518 13.5898 24.9785 13.9062 24.9434 14.252L24.4863 14.5156C24.4863 13.9414 24.542 13.4023 24.6533 12.8984C24.7705 12.3945 24.9492 11.9492 25.1895 11.5625C25.4297 11.1699 25.7344 10.8652 26.1035 10.6484C26.4785 10.4258 26.9238 10.3145 27.4395 10.3145C27.5566 10.3145 27.6914 10.3291 27.8438 10.3584C27.9961 10.3818 28.1016 10.4082 28.1602 10.4375ZM42.0996 15.9307H43.7871C43.6992 16.7393 43.4678 17.4629 43.0928 18.1016C42.7178 18.7402 42.1875 19.2471 41.502 19.6221C40.8164 19.9912 39.9609 20.1758 38.9355 20.1758C38.1855 20.1758 37.5029 20.0352 36.8877 19.7539C36.2783 19.4727 35.7539 19.0742 35.3145 18.5586C34.875 18.0371 34.5352 17.4131 34.2949 16.6865C34.0605 15.9541 33.9434 15.1396 33.9434 14.2432V12.9688C33.9434 12.0723 34.0605 11.2607 34.2949 10.5342C34.5352 9.80176 34.8779 9.1748 35.3232 8.65332C35.7744 8.13184 36.3164 7.73047 36.9492 7.44922C37.582 7.16797 38.2939 7.02734 39.085 7.02734C40.0518 7.02734 40.8691 7.20898 41.5371 7.57227C42.2051 7.93555 42.7236 8.43945 43.0928 9.08398C43.4678 9.72266 43.6992 10.4639 43.7871 11.3076H42.0996C42.0176 10.71 41.8652 10.1973 41.6426 9.76953C41.4199 9.33594 41.1035 9.00195 40.6934 8.76758C40.2832 8.5332 39.7471 8.41602 39.085 8.41602C38.5166 8.41602 38.0156 8.52441 37.582 8.74121C37.1543 8.95801 36.7939 9.26562 36.501 9.66406C36.2139 10.0625 35.9971 10.54 35.8506 11.0967C35.7041 11.6533 35.6309 12.2715 35.6309 12.9512V14.2432C35.6309 14.8701 35.6953 15.459 35.8242 16.0098C35.959 16.5605 36.1611 17.0439 36.4307 17.46C36.7002 17.876 37.043 18.2041 37.459 18.4443C37.875 18.6787 38.3672 18.7959 38.9355 18.7959C39.6562 18.7959 40.2305 18.6816 40.6582 18.4531C41.0859 18.2246 41.4082 17.8965 41.625 17.4688C41.8477 17.041 42.0059 16.5283 42.0996 15.9307ZM47.6191 6.5V20H45.9844V6.5H47.6191ZM51.9961 10.4902V20H50.3613V10.4902H51.9961ZM50.2383 7.96777C50.2383 7.7041 50.3174 7.48145 50.4756 7.2998C50.6396 7.11816 50.8799 7.02734 51.1963 7.02734C51.5068 7.02734 51.7441 7.11816 51.9082 7.2998C52.0781 7.48145 52.1631 7.7041 52.1631 7.96777C52.1631 8.21973 52.0781 8.43652 51.9082 8.61816C51.7441 8.79395 51.5068 8.88184 51.1963 8.88184C50.8799 8.88184 50.6396 8.79395 50.4756 8.61816C50.3174 8.43652 50.2383 8.21973 50.2383 7.96777ZM58.5527 20.1758C57.8906 20.1758 57.29 20.0645 56.751 19.8418C56.2178 19.6133 55.7578 19.2939 55.3711 18.8838C54.9902 18.4736 54.6973 17.9873 54.4922 17.4248C54.2871 16.8623 54.1846 16.2471 54.1846 15.5791V15.21C54.1846 14.4365 54.2988 13.748 54.5273 13.1445C54.7559 12.5352 55.0664 12.0195 55.459 11.5977C55.8516 11.1758 56.2969 10.8564 56.7949 10.6396C57.293 10.4229 57.8086 10.3145 58.3418 10.3145C59.0215 10.3145 59.6074 10.4316 60.0996 10.666C60.5977 10.9004 61.0049 11.2285 61.3213 11.6504C61.6377 12.0664 61.8721 12.5586 62.0244 13.127C62.1768 13.6895 62.2529 14.3047 62.2529 14.9727V15.7021H55.1514V14.375H60.627V14.252C60.6035 13.8301 60.5156 13.4199 60.3633 13.0215C60.2168 12.623 59.9824 12.2949 59.6602 12.0371C59.3379 11.7793 58.8984 11.6504 58.3418 11.6504C57.9727 11.6504 57.6328 11.7295 57.3223 11.8877C57.0117 12.04 56.7451 12.2686 56.5225 12.5732C56.2998 12.8779 56.127 13.25 56.0039 13.6895C55.8809 14.1289 55.8193 14.6357 55.8193 15.21V15.5791C55.8193 16.0303 55.8809 16.4551 56.0039 16.8535C56.1328 17.2461 56.3174 17.5918 56.5576 17.8906C56.8037 18.1895 57.0996 18.4238 57.4453 18.5938C57.7969 18.7637 58.1953 18.8486 58.6406 18.8486C59.2148 18.8486 59.7012 18.7314 60.0996 18.4971C60.498 18.2627 60.8467 17.9492 61.1455 17.5566L62.1299 18.3389C61.9248 18.6494 61.6641 18.9453 61.3477 19.2266C61.0312 19.5078 60.6416 19.7363 60.1787 19.9121C59.7217 20.0879 59.1797 20.1758 58.5527 20.1758ZM65.7773 12.5205V20H64.1514V10.4902H65.6895L65.7773 12.5205ZM65.3906 14.8848L64.7139 14.8584C64.7197 14.208 64.8164 13.6074 65.0039 13.0566C65.1914 12.5 65.4551 12.0166 65.7949 11.6064C66.1348 11.1963 66.5391 10.8799 67.0078 10.6572C67.4824 10.4287 68.0068 10.3145 68.5811 10.3145C69.0498 10.3145 69.4717 10.3789 69.8467 10.5078C70.2217 10.6309 70.541 10.8301 70.8047 11.1055C71.0742 11.3809 71.2793 11.7383 71.4199 12.1777C71.5605 12.6113 71.6309 13.1416 71.6309 13.7686V20H69.9961V13.751C69.9961 13.2529 69.9229 12.8545 69.7764 12.5557C69.6299 12.251 69.416 12.0312 69.1348 11.8965C68.8535 11.7559 68.5078 11.6855 68.0977 11.6855C67.6934 11.6855 67.3242 11.7705 66.9902 11.9404C66.6621 12.1104 66.3779 12.3447 66.1377 12.6436C65.9033 12.9424 65.7188 13.2852 65.584 13.6719C65.4551 14.0527 65.3906 14.457 65.3906 14.8848ZM78.082 10.4902V11.7383H72.9404V10.4902H78.082ZM74.6807 8.17871H76.3066V17.6445C76.3066 17.9668 76.3564 18.21 76.4561 18.374C76.5557 18.5381 76.6846 18.6465 76.8428 18.6992C77.001 18.752 77.1709 18.7783 77.3525 18.7783C77.4873 18.7783 77.6279 18.7666 77.7744 18.7432C77.9268 18.7139 78.041 18.6904 78.1172 18.6729L78.126 20C77.9971 20.041 77.8271 20.0791 77.6162 20.1143C77.4111 20.1553 77.1621 20.1758 76.8691 20.1758C76.4707 20.1758 76.1045 20.0967 75.7705 19.9385C75.4365 19.7803 75.1699 19.5166 74.9707 19.1475C74.7773 18.7725 74.6807 18.2686 74.6807 17.6357V8.17871ZM85.5264 17.4775C85.5264 17.2432 85.4736 17.0264 85.3682 16.8271C85.2686 16.6221 85.0605 16.4375 84.7441 16.2734C84.4336 16.1035 83.9648 15.957 83.3379 15.834C82.8105 15.7227 82.333 15.5908 81.9053 15.4385C81.4834 15.2861 81.123 15.1016 80.8242 14.8848C80.5312 14.668 80.3057 14.4131 80.1475 14.1201C79.9893 13.8271 79.9102 13.4844 79.9102 13.0918C79.9102 12.7168 79.9922 12.3623 80.1562 12.0283C80.3262 11.6943 80.5635 11.3984 80.8682 11.1406C81.1787 10.8828 81.5508 10.6807 81.9844 10.5342C82.418 10.3877 82.9014 10.3145 83.4346 10.3145C84.1963 10.3145 84.8467 10.4492 85.3857 10.7188C85.9248 10.9883 86.3379 11.3486 86.625 11.7998C86.9121 12.2451 87.0557 12.7402 87.0557 13.2852H85.4297C85.4297 13.0215 85.3506 12.7666 85.1924 12.5205C85.04 12.2686 84.8145 12.0605 84.5156 11.8965C84.2227 11.7324 83.8623 11.6504 83.4346 11.6504C82.9834 11.6504 82.6172 11.7207 82.3359 11.8613C82.0605 11.9961 81.8584 12.1689 81.7295 12.3799C81.6064 12.5908 81.5449 12.8135 81.5449 13.0479C81.5449 13.2236 81.5742 13.3818 81.6328 13.5225C81.6973 13.6572 81.8086 13.7832 81.9668 13.9004C82.125 14.0117 82.3477 14.1172 82.6348 14.2168C82.9219 14.3164 83.2881 14.416 83.7334 14.5156C84.5127 14.6914 85.1543 14.9023 85.6582 15.1484C86.1621 15.3945 86.5371 15.6963 86.7832 16.0537C87.0293 16.4111 87.1523 16.8447 87.1523 17.3545C87.1523 17.7705 87.0645 18.1514 86.8887 18.4971C86.7188 18.8428 86.4697 19.1416 86.1416 19.3936C85.8193 19.6396 85.4326 19.833 84.9814 19.9736C84.5361 20.1084 84.0352 20.1758 83.4785 20.1758C82.6406 20.1758 81.9316 20.0264 81.3516 19.7275C80.7715 19.4287 80.332 19.042 80.0332 18.5674C79.7344 18.0928 79.585 17.5918 79.585 17.0645H81.2197C81.2432 17.5098 81.3721 17.8643 81.6064 18.1279C81.8408 18.3857 82.1279 18.5703 82.4678 18.6816C82.8076 18.7871 83.1445 18.8398 83.4785 18.8398C83.9238 18.8398 84.2959 18.7812 84.5947 18.6641C84.8994 18.5469 85.1309 18.3857 85.2891 18.1807C85.4473 17.9756 85.5264 17.7412 85.5264 17.4775Z" fill="#373C42"/>
<path d="M0 29H91V30H0V29Z" fill="#373C42"/>
</svg>
