<svg width="626" height="73" viewBox="0 0 626 73" fill="none" xmlns="http://www.w3.org/2000/svg">
<path d="M41.325 54.525C39.6683 54.525 38.1167 54.1517 36.67 53.405C36.0167 53.0783 35.4683 52.6933 35.025 52.25C34.6983 52.7867 34.29 53.265 33.8 53.685C33.38 53.9883 33.1467 54.1517 33.1 54.175H32.225V47.525H33.625C33.975 48.6683 34.465 49.695 35.095 50.605C36.5183 52.635 38.3617 53.65 40.625 53.65C41.955 53.65 43.0167 53.2533 43.81 52.46C44.6033 51.6667 45 50.605 45 49.275C45 48.505 44.7667 47.8167 44.3 47.21C43.8567 46.6033 43.2967 46.0667 42.62 45.6C41.9433 45.1333 40.9983 44.55 39.785 43.85C38.245 42.9867 36.9967 42.205 36.04 41.505C35.0833 40.805 34.2667 39.93 33.59 38.88C32.9133 37.8067 32.575 36.5467 32.575 35.1C32.575 33.9567 32.89 32.93 33.52 32.02C34.1733 31.0867 35.1417 30.3517 36.425 29.815C37.7083 29.255 39.2833 28.975 41.15 28.975C42.5033 28.975 43.8567 29.36 45.21 30.13C45.7233 30.41 46.2367 30.7833 46.75 31.25C47.1467 30.6433 47.555 30.165 47.975 29.815C48.395 29.5117 48.6283 29.3483 48.675 29.325H49.55V35.975H48.15C47.8467 34.855 47.3917 33.84 46.785 32.93C46.225 32.0433 45.525 31.3083 44.685 30.725C43.8683 30.1417 42.9233 29.85 41.85 29.85C40.94 29.85 40.1583 30.2117 39.505 30.935C38.8517 31.6583 38.525 32.58 38.525 33.7C38.525 34.5633 38.77 35.345 39.26 36.045C39.7733 36.7217 40.3917 37.3167 41.115 37.83C41.8617 38.3433 42.865 38.9617 44.125 39.685C45.595 40.525 46.785 41.2717 47.695 41.925C48.605 42.5783 49.375 43.395 50.005 44.375C50.635 45.3317 50.95 46.44 50.95 47.7C50.95 48.96 50.5883 50.115 49.865 51.165C49.1417 52.1917 48.0567 53.0083 46.61 53.615C45.1633 54.2217 43.4017 54.525 41.325 54.525ZM53.2154 53.475L55.3154 52.95V37.55L53.2154 37.025V36.5H57.7654C59.8654 36.5 60.9154 37.55 60.9154 39.65V52.95L63.0154 53.475V54H53.2154V53.475ZM57.7654 34.4C57.0654 34.4 56.4821 34.1667 56.0154 33.7C55.5488 33.2333 55.3154 32.65 55.3154 31.95C55.3154 31.25 55.5488 30.6667 56.0154 30.2C56.4821 29.7333 57.0654 29.5 57.7654 29.5C58.4654 29.5 59.0488 29.7333 59.5154 30.2C59.9821 30.6667 60.2154 31.25 60.2154 31.95C60.2154 32.65 59.9821 33.2333 59.5154 33.7C59.0488 34.1667 58.4654 34.4 57.7654 34.4ZM74.21 54.525C72.67 54.525 71.3283 54.245 70.185 53.685C69.065 53.125 68.2016 52.355 67.595 51.375C66.9883 50.395 66.685 49.2867 66.685 48.05V37.375H64.235V36.5H66.685V34.75C66.685 32.65 67.735 31.6 69.835 31.6H72.285V36.5H77.185V37.375H72.285V48.05C72.285 50.1967 72.5066 51.6667 72.95 52.46C73.3933 53.2533 74.0466 53.65 74.91 53.65C75.75 53.65 76.485 53.2417 77.115 52.425C77.745 51.6083 78.06 50.5 78.06 49.1H78.935C78.935 50.8267 78.5033 52.1683 77.64 53.125C76.7766 54.0583 75.6333 54.525 74.21 54.525ZM90.3168 54.525C87.3301 54.525 85.0085 53.7083 83.3518 52.075C81.6951 50.4183 80.8668 48.1433 80.8668 45.25C80.8668 43.36 81.2285 41.715 81.9518 40.315C82.6751 38.915 83.6785 37.8417 84.9618 37.095C86.2685 36.3483 87.7618 35.975 89.4418 35.975C91.1218 35.975 92.5918 36.29 93.8518 36.92C95.1351 37.55 96.1151 38.4017 96.7918 39.475C97.4918 40.525 97.8418 41.6917 97.8418 42.975C97.8418 43.5583 97.7835 44.06 97.6668 44.48L97.4918 45.075C96.4885 45.285 95.4035 45.46 94.2368 45.6C91.7868 45.95 89.3135 46.125 86.8168 46.125C86.8168 48.8317 87.1901 50.7683 87.9368 51.935C88.6835 53.0783 89.7101 53.65 91.0168 53.65C91.9268 53.65 92.7668 53.44 93.5368 53.02C94.3301 52.5767 94.9485 52.005 95.3918 51.305C95.8585 50.5817 96.0918 49.8467 96.0918 49.1H96.9668C96.9668 50.0333 96.6868 50.92 96.1268 51.76C95.5668 52.6 94.7851 53.2767 93.7818 53.79C92.7785 54.28 91.6235 54.525 90.3168 54.525ZM86.8168 45.25C88.3101 45.25 89.5235 45.1917 90.4568 45.075C90.8535 45.0517 91.2735 44.9933 91.7168 44.9C91.7401 44.7833 91.7985 44.5267 91.8918 44.13C92.0085 43.5467 92.0668 42.9283 92.0668 42.275C92.0668 40.3383 91.8101 38.9267 91.2968 38.04C90.7835 37.13 90.1651 36.675 89.4418 36.675C87.6918 36.675 86.8168 39.5333 86.8168 45.25ZM100.452 53.475L102.552 52.95V37.55L100.452 37.025V36.5H103.602C104.978 36.5 106.063 36.9433 106.857 37.83C107.16 38.18 107.417 38.6117 107.627 39.125C107.977 38.4717 108.35 37.9467 108.747 37.55C109.797 36.5 110.998 35.975 112.352 35.975C113.705 35.975 114.895 36.2783 115.922 36.885C116.948 37.4683 117.742 38.2733 118.302 39.3C118.652 38.6233 119.025 38.075 119.422 37.655C120.495 36.535 121.697 35.975 123.027 35.975C124.263 35.975 125.372 36.2317 126.352 36.745C127.355 37.2583 128.125 37.9583 128.662 38.845C129.222 39.7317 129.502 40.7 129.502 41.75V52.95L131.602 53.475V54H127.052C124.952 54 123.902 52.95 123.902 50.85V41.75C123.902 40.2333 123.668 39.1017 123.202 38.355C122.735 37.585 122.21 37.2 121.627 37.2C120.95 37.2 120.262 37.6667 119.562 38.6C119.282 39.0433 119.037 39.51 118.827 40V52.95L120.927 53.475V54H111.127V53.475L113.227 52.95V41.75C113.227 40.2333 112.993 39.1017 112.527 38.355C112.06 37.585 111.535 37.2 110.952 37.2C110.275 37.2 109.587 37.6667 108.887 38.6C108.607 39.0433 108.362 39.51 108.152 40V52.95L110.252 53.475V54H100.452V53.475ZM140.534 54.525C138.457 54.525 136.859 54.0817 135.739 53.195C134.619 52.3083 134.059 51.1767 134.059 49.8C134.059 48.89 134.257 47.9917 134.654 47.105C134.817 46.685 135.027 46.3 135.284 45.95C136.24 45.7167 137.279 45.5067 138.399 45.32C140.919 44.9 143.147 44.6433 145.084 44.55V43.5C145.084 40.91 144.769 39.125 144.139 38.145C143.509 37.165 142.54 36.675 141.234 36.675C140.744 36.675 140.324 36.7333 139.974 36.85L139.484 37.025V42.275L139.029 42.38C138.655 42.4267 138.34 42.45 138.084 42.45C137.29 42.45 136.649 42.2167 136.159 41.75C135.692 41.26 135.459 40.6183 135.459 39.825C135.459 38.7517 135.995 37.8417 137.069 37.095C138.165 36.3483 139.787 35.975 141.934 35.975C143.754 35.975 145.317 36.3017 146.624 36.955C147.954 37.585 148.957 38.4717 149.634 39.615C150.334 40.735 150.684 42.03 150.684 43.5V52.95L152.784 53.475V54H149.634C148.234 54 147.149 53.5683 146.379 52.705C146.052 52.355 145.795 51.9117 145.609 51.375C145.282 51.9583 144.897 52.4833 144.454 52.95C143.404 54 142.097 54.525 140.534 54.525ZM141.934 53.3C142.797 53.3 143.579 52.8333 144.279 51.9C144.535 51.55 144.804 51.0833 145.084 50.5V45.425C144.01 45.425 142.984 45.4833 142.004 45.6C141.28 45.6933 140.79 45.7517 140.534 45.775C140.417 46.0317 140.3 46.3817 140.184 46.825C139.95 47.7117 139.834 48.5867 139.834 49.45C139.834 50.7567 140.032 51.725 140.429 52.355C140.825 52.985 141.327 53.3 141.934 53.3ZM154.55 60.475L156.65 59.95V37.55L154.55 37.025V36.5H157.7C159.077 36.5 160.162 36.9433 160.955 37.83C161.258 38.18 161.515 38.6117 161.725 39.125C162.028 38.5183 162.413 37.9933 162.88 37.55C163.93 36.5 165.237 35.975 166.8 35.975C168.177 35.975 169.402 36.3367 170.475 37.06C171.548 37.76 172.4 38.81 173.03 40.21C173.66 41.5867 173.975 43.2667 173.975 45.25C173.975 48.2367 173.275 50.535 171.875 52.145C170.498 53.7317 168.632 54.525 166.275 54.525C165.155 54.525 164.175 54.2917 163.335 53.825C162.985 53.6617 162.623 53.4283 162.25 53.125V59.95L164.35 60.475V61H154.55V60.475ZM164.875 53.475C165.878 53.475 166.648 52.8917 167.185 51.725C167.745 50.5583 168.025 48.4 168.025 45.25C168.025 42.24 167.768 40.1517 167.255 38.985C166.765 37.795 166.147 37.2 165.4 37.2C164.513 37.2 163.72 37.6667 163.02 38.6C162.717 38.9967 162.46 39.4633 162.25 40V52.075C162.577 52.4017 162.833 52.635 163.02 52.775C163.65 53.2417 164.268 53.475 164.875 53.475ZM193.41 54.525C191.333 54.525 189.735 54.0817 188.615 53.195C187.495 52.3083 186.935 51.1767 186.935 49.8C186.935 48.89 187.133 47.9917 187.53 47.105C187.693 46.685 187.903 46.3 188.16 45.95C189.116 45.7167 190.155 45.5067 191.275 45.32C193.795 44.9 196.023 44.6433 197.96 44.55V43.5C197.96 40.91 197.645 39.125 197.015 38.145C196.385 37.165 195.416 36.675 194.11 36.675C193.62 36.675 193.2 36.7333 192.85 36.85L192.36 37.025V42.275L191.905 42.38C191.531 42.4267 191.216 42.45 190.96 42.45C190.166 42.45 189.525 42.2167 189.035 41.75C188.568 41.26 188.335 40.6183 188.335 39.825C188.335 38.7517 188.871 37.8417 189.945 37.095C191.041 36.3483 192.663 35.975 194.81 35.975C196.63 35.975 198.193 36.3017 199.5 36.955C200.83 37.585 201.833 38.4717 202.51 39.615C203.21 40.735 203.56 42.03 203.56 43.5V52.95L205.66 53.475V54H202.51C201.11 54 200.025 53.5683 199.255 52.705C198.928 52.355 198.671 51.9117 198.485 51.375C198.158 51.9583 197.773 52.4833 197.33 52.95C196.28 54 194.973 54.525 193.41 54.525ZM194.81 53.3C195.673 53.3 196.455 52.8333 197.155 51.9C197.411 51.55 197.68 51.0833 197.96 50.5V45.425C196.886 45.425 195.86 45.4833 194.88 45.6C194.156 45.6933 193.666 45.7517 193.41 45.775C193.293 46.0317 193.176 46.3817 193.06 46.825C192.826 47.7117 192.71 48.5867 192.71 49.45C192.71 50.7567 192.908 51.725 193.305 52.355C193.701 52.985 194.203 53.3 194.81 53.3ZM207.776 53.475L209.876 52.95V37.55L207.776 37.025V36.5H210.926C212.303 36.5 213.388 36.9433 214.181 37.83C214.484 38.18 214.741 38.6117 214.951 39.125C215.278 38.5183 215.663 37.9933 216.106 37.55C217.156 36.5 218.463 35.975 220.026 35.975C221.333 35.975 222.499 36.255 223.526 36.815C224.576 37.3517 225.393 38.0633 225.976 38.95C226.559 39.8367 226.851 40.77 226.851 41.75V52.95L228.951 53.475V54H224.401C222.301 54 221.251 52.95 221.251 50.85V41.75C221.251 40.28 220.983 39.16 220.446 38.39C219.933 37.5967 219.326 37.2 218.626 37.2C217.739 37.2 216.946 37.6667 216.246 38.6C215.943 38.9967 215.686 39.4633 215.476 40V52.95L217.576 53.475V54H207.776V53.475ZM238.227 54.525C236.851 54.525 235.626 54.175 234.552 53.475C233.479 52.7517 232.627 51.7017 231.997 50.325C231.367 48.925 231.052 47.2333 231.052 45.25C231.052 42.2633 231.741 39.9767 233.117 38.39C234.517 36.78 236.396 35.975 238.752 35.975C239.872 35.975 240.852 36.2083 241.692 36.675C242.042 36.8383 242.404 37.0717 242.777 37.375V30.55L240.677 30.025V29.5H245.227C247.327 29.5 248.377 30.55 248.377 32.65V52.95L250.477 53.475V54H247.327C245.927 54 244.842 53.5683 244.072 52.705C243.746 52.355 243.489 51.9117 243.302 51.375C242.999 51.9583 242.614 52.4833 242.147 52.95C241.097 54 239.791 54.525 238.227 54.525ZM239.627 53.3C240.491 53.3 241.272 52.8333 241.972 51.9C242.229 51.55 242.497 51.0833 242.777 50.5V38.425C242.521 38.1683 242.252 37.935 241.972 37.725C241.342 37.2583 240.736 37.025 240.152 37.025C239.149 37.025 238.367 37.6083 237.807 38.775C237.271 39.9417 237.002 42.1 237.002 45.25C237.002 48.26 237.247 50.36 237.737 51.55C238.251 52.7167 238.881 53.3 239.627 53.3ZM262.391 30.375L260.466 30.025V29.5H264.666C265.903 29.5 266.918 29.78 267.711 30.34C268.504 30.9 269.064 31.6117 269.391 32.475L274.676 45.95L277.756 36.92L275.166 30.375L273.241 30.025V29.5H277.441C278.678 29.5 279.681 29.78 280.451 30.34C281.221 30.8767 281.793 31.5883 282.166 32.475L287.451 45.95L292.491 31.075L289.866 30.025V29.5H296.341V30.025L293.541 31.075L285.666 54.35H284.616L278.316 38.355L272.891 54.35H271.841L262.391 30.375ZM295.994 53.475L298.094 52.95V37.55L295.994 37.025V36.5H300.544C302.644 36.5 303.694 37.55 303.694 39.65V52.95L305.794 53.475V54H295.994V53.475ZM300.544 34.4C299.844 34.4 299.26 34.1667 298.794 33.7C298.327 33.2333 298.094 32.65 298.094 31.95C298.094 31.25 298.327 30.6667 298.794 30.2C299.26 29.7333 299.844 29.5 300.544 29.5C301.244 29.5 301.827 29.7333 302.294 30.2C302.76 30.6667 302.994 31.25 302.994 31.95C302.994 32.65 302.76 33.2333 302.294 33.7C301.827 34.1667 301.244 34.4 300.544 34.4ZM307.888 53.475L309.988 52.95V37.55L307.888 37.025V36.5H311.038C312.415 36.5 313.5 36.9433 314.293 37.83C314.597 38.18 314.853 38.6117 315.063 39.125C315.413 38.6117 315.845 38.145 316.358 37.725C317.525 36.7917 318.832 36.325 320.278 36.325C321.515 36.325 322.437 36.6167 323.043 37.2C323.673 37.76 323.988 38.5767 323.988 39.65C323.988 40.4433 323.743 41.085 323.253 41.575C322.787 42.0417 322.157 42.275 321.363 42.275C321.037 42.275 320.71 42.2517 320.383 42.205L319.963 42.1V37.2C318.773 37.2 317.688 37.6667 316.708 38.6C316.242 39.0667 315.868 39.5333 315.588 40V52.95L317.688 53.475V54H307.888V53.475ZM335.009 54.525C332.023 54.525 329.701 53.7083 328.044 52.075C326.388 50.4183 325.559 48.1433 325.559 45.25C325.559 43.36 325.921 41.715 326.644 40.315C327.368 38.915 328.371 37.8417 329.654 37.095C330.961 36.3483 332.454 35.975 334.134 35.975C335.814 35.975 337.284 36.29 338.544 36.92C339.828 37.55 340.808 38.4017 341.484 39.475C342.184 40.525 342.534 41.6917 342.534 42.975C342.534 43.5583 342.476 44.06 342.359 44.48L342.184 45.075C341.181 45.285 340.096 45.46 338.929 45.6C336.479 45.95 334.006 46.125 331.509 46.125C331.509 48.8317 331.883 50.7683 332.629 51.935C333.376 53.0783 334.403 53.65 335.709 53.65C336.619 53.65 337.459 53.44 338.229 53.02C339.023 52.5767 339.641 52.005 340.084 51.305C340.551 50.5817 340.784 49.8467 340.784 49.1H341.659C341.659 50.0333 341.379 50.92 340.819 51.76C340.259 52.6 339.478 53.2767 338.474 53.79C337.471 54.28 336.316 54.525 335.009 54.525ZM331.509 45.25C333.003 45.25 334.216 45.1917 335.149 45.075C335.546 45.0517 335.966 44.9933 336.409 44.9C336.433 44.7833 336.491 44.5267 336.584 44.13C336.701 43.5467 336.759 42.9283 336.759 42.275C336.759 40.3383 336.503 38.9267 335.989 38.04C335.476 37.13 334.858 36.675 334.134 36.675C332.384 36.675 331.509 39.5333 331.509 45.25ZM344.969 53.475L347.069 52.95V38.075H344.619V37.2H347.069V35.45C347.069 34.2133 347.361 33.105 347.944 32.125C348.551 31.145 349.402 30.375 350.499 29.815C351.619 29.255 352.926 28.975 354.419 28.975C355.632 28.975 356.671 29.1617 357.534 29.535C358.421 29.885 359.086 30.3633 359.529 30.97C359.972 31.5533 360.194 32.1717 360.194 32.825C360.194 33.6183 359.949 34.26 359.459 34.75C358.992 35.2167 358.362 35.45 357.569 35.45C357.242 35.45 356.916 35.4267 356.589 35.38L356.169 35.275V29.85L355.854 29.78C355.761 29.7567 355.656 29.7333 355.539 29.71C355.422 29.6867 355.282 29.675 355.119 29.675C354.326 29.675 353.719 30.095 353.299 30.935C352.879 31.7517 352.669 33.2567 352.669 35.45V37.2H358.269V38.075H352.669V52.95L354.769 53.475V54H344.969V53.475ZM360.012 53.475L362.112 52.95V37.55L360.012 37.025V36.5H363.162C364.539 36.5 365.624 36.9433 366.417 37.83C366.721 38.18 366.977 38.6117 367.187 39.125C367.537 38.6117 367.969 38.145 368.482 37.725C369.649 36.7917 370.956 36.325 372.402 36.325C373.639 36.325 374.561 36.6167 375.167 37.2C375.797 37.76 376.112 38.5767 376.112 39.65C376.112 40.4433 375.867 41.085 375.377 41.575C374.911 42.0417 374.281 42.275 373.487 42.275C373.161 42.275 372.834 42.2517 372.507 42.205L372.087 42.1V37.2C370.897 37.2 369.812 37.6667 368.832 38.6C368.366 39.0667 367.992 39.5333 367.712 40V52.95L369.812 53.475V54H360.012V53.475ZM383.825 54.525C381.748 54.525 380.15 54.0817 379.03 53.195C377.91 52.3083 377.35 51.1767 377.35 49.8C377.35 48.89 377.548 47.9917 377.945 47.105C378.108 46.685 378.318 46.3 378.575 45.95C379.531 45.7167 380.57 45.5067 381.69 45.32C384.21 44.9 386.438 44.6433 388.375 44.55V43.5C388.375 40.91 388.06 39.125 387.43 38.145C386.8 37.165 385.831 36.675 384.525 36.675C384.035 36.675 383.615 36.7333 383.265 36.85L382.775 37.025V42.275L382.32 42.38C381.946 42.4267 381.631 42.45 381.375 42.45C380.581 42.45 379.94 42.2167 379.45 41.75C378.983 41.26 378.75 40.6183 378.75 39.825C378.75 38.7517 379.286 37.8417 380.36 37.095C381.456 36.3483 383.078 35.975 385.225 35.975C387.045 35.975 388.608 36.3017 389.915 36.955C391.245 37.585 392.248 38.4717 392.925 39.615C393.625 40.735 393.975 42.03 393.975 43.5V52.95L396.075 53.475V54H392.925C391.525 54 390.44 53.5683 389.67 52.705C389.343 52.355 389.086 51.9117 388.9 51.375C388.573 51.9583 388.188 52.4833 387.745 52.95C386.695 54 385.388 54.525 383.825 54.525ZM385.225 53.3C386.088 53.3 386.87 52.8333 387.57 51.9C387.826 51.55 388.095 51.0833 388.375 50.5V45.425C387.301 45.425 386.275 45.4833 385.295 45.6C384.571 45.6933 384.081 45.7517 383.825 45.775C383.708 46.0317 383.591 46.3817 383.475 46.825C383.241 47.7117 383.125 48.5867 383.125 49.45C383.125 50.7567 383.323 51.725 383.72 52.355C384.116 52.985 384.618 53.3 385.225 53.3ZM398.191 53.475L400.291 52.95V37.55L398.191 37.025V36.5H401.341C402.718 36.5 403.803 36.9433 404.596 37.83C404.899 38.18 405.156 38.6117 405.366 39.125C405.716 38.4717 406.089 37.9467 406.486 37.55C407.536 36.5 408.738 35.975 410.091 35.975C411.444 35.975 412.634 36.2783 413.661 36.885C414.688 37.4683 415.481 38.2733 416.041 39.3C416.391 38.6233 416.764 38.075 417.161 37.655C418.234 36.535 419.436 35.975 420.766 35.975C422.003 35.975 423.111 36.2317 424.091 36.745C425.094 37.2583 425.864 37.9583 426.401 38.845C426.961 39.7317 427.241 40.7 427.241 41.75V52.95L429.341 53.475V54H424.791C422.691 54 421.641 52.95 421.641 50.85V41.75C421.641 40.2333 421.408 39.1017 420.941 38.355C420.474 37.585 419.949 37.2 419.366 37.2C418.689 37.2 418.001 37.6667 417.301 38.6C417.021 39.0433 416.776 39.51 416.566 40V52.95L418.666 53.475V54H408.866V53.475L410.966 52.95V41.75C410.966 40.2333 410.733 39.1017 410.266 38.355C409.799 37.585 409.274 37.2 408.691 37.2C408.014 37.2 407.326 37.6667 406.626 38.6C406.346 39.0433 406.101 39.51 405.891 40V52.95L407.991 53.475V54H398.191V53.475ZM440.898 54.525C437.911 54.525 435.59 53.7083 433.933 52.075C432.276 50.4183 431.448 48.1433 431.448 45.25C431.448 43.36 431.81 41.715 432.533 40.315C433.256 38.915 434.26 37.8417 435.543 37.095C436.85 36.3483 438.343 35.975 440.023 35.975C441.703 35.975 443.173 36.29 444.433 36.92C445.716 37.55 446.696 38.4017 447.373 39.475C448.073 40.525 448.423 41.6917 448.423 42.975C448.423 43.5583 448.365 44.06 448.248 44.48L448.073 45.075C447.07 45.285 445.985 45.46 444.818 45.6C442.368 45.95 439.895 46.125 437.398 46.125C437.398 48.8317 437.771 50.7683 438.518 51.935C439.265 53.0783 440.291 53.65 441.598 53.65C442.508 53.65 443.348 53.44 444.118 53.02C444.911 52.5767 445.53 52.005 445.973 51.305C446.44 50.5817 446.673 49.8467 446.673 49.1H447.548C447.548 50.0333 447.268 50.92 446.708 51.76C446.148 52.6 445.366 53.2767 444.363 53.79C443.36 54.28 442.205 54.525 440.898 54.525ZM437.398 45.25C438.891 45.25 440.105 45.1917 441.038 45.075C441.435 45.0517 441.855 44.9933 442.298 44.9C442.321 44.7833 442.38 44.5267 442.473 44.13C442.59 43.5467 442.648 42.9283 442.648 42.275C442.648 40.3383 442.391 38.9267 441.878 38.04C441.365 37.13 440.746 36.675 440.023 36.675C438.273 36.675 437.398 39.5333 437.398 45.25ZM472.917 54.525C469.184 54.525 466.267 53.4167 464.167 51.2C462.067 48.9833 461.017 45.8333 461.017 41.75C461.017 39.0667 461.472 36.7683 462.382 34.855C463.316 32.9183 464.611 31.46 466.267 30.48C467.947 29.4767 469.884 28.975 472.077 28.975C473.407 28.975 474.749 29.36 476.102 30.13C476.616 30.41 477.129 30.7833 477.642 31.25C478.039 30.6433 478.447 30.165 478.867 29.815C479.287 29.5117 479.521 29.3483 479.567 29.325H480.442V35.975H479.042C478.739 34.855 478.284 33.84 477.677 32.93C477.117 32.0433 476.417 31.3083 475.577 30.725C474.761 30.1417 473.816 29.85 472.742 29.85C471.132 29.85 469.791 30.7833 468.717 32.65C467.667 34.5167 467.142 37.55 467.142 41.75C467.142 46.02 467.714 49.0767 468.857 50.92C470.024 52.74 471.611 53.65 473.617 53.65C474.714 53.65 475.752 53.3467 476.732 52.74C477.736 52.11 478.541 51.2817 479.147 50.255C479.777 49.2283 480.092 48.1433 480.092 47H480.967C480.967 48.33 480.606 49.5783 479.882 50.745C479.182 51.8883 478.214 52.81 476.977 53.51C475.764 54.1867 474.411 54.525 472.917 54.525ZM483.606 53.475L485.706 52.95V37.55L483.606 37.025V36.5H486.756C488.133 36.5 489.218 36.9433 490.011 37.83C490.314 38.18 490.571 38.6117 490.781 39.125C491.131 38.6117 491.563 38.145 492.076 37.725C493.243 36.7917 494.549 36.325 495.996 36.325C497.233 36.325 498.154 36.6167 498.761 37.2C499.391 37.76 499.706 38.5767 499.706 39.65C499.706 40.4433 499.461 41.085 498.971 41.575C498.504 42.0417 497.874 42.275 497.081 42.275C496.754 42.275 496.428 42.2517 496.101 42.205L495.681 42.1V37.2C494.491 37.2 493.406 37.6667 492.426 38.6C491.959 39.0667 491.586 39.5333 491.306 40V52.95L493.406 53.475V54H483.606V53.475ZM510.727 54.525C507.74 54.525 505.419 53.7083 503.762 52.075C502.105 50.4183 501.277 48.1433 501.277 45.25C501.277 43.36 501.639 41.715 502.362 40.315C503.085 38.915 504.089 37.8417 505.372 37.095C506.679 36.3483 508.172 35.975 509.852 35.975C511.532 35.975 513.002 36.29 514.262 36.92C515.545 37.55 516.525 38.4017 517.202 39.475C517.902 40.525 518.252 41.6917 518.252 42.975C518.252 43.5583 518.194 44.06 518.077 44.48L517.902 45.075C516.899 45.285 515.814 45.46 514.647 45.6C512.197 45.95 509.724 46.125 507.227 46.125C507.227 48.8317 507.6 50.7683 508.347 51.935C509.094 53.0783 510.12 53.65 511.427 53.65C512.337 53.65 513.177 53.44 513.947 53.02C514.74 52.5767 515.359 52.005 515.802 51.305C516.269 50.5817 516.502 49.8467 516.502 49.1H517.377C517.377 50.0333 517.097 50.92 516.537 51.76C515.977 52.6 515.195 53.2767 514.192 53.79C513.189 54.28 512.034 54.525 510.727 54.525ZM507.227 45.25C508.72 45.25 509.934 45.1917 510.867 45.075C511.264 45.0517 511.684 44.9933 512.127 44.9C512.15 44.7833 512.209 44.5267 512.302 44.13C512.419 43.5467 512.477 42.9283 512.477 42.275C512.477 40.3383 512.22 38.9267 511.707 38.04C511.194 37.13 510.575 36.675 509.852 36.675C508.102 36.675 507.227 39.5333 507.227 45.25ZM527.345 54.525C525.268 54.525 523.67 54.0817 522.55 53.195C521.43 52.3083 520.87 51.1767 520.87 49.8C520.87 48.89 521.068 47.9917 521.465 47.105C521.628 46.685 521.838 46.3 522.095 45.95C523.052 45.7167 524.09 45.5067 525.21 45.32C527.73 44.9 529.958 44.6433 531.895 44.55V43.5C531.895 40.91 531.58 39.125 530.95 38.145C530.32 37.165 529.352 36.675 528.045 36.675C527.555 36.675 527.135 36.7333 526.785 36.85L526.295 37.025V42.275L525.84 42.38C525.467 42.4267 525.152 42.45 524.895 42.45C524.102 42.45 523.46 42.2167 522.97 41.75C522.503 41.26 522.27 40.6183 522.27 39.825C522.27 38.7517 522.807 37.8417 523.88 37.095C524.977 36.3483 526.598 35.975 528.745 35.975C530.565 35.975 532.128 36.3017 533.435 36.955C534.765 37.585 535.768 38.4717 536.445 39.615C537.145 40.735 537.495 42.03 537.495 43.5V52.95L539.595 53.475V54H536.445C535.045 54 533.96 53.5683 533.19 52.705C532.863 52.355 532.607 51.9117 532.42 51.375C532.093 51.9583 531.708 52.4833 531.265 52.95C530.215 54 528.908 54.525 527.345 54.525ZM528.745 53.3C529.608 53.3 530.39 52.8333 531.09 51.9C531.347 51.55 531.615 51.0833 531.895 50.5V45.425C530.822 45.425 529.795 45.4833 528.815 45.6C528.092 45.6933 527.602 45.7517 527.345 45.775C527.228 46.0317 527.112 46.3817 526.995 46.825C526.762 47.7117 526.645 48.5867 526.645 49.45C526.645 50.7567 526.843 51.725 527.24 52.355C527.637 52.985 528.138 53.3 528.745 53.3ZM550.812 54.525C549.272 54.525 547.93 54.245 546.787 53.685C545.667 53.125 544.803 52.355 544.197 51.375C543.59 50.395 543.287 49.2867 543.287 48.05V37.375H540.837V36.5H543.287V34.75C543.287 32.65 544.337 31.6 546.437 31.6H548.887V36.5H553.787V37.375H548.887V48.05C548.887 50.1967 549.108 51.6667 549.552 52.46C549.995 53.2533 550.648 53.65 551.512 53.65C552.352 53.65 553.087 53.2417 553.717 52.425C554.347 51.6083 554.662 50.5 554.662 49.1H555.537C555.537 50.8267 555.105 52.1683 554.242 53.125C553.378 54.0583 552.235 54.525 550.812 54.525ZM557.468 53.475L559.568 52.95V37.55L557.468 37.025V36.5H562.018C564.118 36.5 565.168 37.55 565.168 39.65V52.95L567.268 53.475V54H557.468V53.475ZM562.018 34.4C561.318 34.4 560.735 34.1667 560.268 33.7C559.802 33.2333 559.568 32.65 559.568 31.95C559.568 31.25 559.802 30.6667 560.268 30.2C560.735 29.7333 561.318 29.5 562.018 29.5C562.718 29.5 563.302 29.7333 563.768 30.2C564.235 30.6667 564.468 31.25 564.468 31.95C564.468 32.65 564.235 33.2333 563.768 33.7C563.302 34.1667 562.718 34.4 562.018 34.4ZM578.638 54.525C575.745 54.525 573.47 53.7083 571.813 52.075C570.18 50.4183 569.363 48.1433 569.363 45.25C569.363 42.3567 570.18 40.0933 571.813 38.46C573.47 36.8033 575.745 35.975 578.638 35.975C581.531 35.975 583.795 36.8033 585.428 38.46C587.085 40.0933 587.913 42.3567 587.913 45.25C587.913 48.1433 587.085 50.4183 585.428 52.075C583.795 53.7083 581.531 54.525 578.638 54.525ZM578.638 53.825C579.571 53.825 580.353 53.1717 580.983 51.865C581.636 50.5583 581.963 48.3533 581.963 45.25C581.963 42.1467 581.636 39.9417 580.983 38.635C580.353 37.3283 579.571 36.675 578.638 36.675C577.705 36.675 576.911 37.3283 576.258 38.635C575.628 39.9417 575.313 42.1467 575.313 45.25C575.313 48.3533 575.628 50.5583 576.258 51.865C576.911 53.1717 577.705 53.825 578.638 53.825ZM590.725 53.475L592.825 52.95V37.55L590.725 37.025V36.5H593.875C595.252 36.5 596.337 36.9433 597.13 37.83C597.434 38.18 597.69 38.6117 597.9 39.125C598.227 38.5183 598.612 37.9933 599.055 37.55C600.105 36.5 601.412 35.975 602.975 35.975C604.282 35.975 605.449 36.255 606.475 36.815C607.525 37.3517 608.342 38.0633 608.925 38.95C609.509 39.8367 609.8 40.77 609.8 41.75V52.95L611.9 53.475V54H607.35C605.25 54 604.2 52.95 604.2 50.85V41.75C604.2 40.28 603.932 39.16 603.395 38.39C602.882 37.5967 602.275 37.2 601.575 37.2C600.689 37.2 599.895 37.6667 599.195 38.6C598.892 38.9967 598.635 39.4633 598.425 40V52.95L600.525 53.475V54H590.725V53.475Z" fill="#373C42"/>
<path d="M9.075 32.025V39.625C9.075 40.4737 8.80267 41.1323 8.258 41.601C7.726 42.057 6.92167 42.285 5.845 42.285C4.781 42.285 3.97667 42.057 3.432 41.601C2.88733 41.1323 2.615 40.4737 2.615 39.625V32.025C2.615 31.1763 2.881 30.524 3.413 30.068C3.95767 29.5993 4.762 29.365 5.826 29.365C6.90267 29.365 7.71333 29.5993 8.258 30.068C8.80267 30.524 9.075 31.1763 9.075 32.025ZM7.745 39.625V32.025C7.745 31.0117 7.11167 30.505 5.845 30.505C4.57833 30.505 3.945 31.0117 3.945 32.025V39.625C3.945 40.6383 4.57833 41.145 5.845 41.145C7.11167 41.145 7.745 40.6383 7.745 39.625ZM18.5705 32.025V33.735C18.5705 34.8117 18.1209 35.502 17.2215 35.806C18.2475 36.0847 18.7605 36.7877 18.7605 37.915V39.625C18.7605 41.3983 17.6902 42.285 15.5495 42.285C13.4089 42.285 12.3385 41.3983 12.3385 39.625V38.01H13.6685V39.701C13.6685 40.157 13.8269 40.5117 14.1435 40.765C14.4602 41.0183 14.9289 41.145 15.5495 41.145C16.1702 41.145 16.6389 41.0183 16.9555 40.765C17.2722 40.5117 17.4305 40.157 17.4305 39.701V37.915C17.4305 37.5097 17.2785 37.1423 16.9745 36.813C16.6705 36.471 16.2589 36.3 15.7395 36.3H13.8205V35.35H15.5495C16.0815 35.35 16.4932 35.1853 16.7845 34.856C17.0885 34.5267 17.2405 34.153 17.2405 33.735V31.949C17.2405 31.493 17.0885 31.1383 16.7845 30.885C16.4932 30.6317 16.0499 30.505 15.4545 30.505C14.8592 30.505 14.4095 30.6317 14.1055 30.885C13.8142 31.1383 13.6685 31.493 13.6685 31.949V33.64H12.3385V32.025C12.3385 30.2517 13.3582 29.365 15.3975 29.365C16.4615 29.365 17.2532 29.5993 17.7725 30.068C18.3045 30.524 18.5705 31.1763 18.5705 32.025Z" fill="#373C42"/>
</svg>
