<svg width="250" height="569" viewBox="0 0 250 569" fill="none" xmlns="http://www.w3.org/2000/svg">
<g clip-path="url(#clip0_1_62)">
<path d="M8.12939 565.12C5.21529 565.12 2.78687 562.69 2.78687 559.774V8.84139C2.78687 5.92537 5.21529 3.49536 8.12939 3.49536H242.229C245.143 3.49536 247.572 5.92537 247.572 8.84139V559.774C247.572 562.69 245.143 565.12 242.229 565.12H8.12939Z" fill="white"/>
<path d="M242.229 3.98134C244.949 3.98134 247.086 6.11975 247.086 8.84137V559.774C247.086 562.495 244.949 564.634 242.229 564.634H8.12942C5.40959 564.634 3.27258 562.495 3.27258 559.774V8.84137C3.27258 6.11975 5.40959 3.98134 8.12942 3.98134H242.229ZM242.229 3.00934H8.12942C4.9239 3.00934 2.30121 5.63375 2.30121 8.84137V559.774C2.30121 562.981 4.9239 565.606 8.12942 565.606H242.229C245.435 565.606 248.057 562.981 248.057 559.774V8.84137C248.057 5.63375 245.435 3.00934 242.229 3.00934Z" fill="#696872"/>
<path d="M247.086 35.0855H3.27252V8.84135C3.27252 6.11973 5.40953 3.98132 8.12936 3.98132H242.229C244.949 3.98132 247.086 6.11973 247.086 8.84135V35.0855Z" fill="#E1E7F3"/>
<path d="M29.4024 24.3934C32.0847 24.3934 34.2592 22.2175 34.2592 19.5334C34.2592 16.8493 32.0847 14.6734 29.4024 14.6734C26.72 14.6734 24.5455 16.8493 24.5455 19.5334C24.5455 22.2175 26.72 24.3934 29.4024 24.3934Z" fill="white"/>
<path d="M47.9555 24.3934C50.6378 24.3934 52.8123 22.2175 52.8123 19.5334C52.8123 16.8493 50.6378 14.6734 47.9555 14.6734C45.2731 14.6734 43.0986 16.8493 43.0986 19.5334C43.0986 22.2175 45.2731 24.3934 47.9555 24.3934Z" fill="white"/>
<path d="M66.6057 24.3934C69.2881 24.3934 71.4626 22.2175 71.4626 19.5334C71.4626 16.8493 69.2881 14.6734 66.6057 14.6734C63.9234 14.6734 61.7489 16.8493 61.7489 19.5334C61.7489 22.2175 63.9234 24.3934 66.6057 24.3934Z" fill="white"/>
<path d="M224.065 12.3406H202.5C201.626 12.3406 201.043 12.8266 201.043 13.6042C201.043 14.2846 201.723 14.7706 202.5 14.7706H224.065C224.939 14.7706 225.716 14.2846 225.716 13.6042C225.716 12.9238 225.036 12.3406 224.065 12.3406Z" fill="white"/>
<path d="M224.065 18.367H202.5C201.626 18.367 201.043 18.853 201.043 19.6306C201.043 20.311 201.723 20.797 202.5 20.797H224.065C224.939 20.797 225.716 20.311 225.716 19.6306C225.716 18.853 225.036 18.367 224.065 18.367Z" fill="white"/>
<path d="M224.065 24.3934H202.5C201.626 24.3934 201.043 24.8794 201.043 25.657C201.043 26.3374 201.723 26.8234 202.5 26.8234H224.065C224.939 26.8234 225.716 26.3374 225.716 25.657C225.716 24.8794 225.036 24.3934 224.065 24.3934Z" fill="white"/>
<path d="M71.4626 309.677C77.2028 309.677 81.8562 305.02 81.8562 299.276C81.8562 293.532 77.2028 288.876 71.4626 288.876C65.7223 288.876 61.0689 293.532 61.0689 299.276C61.0689 305.02 65.7223 309.677 71.4626 309.677Z" fill="#E1E7F3"/>
<path d="M95.5525 292.57C94.5811 292.57 93.9011 293.444 93.9011 294.222C93.9011 295.194 94.7754 295.874 95.5525 295.874H177.342C178.313 295.874 178.993 295 178.993 294.222C178.993 293.25 178.119 292.57 177.342 292.57H95.5525Z" fill="#E1E7F3"/>
<path d="M95.5525 303.067C94.5811 303.067 93.9011 303.942 93.9011 304.72C93.9011 305.692 94.7754 306.372 95.5525 306.372H130.716C131.687 306.372 132.367 305.497 132.367 304.72C132.367 303.748 131.493 303.067 130.716 303.067H95.5525Z" fill="#E1E7F3"/>
<path d="M106.043 258.841C111.784 258.841 116.437 254.185 116.437 248.441C116.437 242.697 111.784 238.04 106.043 238.04C100.303 238.04 95.6497 242.697 95.6497 248.441C95.6497 254.185 100.303 258.841 106.043 258.841Z" fill="#E1E7F3"/>
<path d="M130.036 241.831C129.065 241.831 128.385 242.706 128.385 243.483C128.385 244.455 129.259 245.136 130.036 245.136H211.825C212.797 245.136 213.477 244.261 213.477 243.483C213.477 242.511 212.602 241.831 211.825 241.831H130.036Z" fill="#E1E7F3"/>
<path d="M130.036 252.329C129.065 252.329 128.385 253.203 128.385 253.981C128.385 254.953 129.259 255.633 130.036 255.633H165.2C166.171 255.633 166.851 254.759 166.851 253.981C166.851 253.009 165.977 252.329 165.2 252.329H130.036Z" fill="#E1E7F3"/>
<path d="M79.1364 91.3646C84.8766 91.3646 89.53 86.7081 89.53 80.9641C89.53 75.2201 84.8766 70.5637 79.1364 70.5637C73.3961 70.5637 68.7428 75.2201 68.7428 80.9641C68.7428 86.7081 73.3961 91.3646 79.1364 91.3646Z" fill="#ADA3F1"/>
<path d="M193.466 183.511H60.1947C57.4748 183.511 55.3378 181.372 55.3378 178.651V65.1205C55.3378 62.3988 57.4748 60.2604 60.1947 60.2604H193.466C196.186 60.2604 198.323 62.3988 198.323 65.1205V178.651C198.323 181.372 196.089 183.511 193.466 183.511Z" stroke="#696872" stroke-miterlimit="10"/>
<path d="M103.226 74.1601C102.255 74.1601 101.575 75.0349 101.575 75.8125C101.575 76.7845 102.449 77.4649 103.226 77.4649H184.918C185.89 77.4649 186.57 76.5901 186.57 75.8125C186.57 74.8405 185.695 74.1601 184.918 74.1601H103.226Z" fill="#CCCCCC"/>
<path d="M103.226 84.4633C102.255 84.4633 101.575 85.3381 101.575 86.1157C101.575 87.0877 102.449 87.7681 103.226 87.7681H138.39C139.361 87.7681 140.041 86.8933 140.041 86.1157C140.041 85.1437 139.167 84.4633 138.39 84.4633H103.226Z" fill="#CCCCCC"/>
<path d="M228.533 168.153H90.5014C89.1414 168.153 87.9758 166.987 87.9758 165.626V104.973C87.9758 103.612 89.1414 102.445 90.5014 102.445H228.533C229.893 102.445 231.058 103.612 231.058 104.973V165.626C231.058 166.987 229.893 168.153 228.533 168.153Z" fill="#ADA3F1"/>
<path d="M118.574 123.538C117.603 123.538 116.923 124.413 116.923 125.19C116.923 126.162 117.797 126.843 118.574 126.843H200.363C201.335 126.843 202.014 125.968 202.014 125.19C202.014 124.218 201.14 123.538 200.363 123.538H118.574Z" fill="white"/>
<path d="M118.574 133.55C117.603 133.55 116.923 134.424 116.923 135.202C116.923 136.174 117.797 136.854 118.574 136.854H200.363C201.335 136.854 202.014 135.98 202.014 135.202C202.014 134.23 201.14 133.55 200.363 133.55H118.574Z" fill="white"/>
<path d="M118.574 143.658C117.603 143.658 116.923 144.533 116.923 145.311C116.923 146.283 117.797 146.963 118.574 146.963H153.737C154.709 146.963 155.389 146.088 155.389 145.311C155.389 144.339 154.515 143.658 153.737 143.658H118.574Z" fill="white"/>
<path d="M216.488 495.33C225.619 489.109 232.321 478.125 230.864 467.142C222.51 475.987 211.534 481.527 199.489 482.985C194.826 483.471 189.678 483.666 186.473 486.971C184.433 489.012 183.656 492.122 183.656 494.941C183.656 497.76 184.336 500.579 185.113 503.495L184.918 504.175C195.798 503.592 207.163 501.648 216.488 495.33Z" fill="#E1E7F3"/>
<path d="M230.476 467.044C227.173 475.598 221.15 482.888 213.282 487.943C211.631 489.109 209.785 489.984 207.94 490.47C206.094 490.956 204.054 490.761 202.306 490.275C200.655 489.789 198.809 489.109 196.963 489.109C195.118 489.109 193.272 489.984 191.912 491.247C190.261 492.9 189.387 495.135 188.61 497.274C187.735 499.607 186.764 502.134 184.918 503.981C184.724 504.175 185.113 504.467 185.21 504.272C188.512 501.259 188.901 496.302 191.427 492.705C192.592 491.053 194.438 489.692 196.478 489.692C198.323 489.692 200.169 490.373 201.82 490.859C203.666 491.345 205.511 491.539 207.357 491.15C209.397 490.664 211.242 489.984 212.894 489.012C216.779 486.679 220.082 483.86 223.093 480.458C226.396 476.57 229.116 472.293 230.961 467.433C231.156 466.947 230.67 466.947 230.476 467.044Z" fill="white"/>
<path d="M216.002 486.484C218.042 489.012 221.636 489.498 224.356 487.845C224.647 487.651 224.356 487.165 224.162 487.359C221.636 488.817 218.333 488.331 216.294 485.998C216.196 485.901 215.808 486.29 216.002 486.484Z" fill="white"/>
<path d="M203.277 490.567C203.471 487.359 204.928 484.346 207.26 482.208C207.454 482.013 207.066 481.722 206.968 481.916C204.637 484.249 203.083 487.262 202.792 490.567C202.792 490.956 203.277 490.956 203.277 490.567Z" fill="white"/>
<path d="M225.813 476.279C224.842 475.404 224.356 474.237 224.356 473.071C224.356 472.779 223.87 472.779 223.87 473.071C223.676 474.432 224.356 475.695 225.327 476.57C225.522 476.765 225.522 476.765 225.619 476.57C226.007 476.376 226.007 476.279 225.813 476.279Z" fill="white"/>
<path d="M198.809 447.41C198.809 447.604 198.809 447.702 198.809 448.09C198.517 450.715 197.935 453.242 197.352 455.964C197.352 456.158 197.158 456.255 197.158 456.644C195.312 462.865 192.495 468.502 188.512 473.557C187.055 475.598 185.21 477.445 183.364 479.194C180.839 481.527 177.827 484.054 176.37 487.068C176.176 487.359 176.079 487.748 175.885 488.04L184.044 504.272C184.044 504.272 184.044 504.272 184.238 504.467L184.53 505.147C184.724 504.953 184.724 504.953 184.821 504.855L185.015 504.661C185.015 504.661 185.015 504.661 185.21 504.467C185.21 504.467 185.21 504.467 185.404 504.272C185.89 503.786 186.57 503.3 187.055 502.814C191.427 498.926 195.603 494.649 198.712 489.984C198.906 489.789 198.906 489.692 199.003 489.498C200.46 487.359 201.82 485.124 202.889 482.694C203.569 481.333 204.054 480.069 204.54 478.708C205.706 475.209 206.386 471.516 206.58 467.822C206.774 460.435 204.54 453.145 199.586 447.993C199.003 447.507 199.003 447.507 198.809 447.41Z" fill="#E1E7F3"/>
<path d="M198.615 447.507C201.14 456.352 200.655 465.878 197.449 474.432C196.769 476.278 195.798 478.125 194.632 479.583C193.466 481.041 191.815 482.208 189.969 482.888C188.318 483.569 186.473 484.055 184.918 485.027C183.461 486.193 182.393 487.845 182.296 489.692C182.004 492.025 182.587 494.163 183.17 496.496C183.85 499.023 184.627 501.551 184.141 503.981C184.141 504.272 184.627 504.272 184.627 503.981C185.501 499.509 182.781 495.427 182.587 490.956C182.587 488.915 183.073 486.776 184.724 485.415C186.181 484.249 188.027 483.763 189.775 483.083C191.621 482.402 193.078 481.43 194.438 480.069C195.798 478.611 196.769 476.862 197.449 475.015C199.1 470.835 200.072 466.461 200.46 461.99C200.752 456.936 200.266 451.784 199.003 446.924C199.003 447.021 198.517 447.216 198.615 447.507Z" fill="white"/>
<path d="M198.615 471.71C201.82 472.39 204.929 470.738 206.094 467.725C206.288 467.433 205.803 467.239 205.608 467.53C204.443 470.349 201.432 471.904 198.615 471.224C198.517 471.03 198.323 471.613 198.615 471.71Z" fill="white"/>
<path d="M190.941 482.791C189.29 480.167 188.61 476.959 189.095 473.751C189.095 473.46 188.61 473.46 188.61 473.751C188.124 477.056 188.804 480.458 190.649 483.083C190.649 483.277 191.135 482.888 190.941 482.791Z" fill="white"/>
<path d="M200.266 457.519C199.1 457.519 197.935 456.838 197.255 455.866C197.06 455.575 196.769 455.866 196.963 456.158C197.643 457.324 199.003 458.005 200.266 458.005C200.46 458.005 200.557 458.005 200.557 457.81C200.46 457.713 200.46 457.519 200.266 457.519Z" fill="white"/>
<path d="M174.233 353.028H166.268C167.434 356.042 166.074 359.541 162.965 360.707C162.285 360.999 161.508 361.193 160.828 361.193H125.665C122.362 361.193 119.642 358.569 119.642 355.167C119.642 354.292 119.837 353.709 120.128 353.028H112.649C105.849 353.028 100.118 358.666 100.118 365.567V524.393C100.118 531.197 105.752 536.932 112.649 536.932H174.428C181.227 536.932 186.958 531.294 186.958 524.393V365.567C186.764 358.569 181.13 353.028 174.233 353.028Z" fill="white" stroke="#696872" stroke-miterlimit="10"/>
<path d="M174.816 377.426H156.263C155.777 377.426 155.389 377.134 155.389 376.551C155.389 375.968 155.68 375.676 156.263 375.676H174.816C175.302 375.676 175.69 375.968 175.69 376.551C175.496 377.037 175.108 377.426 174.816 377.426Z" fill="#ADA3F1"/>
<path d="M116.825 488.915H50.8696C49.024 488.915 47.4698 487.359 47.4698 485.513V470.252C47.4698 468.405 49.024 466.85 50.8696 466.85H116.825C118.671 466.85 120.225 468.405 120.225 470.252V485.513C120.225 487.457 118.671 488.915 116.825 488.915Z" fill="white" stroke="#696872" stroke-miterlimit="10"/>
<path d="M174.816 380.925H156.263C155.777 380.925 155.389 380.633 155.389 380.05C155.389 379.467 155.68 379.175 156.263 379.175H174.816C175.302 379.175 175.69 379.467 175.69 380.05C175.496 380.536 175.108 380.925 174.816 380.925Z" fill="#ADA3F1"/>
<path d="M174.816 384.424H156.263C155.777 384.424 155.389 384.132 155.389 383.549C155.389 382.966 155.68 382.674 156.263 382.674H174.816C175.302 382.674 175.69 382.966 175.69 383.549C175.496 384.035 175.108 384.424 174.816 384.424Z" fill="#ADA3F1"/>
<path d="M105.655 474.723H61.9432C61.4575 474.723 60.9718 474.432 60.9718 473.751C60.9718 473.265 61.2632 472.779 61.9432 472.779H105.655C106.14 472.779 106.626 473.071 106.626 473.751C106.723 474.237 106.238 474.723 105.655 474.723Z" fill="#ADA3F1"/>
<path d="M105.655 478.903H61.9432C61.4575 478.903 60.9718 478.611 60.9718 477.931C60.9718 477.445 61.2632 476.959 61.9432 476.959H105.655C106.14 476.959 106.626 477.251 106.626 477.931C106.723 478.417 106.238 478.903 105.655 478.903Z" fill="#ADA3F1"/>
<path d="M87.9758 483.083H61.9432C61.4575 483.083 60.9718 482.791 60.9718 482.111C60.9718 481.625 61.2632 481.139 61.9432 481.139H87.9758C88.4615 481.139 88.9472 481.43 88.9472 482.111C89.0443 482.791 88.4615 483.083 87.9758 483.083Z" fill="#ADA3F1"/>
<path d="M220.373 526.531H121.197C118.38 526.531 116.048 524.782 116.048 522.643V505.244C116.048 503.106 118.38 501.356 121.197 501.356H220.47C223.287 501.356 225.619 503.106 225.619 505.244V522.643C225.522 524.782 223.19 526.531 220.373 526.531Z" fill="white" stroke="#696872" stroke-miterlimit="10"/>
<path d="M185.793 319.105H52.5209C49.8011 319.105 47.6641 316.967 47.6641 314.245V284.696C47.6641 281.975 49.8011 279.836 52.5209 279.836H185.793C188.512 279.836 190.649 281.975 190.649 284.696V314.245C190.649 316.967 188.415 319.105 185.793 319.105Z" stroke="#696872" stroke-miterlimit="10"/>
<path d="M131.882 509.618C131.202 509.618 130.91 510.104 130.91 510.59C130.91 511.271 131.396 511.562 131.882 511.562H209.688C210.368 511.562 210.66 511.076 210.66 510.59C210.66 509.91 210.174 509.618 209.688 509.618H131.882Z" fill="#ADA3F1"/>
<path d="M131.882 516.131C131.202 516.131 130.91 516.617 130.91 517.103C130.91 517.589 131.396 518.075 131.882 518.075H181.13C181.81 518.075 182.101 517.589 182.101 517.103C182.101 516.617 181.616 516.131 181.13 516.131H131.882Z" fill="#ADA3F1"/>
<path d="M53.1037 454.02C50.5781 454.02 48.6354 451.978 48.6354 449.548C48.6354 447.118 50.6753 445.077 53.1037 445.077C55.5321 445.077 57.572 447.118 57.572 449.548C57.572 451.978 55.6293 454.02 53.1037 454.02Z" fill="#F0F0F0"/>
<path d="M73.9881 389.284C71.1712 389.284 68.937 386.951 68.937 384.23C68.937 381.508 71.2683 379.175 73.9881 379.175C76.8051 379.175 79.0393 381.508 79.0393 384.23C79.0393 386.951 76.6108 389.284 73.9881 389.284Z" fill="#E1E7F3"/>
<path d="M203.957 425.345C201.626 425.345 199.586 423.304 199.586 420.971C199.586 418.639 201.626 416.597 203.957 416.597C206.288 416.597 208.328 418.639 208.328 420.971C208.328 423.499 206.288 425.345 203.957 425.345Z" fill="#E1E7F3"/>
<path d="M176.467 398.324H111.192L176.467 447.41V398.324Z" fill="#E1E7F3"/>
<path d="M176.467 397.74H110.026V447.993H176.467V397.74Z" stroke="#696872" stroke-miterlimit="10"/>
<path d="M213.185 537.029C207.843 537.029 203.374 532.655 203.374 527.212C203.374 521.866 207.746 517.394 213.185 517.394C218.625 517.394 222.996 521.768 222.996 527.212C222.996 532.655 218.528 537.029 213.185 537.029Z" fill="#ADA3F1"/>
<path d="M42.3215 214.42H20.9514C20.0772 214.42 19.3001 213.74 19.3001 212.768C19.3001 211.796 19.9801 211.116 20.9514 211.116H42.3215C43.1958 211.116 43.7786 211.796 43.7786 212.768C43.9729 213.74 43.2929 214.42 42.3215 214.42Z" fill="white"/>
<path d="M42.3215 220.447H20.9514C20.0772 220.447 19.3001 219.766 19.3001 218.794C19.3001 217.822 19.9801 217.142 20.9514 217.142H42.3215C43.1958 217.142 43.9729 217.822 43.9729 218.794C43.9729 219.766 43.2929 220.447 42.3215 220.447Z" fill="white"/>
<path d="M42.3215 226.473H20.9514C20.0772 226.473 19.3001 225.793 19.3001 224.821C19.3001 223.849 19.9801 223.168 20.9514 223.168H42.3215C43.1958 223.168 43.7786 223.849 43.7786 224.821C43.9729 225.793 43.2929 226.473 42.3215 226.473Z" fill="white"/>
<path d="M29.0138 194.98H7.44942C6.57519 194.98 5.99237 195.466 5.99237 196.244C5.99237 196.924 6.67233 197.41 7.44942 197.41H29.0138C29.888 197.41 30.6651 196.924 30.6651 196.244C30.7623 195.661 30.0823 194.98 29.0138 194.98Z" fill="white"/>
<path d="M29.0138 201.007H7.44942C6.57519 201.007 5.99237 201.493 5.99237 202.27C5.99237 202.951 6.67233 203.437 7.44942 203.437H29.0138C29.888 203.437 30.6651 202.951 30.6651 202.27C30.7623 201.493 30.0823 201.007 29.0138 201.007Z" fill="white"/>
<path d="M29.0138 207.033H7.44942C6.57519 207.033 5.99237 207.519 5.99237 208.297C5.99237 208.977 6.67233 209.463 7.44942 209.463H29.0138C29.888 209.463 30.6651 208.977 30.6651 208.297C30.7623 207.519 30.0823 207.033 29.0138 207.033Z" fill="white"/>
<path d="M218.139 526.823H213.574V521.671C213.574 521.477 213.379 521.282 213.185 521.282C212.991 521.282 212.797 521.477 212.797 521.671V526.823H208.231C208.037 526.823 207.843 527.017 207.843 527.211C207.843 527.406 208.037 527.6 208.231 527.6H212.797V532.752C212.797 532.946 212.991 533.141 213.185 533.141C213.379 533.141 213.574 532.946 213.574 532.752V527.6H218.139C218.333 527.6 218.528 527.406 218.528 527.211C218.528 526.92 218.236 526.823 218.139 526.823Z" fill="white"/>
<path d="M220.179 268.367H86.8102C84.0904 268.367 81.9534 266.228 81.9534 263.507V233.958C81.9534 231.236 84.0904 229.098 86.8102 229.098H220.082C222.802 229.098 224.939 231.236 224.939 233.958V263.507C225.036 266.131 222.899 268.367 220.179 268.367Z" stroke="#696872" stroke-miterlimit="10"/>
</g>
<defs>
<clipPath id="clip0_1_62">
<rect width="250" height="569" fill="white"/>
</clipPath>
</defs>
</svg>
