<svg width="367" height="25" viewBox="0 0 367 25" fill="none" xmlns="http://www.w3.org/2000/svg">
<path d="M35 12H155V13H35V12Z" fill="#9181FF"/>
<path d="M8.075 8.025V15.625C8.075 16.4737 7.80267 17.1323 7.258 17.601C6.726 18.057 5.92167 18.285 4.845 18.285C3.781 18.285 2.97667 18.057 2.432 17.601C1.88733 17.1323 1.615 16.4737 1.615 15.625V8.025C1.615 7.17633 1.881 6.524 2.413 6.068C2.95767 5.59933 3.762 5.365 4.826 5.365C5.90267 5.365 6.71333 5.59933 7.258 6.068C7.80267 6.524 8.075 7.17633 8.075 8.025ZM6.745 15.625V8.025C6.745 7.01167 6.11167 6.505 4.845 6.505C3.57833 6.505 2.945 7.01167 2.945 8.025V15.625C2.945 16.6383 3.57833 17.145 4.845 17.145C6.11167 17.145 6.745 16.6383 6.745 15.625ZM15.4995 5.65V16.86H17.5895V18H12.0795V16.86H14.1695V6.961L11.6235 8.424L11.0535 7.455L14.1695 5.65H15.4995Z" fill="#373C42"/>
</svg>
