<svg width="199" height="54" viewBox="0 0 199 54" fill="none" xmlns="http://www.w3.org/2000/svg">
<path d="M0.5 27C0.5 12.3645 12.3645 0.5 27 0.5H172C186.636 0.5 198.5 12.3645 198.5 27C198.5 41.6355 186.636 53.5 172 53.5H27C12.3645 53.5 0.5 41.6355 0.5 27Z" stroke="#A294FF"/>
<path d="M57.9214 29.3047C57.9214 29.0557 57.8823 28.8359 57.8042 28.6455C57.731 28.4502 57.5991 28.2744 57.4087 28.1182C57.2231 27.9619 56.9644 27.813 56.6323 27.6714C56.3052 27.5298 55.8901 27.3857 55.3872 27.2393C54.8599 27.083 54.3838 26.9097 53.959 26.7192C53.5342 26.5239 53.1704 26.3018 52.8677 26.0527C52.5649 25.8037 52.333 25.5181 52.1719 25.1958C52.0107 24.8735 51.9302 24.5049 51.9302 24.0898C51.9302 23.6748 52.0156 23.2915 52.1865 22.9399C52.3574 22.5884 52.6016 22.2832 52.9189 22.0244C53.2412 21.7607 53.6245 21.5557 54.0688 21.4092C54.5132 21.2627 55.0088 21.1895 55.5557 21.1895C56.3564 21.1895 57.0352 21.3433 57.5918 21.6509C58.1533 21.9536 58.5806 22.3516 58.8735 22.8447C59.1665 23.333 59.313 23.8555 59.313 24.4121H57.9067C57.9067 24.0117 57.8213 23.6577 57.6504 23.3501C57.4795 23.0376 57.2207 22.7935 56.874 22.6177C56.5273 22.437 56.0879 22.3467 55.5557 22.3467C55.0527 22.3467 54.6377 22.4224 54.3105 22.5737C53.9834 22.7251 53.7393 22.9302 53.5781 23.189C53.4219 23.4478 53.3438 23.7432 53.3438 24.0752C53.3438 24.2998 53.3901 24.5049 53.4829 24.6904C53.5806 24.8711 53.7295 25.0396 53.9297 25.1958C54.1348 25.3521 54.3936 25.4961 54.7061 25.6279C55.0234 25.7598 55.4019 25.8867 55.8413 26.0088C56.4468 26.1797 56.9692 26.3701 57.4087 26.5801C57.8481 26.79 58.2095 27.0269 58.4927 27.2905C58.7808 27.5493 58.9932 27.8447 59.1299 28.1768C59.2715 28.5039 59.3423 28.875 59.3423 29.29C59.3423 29.7246 59.2544 30.1177 59.0786 30.4692C58.9028 30.8208 58.6514 31.1211 58.3242 31.3701C57.9971 31.6191 57.604 31.812 57.145 31.9487C56.6909 32.0806 56.1831 32.1465 55.6216 32.1465C55.1284 32.1465 54.6426 32.0781 54.1641 31.9414C53.6904 31.8047 53.2583 31.5996 52.8677 31.3262C52.4819 31.0527 52.1719 30.7158 51.9375 30.3154C51.708 29.9102 51.5933 29.4414 51.5933 28.9092H52.9995C52.9995 29.2754 53.0703 29.5903 53.2119 29.854C53.3535 30.1128 53.5464 30.3276 53.7905 30.4985C54.0396 30.6694 54.3203 30.7964 54.6328 30.8794C54.9502 30.9575 55.2798 30.9966 55.6216 30.9966C56.1147 30.9966 56.5322 30.9282 56.874 30.7915C57.2158 30.6548 57.4746 30.4595 57.6504 30.2056C57.8311 29.9517 57.9214 29.6514 57.9214 29.3047ZM64.2568 24.0752V25.1152H59.9722V24.0752H64.2568ZM61.4224 22.1489H62.7773V30.0371C62.7773 30.3057 62.8188 30.5083 62.9019 30.645C62.9849 30.7817 63.0923 30.8721 63.2241 30.916C63.356 30.96 63.4976 30.9819 63.6489 30.9819C63.7612 30.9819 63.8784 30.9722 64.0005 30.9526C64.1274 30.9282 64.2227 30.9087 64.2861 30.894L64.2935 32C64.186 32.0342 64.0444 32.0659 63.8687 32.0952C63.6978 32.1294 63.4902 32.1465 63.2461 32.1465C62.9141 32.1465 62.6089 32.0806 62.3306 31.9487C62.0522 31.8169 61.8301 31.5972 61.6641 31.2896C61.5029 30.9771 61.4224 30.5571 61.4224 30.0298V22.1489ZM70.519 30.645V26.5654C70.519 26.2529 70.4556 25.9819 70.3286 25.7524C70.2065 25.5181 70.021 25.3374 69.772 25.2104C69.5229 25.0835 69.2153 25.02 68.8491 25.02C68.5073 25.02 68.207 25.0786 67.9482 25.1958C67.6943 25.313 67.4941 25.4668 67.3477 25.6572C67.2061 25.8477 67.1353 26.0527 67.1353 26.2725H65.7803C65.7803 25.9893 65.8535 25.7085 66 25.4302C66.1465 25.1519 66.3564 24.9004 66.6299 24.6758C66.9082 24.4463 67.2402 24.2656 67.626 24.1338C68.0166 23.9971 68.4512 23.9287 68.9297 23.9287C69.5059 23.9287 70.0137 24.0264 70.4531 24.2217C70.8975 24.417 71.2441 24.7124 71.4932 25.1079C71.7471 25.4985 71.874 25.9893 71.874 26.5801V30.2715C71.874 30.5352 71.896 30.8159 71.9399 31.1138C71.9888 31.4116 72.0596 31.668 72.1523 31.8828V32H70.7388C70.6704 31.8438 70.6167 31.6362 70.5776 31.3774C70.5386 31.1138 70.519 30.8696 70.519 30.645ZM70.7534 27.1953L70.7681 28.1475H69.3984C69.0127 28.1475 68.6685 28.1792 68.3657 28.2427C68.063 28.3013 67.8091 28.3916 67.604 28.5137C67.3989 28.6357 67.2427 28.7896 67.1353 28.9751C67.0278 29.1558 66.9741 29.3682 66.9741 29.6123C66.9741 29.8613 67.0303 30.0884 67.1426 30.2935C67.2549 30.4985 67.4233 30.6621 67.6479 30.7842C67.8774 30.9014 68.1582 30.96 68.4902 30.96C68.9053 30.96 69.2715 30.8721 69.5889 30.6963C69.9062 30.5205 70.1577 30.3057 70.3433 30.0518C70.5337 29.7979 70.6362 29.5513 70.6509 29.312L71.2295 29.9639C71.1953 30.1689 71.1025 30.396 70.9512 30.645C70.7998 30.894 70.5972 31.1333 70.3433 31.3628C70.0942 31.5874 69.7964 31.7754 69.4497 31.9268C69.1079 32.0732 68.7222 32.1465 68.2925 32.1465C67.7554 32.1465 67.2842 32.0415 66.8789 31.8315C66.4785 31.6216 66.166 31.3408 65.9414 30.9893C65.7217 30.6328 65.6118 30.2349 65.6118 29.7954C65.6118 29.3706 65.6948 28.9971 65.8608 28.6748C66.0269 28.3477 66.2661 28.0767 66.5786 27.8618C66.8911 27.6421 67.2671 27.4761 67.7065 27.3638C68.146 27.2515 68.6367 27.1953 69.1787 27.1953H70.7534ZM75.3604 25.3203V32H74.0054V24.0752H75.3237L75.3604 25.3203ZM77.8359 24.0312L77.8286 25.291C77.7163 25.2666 77.6089 25.252 77.5063 25.2471C77.4087 25.2373 77.2964 25.2324 77.1694 25.2324C76.8569 25.2324 76.5811 25.2812 76.3418 25.3789C76.1025 25.4766 75.8999 25.6133 75.7339 25.7891C75.5679 25.9648 75.436 26.1748 75.3384 26.4189C75.2456 26.6582 75.1846 26.9219 75.1553 27.21L74.7744 27.4297C74.7744 26.9512 74.8208 26.502 74.9136 26.082C75.0112 25.6621 75.1602 25.291 75.3604 24.9688C75.5605 24.6416 75.8145 24.3877 76.1221 24.207C76.4346 24.0215 76.8057 23.9287 77.2354 23.9287C77.333 23.9287 77.4453 23.9409 77.5723 23.9653C77.6992 23.9849 77.7871 24.0068 77.8359 24.0312ZM82.7725 24.0752V25.1152H78.4878V24.0752H82.7725ZM79.938 22.1489H81.293V30.0371C81.293 30.3057 81.3345 30.5083 81.4175 30.645C81.5005 30.7817 81.6079 30.8721 81.7397 30.916C81.8716 30.96 82.0132 30.9819 82.1646 30.9819C82.2769 30.9819 82.394 30.9722 82.5161 30.9526C82.6431 30.9282 82.7383 30.9087 82.8018 30.894L82.8091 32C82.7017 32.0342 82.5601 32.0659 82.3843 32.0952C82.2134 32.1294 82.0059 32.1465 81.7617 32.1465C81.4297 32.1465 81.1245 32.0806 80.8462 31.9487C80.5679 31.8169 80.3457 31.5972 80.1797 31.2896C80.0186 30.9771 79.938 30.5571 79.938 30.0298V22.1489ZM92.7554 30.645V26.5654C92.7554 26.2529 92.6919 25.9819 92.5649 25.7524C92.4429 25.5181 92.2573 25.3374 92.0083 25.2104C91.7593 25.0835 91.4517 25.02 91.0854 25.02C90.7437 25.02 90.4434 25.0786 90.1846 25.1958C89.9307 25.313 89.7305 25.4668 89.584 25.6572C89.4424 25.8477 89.3716 26.0527 89.3716 26.2725H88.0166C88.0166 25.9893 88.0898 25.7085 88.2363 25.4302C88.3828 25.1519 88.5928 24.9004 88.8662 24.6758C89.1445 24.4463 89.4766 24.2656 89.8623 24.1338C90.2529 23.9971 90.6875 23.9287 91.166 23.9287C91.7422 23.9287 92.25 24.0264 92.6895 24.2217C93.1338 24.417 93.4805 24.7124 93.7295 25.1079C93.9834 25.4985 94.1104 25.9893 94.1104 26.5801V30.2715C94.1104 30.5352 94.1323 30.8159 94.1763 31.1138C94.2251 31.4116 94.2959 31.668 94.3887 31.8828V32H92.9751C92.9067 31.8438 92.853 31.6362 92.814 31.3774C92.7749 31.1138 92.7554 30.8696 92.7554 30.645ZM92.9897 27.1953L93.0044 28.1475H91.6348C91.249 28.1475 90.9048 28.1792 90.6021 28.2427C90.2993 28.3013 90.0454 28.3916 89.8403 28.5137C89.6353 28.6357 89.479 28.7896 89.3716 28.9751C89.2642 29.1558 89.2104 29.3682 89.2104 29.6123C89.2104 29.8613 89.2666 30.0884 89.3789 30.2935C89.4912 30.4985 89.6597 30.6621 89.8843 30.7842C90.1138 30.9014 90.3945 30.96 90.7266 30.96C91.1416 30.96 91.5078 30.8721 91.8252 30.6963C92.1426 30.5205 92.394 30.3057 92.5796 30.0518C92.77 29.7979 92.8726 29.5513 92.8872 29.312L93.4658 29.9639C93.4316 30.1689 93.3389 30.396 93.1875 30.645C93.0361 30.894 92.8335 31.1333 92.5796 31.3628C92.3306 31.5874 92.0327 31.7754 91.686 31.9268C91.3442 32.0732 90.9585 32.1465 90.5288 32.1465C89.9917 32.1465 89.5205 32.0415 89.1152 31.8315C88.7148 31.6216 88.4023 31.3408 88.1777 30.9893C87.958 30.6328 87.8481 30.2349 87.8481 29.7954C87.8481 29.3706 87.9312 28.9971 88.0972 28.6748C88.2632 28.3477 88.5024 28.0767 88.8149 27.8618C89.1274 27.6421 89.5034 27.4761 89.9429 27.3638C90.3823 27.2515 90.873 27.1953 91.415 27.1953H92.9897ZM104.101 27.8179H101.251V26.668H104.101C104.652 26.668 105.099 26.5801 105.441 26.4043C105.783 26.2285 106.032 25.9844 106.188 25.6719C106.349 25.3594 106.43 25.0029 106.43 24.6025C106.43 24.2363 106.349 23.8921 106.188 23.5698C106.032 23.2476 105.783 22.9888 105.441 22.7935C105.099 22.5933 104.652 22.4932 104.101 22.4932H101.581V32H100.167V21.3359H104.101C104.906 21.3359 105.587 21.4751 106.144 21.7534C106.701 22.0317 107.123 22.4175 107.411 22.9106C107.699 23.3989 107.843 23.958 107.843 24.5879C107.843 25.2715 107.699 25.855 107.411 26.3384C107.123 26.8218 106.701 27.1904 106.144 27.4443C105.587 27.6934 104.906 27.8179 104.101 27.8179ZM110.78 25.3203V32H109.425V24.0752H110.744L110.78 25.3203ZM113.256 24.0312L113.249 25.291C113.136 25.2666 113.029 25.252 112.926 25.2471C112.829 25.2373 112.716 25.2324 112.589 25.2324C112.277 25.2324 112.001 25.2812 111.762 25.3789C111.522 25.4766 111.32 25.6133 111.154 25.7891C110.988 25.9648 110.856 26.1748 110.758 26.4189C110.666 26.6582 110.604 26.9219 110.575 27.21L110.194 27.4297C110.194 26.9512 110.241 26.502 110.333 26.082C110.431 25.6621 110.58 25.291 110.78 24.9688C110.98 24.6416 111.234 24.3877 111.542 24.207C111.854 24.0215 112.226 23.9287 112.655 23.9287C112.753 23.9287 112.865 23.9409 112.992 23.9653C113.119 23.9849 113.207 24.0068 113.256 24.0312ZM114.003 28.1255V27.957C114.003 27.3857 114.086 26.856 114.252 26.3677C114.418 25.8745 114.657 25.4473 114.97 25.0859C115.282 24.7197 115.661 24.4365 116.105 24.2363C116.549 24.0312 117.047 23.9287 117.599 23.9287C118.156 23.9287 118.656 24.0312 119.101 24.2363C119.55 24.4365 119.931 24.7197 120.243 25.0859C120.561 25.4473 120.802 25.8745 120.968 26.3677C121.134 26.856 121.217 27.3857 121.217 27.957V28.1255C121.217 28.6968 121.134 29.2266 120.968 29.7148C120.802 30.2031 120.561 30.6304 120.243 30.9966C119.931 31.3579 119.552 31.6411 119.108 31.8462C118.668 32.0464 118.17 32.1465 117.614 32.1465C117.057 32.1465 116.557 32.0464 116.112 31.8462C115.668 31.6411 115.287 31.3579 114.97 30.9966C114.657 30.6304 114.418 30.2031 114.252 29.7148C114.086 29.2266 114.003 28.6968 114.003 28.1255ZM115.358 27.957V28.1255C115.358 28.521 115.404 28.8945 115.497 29.2461C115.59 29.5928 115.729 29.9004 115.915 30.1689C116.105 30.4375 116.342 30.6499 116.625 30.8062C116.908 30.9575 117.238 31.0332 117.614 31.0332C117.985 31.0332 118.31 30.9575 118.588 30.8062C118.871 30.6499 119.105 30.4375 119.291 30.1689C119.477 29.9004 119.616 29.5928 119.708 29.2461C119.806 28.8945 119.855 28.521 119.855 28.1255V27.957C119.855 27.5664 119.806 27.1978 119.708 26.8511C119.616 26.4995 119.474 26.1895 119.284 25.9209C119.098 25.6475 118.864 25.4326 118.581 25.2764C118.302 25.1201 117.975 25.042 117.599 25.042C117.228 25.042 116.901 25.1201 116.618 25.2764C116.339 25.4326 116.105 25.6475 115.915 25.9209C115.729 26.1895 115.59 26.4995 115.497 26.8511C115.404 27.1978 115.358 27.5664 115.358 27.957ZM122.953 24.0752H124.315V32.9448C124.315 33.4282 124.237 33.8384 124.081 34.1753C123.93 34.5122 123.7 34.7661 123.393 34.937C123.09 35.1128 122.707 35.2007 122.243 35.2007C122.121 35.2007 121.979 35.1885 121.818 35.1641C121.652 35.1396 121.513 35.1104 121.4 35.0762L121.408 33.9849C121.5 34.0044 121.605 34.019 121.723 34.0288C121.84 34.0435 121.942 34.0508 122.03 34.0508C122.23 34.0508 122.399 34.0142 122.536 33.9409C122.672 33.8677 122.775 33.7505 122.843 33.5894C122.917 33.4282 122.953 33.2134 122.953 32.9448V24.0752ZM122.814 21.9731C122.814 21.7534 122.882 21.5679 123.019 21.4165C123.156 21.2651 123.354 21.1895 123.612 21.1895C123.876 21.1895 124.076 21.2651 124.213 21.4165C124.35 21.5679 124.418 21.7534 124.418 21.9731C124.418 22.1831 124.35 22.3638 124.213 22.5151C124.076 22.6616 123.876 22.7349 123.612 22.7349C123.354 22.7349 123.156 22.6616 123.019 22.5151C122.882 22.3638 122.814 22.1831 122.814 21.9731ZM129.794 32.1465C129.242 32.1465 128.742 32.0537 128.292 31.8682C127.848 31.6777 127.465 31.4116 127.143 31.0698C126.825 30.728 126.581 30.3228 126.41 29.854C126.239 29.3853 126.154 28.8726 126.154 28.3159V28.0083C126.154 27.3638 126.249 26.79 126.439 26.2871C126.63 25.7793 126.889 25.3496 127.216 24.998C127.543 24.6465 127.914 24.3804 128.329 24.1997C128.744 24.019 129.174 23.9287 129.618 23.9287C130.185 23.9287 130.673 24.0264 131.083 24.2217C131.498 24.417 131.837 24.6904 132.101 25.042C132.365 25.3887 132.56 25.7988 132.687 26.2725C132.814 26.7412 132.877 27.2539 132.877 27.8105V28.4185H126.959V27.3125H131.522V27.21C131.503 26.8584 131.43 26.5166 131.303 26.1846C131.181 25.8525 130.985 25.5791 130.717 25.3643C130.448 25.1494 130.082 25.042 129.618 25.042C129.311 25.042 129.027 25.1079 128.769 25.2397C128.51 25.3667 128.288 25.5571 128.102 25.811C127.917 26.0649 127.772 26.375 127.67 26.7412C127.567 27.1074 127.516 27.5298 127.516 28.0083V28.3159C127.516 28.6919 127.567 29.0459 127.67 29.3779C127.777 29.7051 127.931 29.9932 128.131 30.2422C128.336 30.4912 128.583 30.6865 128.871 30.8281C129.164 30.9697 129.496 31.0405 129.867 31.0405C130.346 31.0405 130.751 30.9429 131.083 30.7476C131.415 30.5522 131.706 30.291 131.955 29.9639L132.775 30.6157C132.604 30.8745 132.387 31.1211 132.123 31.3555C131.859 31.5898 131.535 31.7803 131.149 31.9268C130.768 32.0732 130.316 32.1465 129.794 32.1465ZM137.631 31.0332C137.953 31.0332 138.251 30.9673 138.524 30.8354C138.798 30.7036 139.022 30.5229 139.198 30.2935C139.374 30.0591 139.474 29.793 139.499 29.4951H140.788C140.763 29.9639 140.604 30.4009 140.312 30.8062C140.023 31.2065 139.645 31.5312 139.176 31.7803C138.708 32.0244 138.192 32.1465 137.631 32.1465C137.035 32.1465 136.515 32.0415 136.071 31.8315C135.631 31.6216 135.265 31.3335 134.972 30.9673C134.684 30.6011 134.467 30.1812 134.32 29.7075C134.179 29.229 134.108 28.7236 134.108 28.1914V27.8838C134.108 27.3516 134.179 26.8486 134.32 26.375C134.467 25.8965 134.684 25.4741 134.972 25.1079C135.265 24.7417 135.631 24.4536 136.071 24.2437C136.515 24.0337 137.035 23.9287 137.631 23.9287C138.251 23.9287 138.793 24.0557 139.257 24.3096C139.721 24.5586 140.084 24.9004 140.348 25.335C140.617 25.7646 140.763 26.2529 140.788 26.7998H139.499C139.474 26.4727 139.381 26.1772 139.22 25.9136C139.064 25.6499 138.849 25.4399 138.576 25.2837C138.307 25.1226 137.992 25.042 137.631 25.042C137.216 25.042 136.867 25.125 136.583 25.291C136.305 25.4521 136.083 25.6719 135.917 25.9502C135.756 26.2236 135.639 26.5288 135.565 26.8657C135.497 27.1978 135.463 27.5371 135.463 27.8838V28.1914C135.463 28.5381 135.497 28.8799 135.565 29.2168C135.634 29.5537 135.749 29.8589 135.91 30.1323C136.076 30.4058 136.298 30.6255 136.576 30.7915C136.859 30.9526 137.211 31.0332 137.631 31.0332ZM145.629 24.0752V25.1152H141.344V24.0752H145.629ZM142.794 22.1489H144.149V30.0371C144.149 30.3057 144.191 30.5083 144.274 30.645C144.357 30.7817 144.464 30.8721 144.596 30.916C144.728 30.96 144.87 30.9819 145.021 30.9819C145.133 30.9819 145.25 30.9722 145.373 30.9526C145.5 30.9282 145.595 30.9087 145.658 30.894L145.666 32C145.558 32.0342 145.417 32.0659 145.241 32.0952C145.07 32.1294 144.862 32.1465 144.618 32.1465C144.286 32.1465 143.981 32.0806 143.703 31.9487C143.424 31.8169 143.202 31.5972 143.036 31.2896C142.875 30.9771 142.794 30.5571 142.794 30.0298V22.1489Z" fill="#373C42"/>
</svg>
