<svg width="435" height="525" viewBox="0 0 435 525" fill="none" xmlns="http://www.w3.org/2000/svg">
<g clip-path="url(#clip0_1_130)">
<path d="M418.76 32.2816H397.538C396.67 32.2816 395.899 31.6058 395.899 30.6404C395.899 29.6751 396.574 28.9993 397.538 28.9993H418.76C419.629 28.9993 420.207 29.6751 420.207 30.6404C420.4 31.6058 419.725 32.2816 418.76 32.2816Z" fill="white"/>
<path d="M418.76 38.2668H397.538C396.67 38.2668 395.899 37.591 395.899 36.6257C395.899 35.6603 396.574 34.9846 397.538 34.9846H418.76C419.629 34.9846 420.4 35.6603 420.4 36.6257C420.4 37.591 419.725 38.2668 418.76 38.2668Z" fill="white"/>
<path d="M418.76 44.252H397.538C396.67 44.252 395.899 43.5762 395.899 42.6109C395.899 41.6455 396.574 40.9698 397.538 40.9698H418.76C419.629 40.9698 420.207 41.6455 420.207 42.6109C420.4 43.5762 419.725 44.252 418.76 44.252Z" fill="white"/>
<path d="M173.936 297.465C177.346 297.465 180.11 294.699 180.11 291.287C180.11 287.875 177.346 285.109 173.936 285.109C170.526 285.109 167.762 287.875 167.762 291.287C167.762 294.699 170.526 297.465 173.936 297.465Z" fill="white"/>
<path d="M11.2023 522.49C8.30838 522.49 5.89679 520.077 5.89679 517.181V9.4991C5.89679 6.60303 8.30838 4.18964 11.2023 4.18964H424.645C427.539 4.18964 429.95 6.60303 429.95 9.4991V517.084C429.95 519.98 427.539 522.394 424.645 522.394H11.2023V522.49Z" fill="white"/>
<path d="M424.645 4.67233C427.346 4.67233 429.468 6.79611 429.468 9.49911V517.084C429.468 519.787 427.346 521.911 424.645 521.911H11.2023C8.50132 521.911 6.37912 519.787 6.37912 517.084V9.49911C6.37912 6.79611 8.50132 4.67233 11.2023 4.67233H424.645ZM424.645 3.70697H11.2023C8.019 3.70697 5.41449 6.31343 5.41449 9.49911V517.084C5.41449 520.27 8.019 522.876 11.2023 522.876H424.645C427.828 522.876 430.432 520.27 430.432 517.084V9.49911C430.432 6.31343 427.828 3.70697 424.645 3.70697Z" fill="#696872"/>
<path d="M205.094 191.566C213.245 191.566 219.853 184.953 219.853 176.796C219.853 168.638 213.245 162.026 205.094 162.026C196.943 162.026 190.335 168.638 190.335 176.796C190.335 184.953 196.943 191.566 205.094 191.566Z" fill="white"/>
<path d="M381.911 64.7176H106.991C104.868 64.7176 103.036 66.5517 103.036 68.6755V168.204H169.692C173.55 168.204 176.444 171.197 176.444 174.961V259.044H381.911C383.069 259.044 384.227 258.561 384.902 257.693C384.902 257.693 384.902 257.693 385.095 257.499C385.288 257.21 385.577 256.824 385.577 256.534C385.77 256.051 385.866 255.569 385.866 255.086V68.6755C385.673 66.5517 384.034 64.7176 381.911 64.7176Z" fill="#E1E7F3"/>
<path d="M385.191 80.4529H103.614V81.6113H385.191V80.4529Z" fill="#CCCCCC"/>
<path d="M113.068 76.4949C114.879 76.4949 116.347 75.0254 116.347 73.2127C116.347 71.4 114.879 69.9305 113.068 69.9305C111.256 69.9305 109.788 71.4 109.788 73.2127C109.788 75.0254 111.256 76.4949 113.068 76.4949Z" fill="#CCCCCC"/>
<path d="M122.907 76.4949C124.718 76.4949 126.187 75.0254 126.187 73.2127C126.187 71.4 124.718 69.9305 122.907 69.9305C121.096 69.9305 119.627 71.4 119.627 73.2127C119.627 75.0254 121.096 76.4949 122.907 76.4949Z" fill="#CCCCCC"/>
<path d="M132.65 76.4949C134.461 76.4949 135.93 75.0254 135.93 73.2127C135.93 71.4 134.461 69.9305 132.65 69.9305C130.838 69.9305 129.37 71.4 129.37 73.2127C129.37 75.0254 130.838 76.4949 132.65 76.4949Z" fill="#CCCCCC"/>
<path d="M314.966 105.166H173.55C170.271 105.166 167.57 107.772 167.57 111.151C167.57 114.53 170.174 117.136 173.55 117.136H314.869C318.149 117.136 320.85 114.53 320.85 111.151C320.85 107.772 318.245 105.166 314.966 105.166ZM314.966 116.171H173.55C170.753 116.171 168.534 114.047 168.534 111.151C168.534 108.255 170.656 106.131 173.55 106.131H314.869C317.667 106.131 319.885 108.255 319.885 111.151C320.078 113.854 317.763 116.171 314.966 116.171Z" fill="#CCCCCC"/>
<path d="M358.181 152.082H216.862C213.583 152.082 210.882 154.689 210.882 158.068C210.882 161.446 213.486 164.053 216.862 164.053H358.181C361.461 164.053 364.162 161.446 364.162 158.068C364.162 154.785 361.558 152.082 358.181 152.082Z" fill="white"/>
<path d="M358.181 173.899H216.862C213.583 173.899 210.882 176.506 210.882 179.885C210.882 183.263 213.486 185.87 216.862 185.87H358.181C361.461 185.87 364.162 183.263 364.162 179.885C364.162 176.506 361.558 173.899 358.181 173.899Z" fill="white"/>
<path d="M358.181 195.62H216.862C213.583 195.62 210.882 198.226 210.882 201.605C210.882 204.984 213.486 207.59 216.862 207.59H358.181C361.461 207.59 364.162 204.984 364.162 201.605C364.162 198.226 361.558 195.62 358.181 195.62Z" fill="white"/>
<path d="M194.097 142.332H129.756C126.958 142.332 124.643 144.649 124.643 147.449V167.818H125.512V147.449C125.512 145.132 127.537 143.105 129.852 143.105H194.193C196.509 143.105 198.534 145.132 198.534 147.449V211.935C198.534 214.251 196.509 216.279 194.193 216.279H176.251V217.147H194.193C196.991 217.147 199.306 214.831 199.306 212.031V147.642C199.306 144.649 196.991 142.332 194.097 142.332Z" fill="#CCCCCC"/>
<path d="M145.094 275.648H69.8521C62.2314 275.648 62.0385 263.871 69.8521 263.871H145.094C152.714 263.871 152.907 275.648 145.094 275.648Z" fill="#CCCCCC"/>
<path d="M145.094 297.369H69.8521C62.2314 297.369 62.0385 285.591 69.8521 285.591H145.094C152.714 285.784 152.907 297.369 145.094 297.369Z" fill="#CCCCCC"/>
<path d="M145.094 319.282H69.8521C62.2314 319.282 62.0385 307.505 69.8521 307.505H145.094C152.714 307.505 152.907 319.089 145.094 319.282Z" fill="#CCCCCC"/>
<path d="M143.743 249.777H71.299C67.1511 249.777 63.8713 246.494 63.8713 242.343V201.702C63.8713 197.551 67.1511 194.268 71.299 194.268H143.743C147.891 194.268 151.171 197.551 151.171 201.702V242.343C151.267 246.494 147.891 249.777 143.743 249.777Z" fill="#ADA3F1"/>
<path d="M249.467 331.929C249.467 338.396 252.072 344.671 256.605 349.305C256.798 349.498 256.895 349.595 257.281 349.788C258.438 350.946 259.789 351.911 261.139 352.78C261.428 352.973 261.621 353.07 262.007 353.263C263.358 354.132 264.805 354.711 266.445 355.29C266.734 355.483 266.927 355.483 267.313 355.483C272.136 356.835 277.441 356.835 282.265 355.001C282.458 355.001 282.458 355.001 282.554 354.807C295.287 350.174 301.75 336.08 297.12 323.337C292.49 310.594 278.406 304.126 265.673 308.76C255.93 312.332 249.467 321.503 249.467 331.929Z" fill="white"/>
<path d="M275.319 348.146C281.925 348.146 287.281 342.787 287.281 336.176C287.281 329.565 281.925 324.206 275.319 324.206C268.713 324.206 263.358 329.565 263.358 336.176C263.358 342.787 268.713 348.146 275.319 348.146Z" fill="#ADA3F1"/>
<path d="M274.644 341.196V340.713C275.512 340.713 276.091 340.713 276.766 340.23C277.056 340.037 277.248 339.555 277.248 339.265C277.248 339.072 277.248 338.782 276.959 338.589C276.477 338.3 275.994 338.3 275.609 338.589L275.319 338.782L275.994 333.666H276.477L275.801 338.107C276.284 337.914 276.766 337.914 277.248 338.3C277.538 338.589 277.731 338.975 277.731 339.265C277.731 339.748 277.441 340.23 277.056 340.617C276.38 341.196 275.319 341.196 274.644 341.196Z" fill="#2F2E41"/>
<path d="M281.011 334.052H278.695V334.535H281.011V334.052Z" fill="#2F2E41"/>
<path d="M273.39 334.052H271.075V334.535H273.39V334.052Z" fill="#2F2E41"/>
<path d="M281.3 328.453C281.589 329.129 281.589 329.901 281.011 330.48C280.335 331.156 279.371 331.349 278.406 331.156C277.441 330.963 276.284 330.48 275.223 330.867C274.355 331.156 273.776 331.832 272.908 332.218C272.039 332.411 271.075 332.218 270.882 331.349C270.689 331.06 271.364 330.673 271.557 331.156C271.75 331.639 272.522 331.639 273.004 331.446C273.679 331.253 274.355 330.577 275.03 330.287C275.898 329.998 276.863 329.998 277.634 330.287C278.503 330.48 279.274 330.77 280.142 330.48C280.818 330.191 281.107 329.515 280.818 328.839C280.528 328.453 281.011 328.067 281.3 328.453Z" fill="#2F2E41"/>
<path d="M284.58 334.921C284.58 336.948 285.544 338.589 286.895 338.879C287.088 338.879 287.184 338.879 287.184 338.879C288.631 338.879 289.789 337.045 289.789 334.921C289.789 333.763 289.499 332.604 288.824 331.735C288.631 331.446 288.342 331.253 287.956 331.06C287.57 330.867 287.474 330.867 287.088 330.867C286.702 330.867 286.22 331.06 285.93 331.156C285.255 331.928 284.58 333.183 284.58 334.921Z" fill="#3F3D56"/>
<path d="M260.753 334.921C260.753 336.562 261.429 338.107 262.586 338.782C262.875 338.976 263.261 338.976 263.551 338.976H263.744C265.094 338.782 266.252 337.141 266.252 335.018C266.252 333.376 265.576 331.832 264.612 331.349C264.322 331.156 263.937 331.06 263.647 331.06C263.358 331.06 262.972 331.06 262.779 331.253C262.49 331.446 262.297 331.542 261.911 331.928C261.139 332.604 260.753 333.763 260.753 334.921Z" fill="#3F3D56"/>
<path d="M262.779 338.203C262.972 338.203 263.068 338.01 263.068 337.914C263.068 337.914 263.068 337.914 263.068 337.721C260.753 330.963 264.419 323.433 271.171 321.116C277.924 318.8 285.448 322.468 287.763 329.226C288.438 331.349 288.631 333.859 288.052 335.983C288.052 336.176 288.052 336.273 288.342 336.273C288.535 336.273 288.631 336.273 288.631 335.983C290.078 328.55 285.448 321.213 278.02 319.765C270.593 318.317 263.261 322.951 261.814 330.384C261.332 332.701 261.525 335.211 262.297 337.528C262.393 338.203 262.586 338.203 262.779 338.203Z" fill="#3F3D56"/>
<path d="M268.76 343.802C268.76 345.637 268.084 347.664 266.734 348.919C265.383 350.27 263.551 351.236 261.718 350.946C259.885 350.657 258.535 349.112 258.728 347.278C258.92 345.83 260.175 344.671 261.718 344.768C261.911 344.768 262.007 344.768 262.2 344.768C263.84 345.25 264.515 347.567 263.165 348.726C262.875 349.015 262.297 348.533 262.683 348.243C263.358 347.567 263.358 346.602 262.875 345.926C262.683 345.733 262.586 345.637 262.393 345.637C261.236 345.347 260.078 345.926 259.789 346.988C259.789 347.181 259.596 347.278 259.596 347.471C259.403 348.919 260.753 350.077 262.104 350.463C263.744 350.753 265.287 349.981 266.252 348.822C267.409 347.471 268.084 345.83 268.084 343.996C268.084 343.802 268.277 343.706 268.374 343.706C268.567 343.513 268.76 343.706 268.76 343.802Z" fill="#2F2E41"/>
<path d="M267.216 355.483C272.039 356.835 277.345 356.835 282.168 355.001C282.361 355.001 282.361 355.001 282.458 354.808C281.3 353.939 279.95 353.359 278.599 352.78C278.792 352.491 278.792 352.104 278.599 351.815C278.31 350.946 277.441 350.367 276.573 350.367H273.583C272.618 350.367 271.75 351.043 271.557 351.815C271.364 352.104 271.364 352.491 271.557 352.78C270.4 353.07 269.242 353.746 268.277 354.421C268.085 354.614 267.988 354.711 267.602 354.904C267.409 355.097 267.216 355.29 267.216 355.483Z" fill="#2F2E41"/>
<path d="M274.065 356.931C271.75 356.931 269.435 356.642 267.12 355.966C266.83 355.966 266.637 355.773 266.252 355.676C264.612 355.194 263.068 354.518 261.814 353.649C261.525 353.456 261.332 353.359 260.946 353.166C259.499 352.298 258.149 351.332 256.991 350.174C256.798 349.981 256.702 349.884 256.316 349.691C246.573 339.941 246.38 324.013 256.316 314.069C266.252 304.126 281.975 304.126 291.911 314.069C301.847 324.013 301.847 339.748 291.911 349.691C289.306 352.298 286.123 354.325 282.65 355.483C282.458 355.483 282.458 355.483 282.361 355.676C279.66 356.642 276.863 356.931 274.065 356.931ZM274.065 307.988C260.946 307.988 250.239 318.607 250.239 331.832C250.239 338.107 252.747 344.285 257.184 348.726C257.377 348.919 257.473 349.015 257.666 349.208C258.824 350.367 260.174 351.236 261.525 352.008C261.814 352.201 262.007 352.298 262.393 352.491C263.744 353.359 265.191 353.842 266.734 354.325C267.023 354.518 267.216 354.518 267.602 354.518C272.425 355.869 277.345 355.676 281.975 354.228L282.265 354.035C294.708 349.595 300.979 335.79 296.541 323.53C292.876 314.166 284.001 307.988 274.065 307.988Z" fill="#E1E7F3"/>
<path d="M344.773 332.218H307.442C305.802 332.218 304.451 330.867 304.451 329.226C304.451 327.584 305.802 326.233 307.442 326.233H344.773C346.413 326.233 347.763 327.584 347.763 329.226C347.763 330.867 346.413 332.218 344.773 332.218Z" fill="#ADA3F1"/>
<path d="M357.024 342.161H307.442C305.802 342.161 304.451 340.81 304.451 339.169C304.451 337.528 305.802 336.176 307.442 336.176H357.024C358.664 336.176 360.014 337.528 360.014 339.169C360.014 340.81 358.664 342.161 357.024 342.161Z" fill="#ADA3F1"/>
<path d="M344.773 380.486H251.782C250.142 380.486 248.792 379.134 248.792 377.493C248.792 375.852 250.142 374.501 251.782 374.501H344.773C346.413 374.501 347.763 375.852 347.763 377.493C347.763 379.134 346.413 380.486 344.773 380.486Z" fill="#E1E7F3"/>
<path d="M356.927 390.429H251.686C250.046 390.429 248.695 389.078 248.695 387.437C248.695 385.795 250.046 384.444 251.686 384.444H356.927C358.567 384.444 359.918 385.795 359.918 387.437C359.918 389.078 358.567 390.429 356.927 390.429Z" fill="#E1E7F3"/>
<path d="M344.773 413.308H251.782C250.142 413.308 248.792 411.957 248.792 410.316C248.792 408.674 250.142 407.323 251.782 407.323H344.773C346.413 407.323 347.763 408.674 347.763 410.316C347.763 411.957 346.413 413.308 344.773 413.308Z" fill="#E1E7F3"/>
<path d="M356.927 423.251H251.686C250.046 423.251 248.695 421.9 248.695 420.259C248.695 418.618 250.046 417.266 251.686 417.266H356.927C358.567 417.266 359.918 418.618 359.918 420.259C359.918 421.9 358.567 423.251 356.927 423.251Z" fill="#E1E7F3"/>
<path d="M344.773 446.323H251.782C250.142 446.323 248.792 444.972 248.792 443.331C248.792 441.69 250.142 440.338 251.782 440.338H344.773C346.413 440.338 347.763 441.69 347.763 443.331C347.763 444.972 346.413 446.323 344.773 446.323Z" fill="#E1E7F3"/>
<path d="M356.927 456.266H251.686C250.046 456.266 248.695 454.915 248.695 453.274C248.695 451.633 250.046 450.281 251.686 450.281H356.927C358.567 450.281 359.918 451.633 359.918 453.274C359.918 454.915 358.567 456.266 356.927 456.266C357.024 456.266 357.024 456.266 356.927 456.266Z" fill="#E1E7F3"/>
<path d="M429.468 35.5637H6.28265V9.7887C6.28265 6.98916 8.50132 4.6723 11.2023 4.6723H424.548C427.249 4.6723 429.468 6.98916 429.468 9.7887V35.5637Z" fill="#E1E7F3"/>
<path d="M33.3889 24.9448C36.0527 24.9448 38.2121 22.7838 38.2121 20.118C38.2121 17.4523 36.0527 15.2913 33.3889 15.2913C30.7251 15.2913 28.5657 17.4523 28.5657 20.118C28.5657 22.7838 30.7251 24.9448 33.3889 24.9448Z" fill="white"/>
<path d="M51.717 24.9448C54.3807 24.9448 56.5401 22.7838 56.5401 20.118C56.5401 17.4523 54.3807 15.2913 51.717 15.2913C49.0532 15.2913 46.8938 17.4523 46.8938 20.118C46.8938 22.7838 49.0532 24.9448 51.717 24.9448Z" fill="white"/>
<path d="M70.3344 24.9448C72.9982 24.9448 75.1576 22.7838 75.1576 20.118C75.1576 17.4523 72.9982 15.2913 70.3344 15.2913C67.6706 15.2913 65.5112 17.4523 65.5112 20.118C65.5112 22.7838 67.6706 24.9448 70.3344 24.9448Z" fill="white"/>
<path d="M405.545 12.9744H384.13C383.262 12.9744 382.683 13.4571 382.683 14.2294C382.683 14.9051 383.358 15.3878 384.13 15.3878H405.545C406.413 15.3878 407.185 14.9051 407.185 14.2294C407.281 13.6502 406.606 12.9744 405.545 12.9744Z" fill="white"/>
<path d="M405.545 18.9597H384.13C383.262 18.9597 382.683 19.4423 382.683 20.2146C382.683 20.8904 383.358 21.373 384.13 21.373H405.545C406.413 21.373 407.185 20.8904 407.185 20.2146C407.281 19.4423 406.606 18.9597 405.545 18.9597Z" fill="white"/>
<path d="M405.545 24.9448H384.13C383.262 24.9448 382.683 25.4275 382.683 26.1998C382.683 26.8755 383.358 27.3582 384.13 27.3582H405.545C406.413 27.3582 407.185 26.8755 407.185 26.1998C407.281 25.4275 406.606 24.9448 405.545 24.9448Z" fill="white"/>
<path d="M171.428 343.995H37.8262C35.1252 343.995 33.0031 341.872 33.0031 339.169V173.031C33.0031 170.328 35.1252 168.204 37.8262 168.204H171.428C174.129 168.204 176.251 170.328 176.251 173.031V339.265C176.251 341.872 174.129 343.995 171.428 343.995Z" stroke="#696872" stroke-miterlimit="10"/>
<path d="M173.068 181.622C166.605 181.622 161.299 176.313 161.299 169.845C161.299 163.377 166.605 158.068 173.068 158.068C179.531 158.068 184.837 163.377 184.837 169.845C184.837 176.313 179.724 181.622 173.068 181.622Z" fill="#ADA3F1"/>
<path d="M178.566 169.362H173.55V163.763C173.55 163.474 173.357 163.281 173.068 163.281C172.779 163.281 172.586 163.474 172.586 163.763V169.362H167.57C167.28 169.362 167.087 169.555 167.087 169.845C167.087 170.135 167.28 170.328 167.57 170.328H172.586V175.927C172.586 176.216 172.779 176.409 173.068 176.409C173.357 176.409 173.55 176.216 173.55 175.927V170.328H178.566C178.856 170.328 179.049 170.135 179.049 169.845C179.049 169.555 178.856 169.362 178.566 169.362Z" fill="white"/>
<path d="M371.783 477.504H236.927C234.226 477.504 232.104 475.381 232.104 472.678V290.418C232.104 287.715 234.226 285.591 236.927 285.591H371.783C374.484 285.591 376.606 287.715 376.606 290.418V472.678C376.606 475.381 374.484 477.504 371.783 477.504Z" stroke="#696872" stroke-miterlimit="10"/>
<path d="M375.738 500.576C363.487 500.576 353.551 490.633 353.551 478.373C353.551 466.113 363.487 456.17 375.738 456.17C387.988 456.17 397.924 466.113 397.924 478.373C397.828 490.633 387.988 500.576 375.738 500.576Z" fill="#ADA3F1"/>
<path d="M385.866 477.504H376.606V466.885C376.606 466.403 376.316 466.017 375.738 466.017C375.159 466.017 374.87 466.306 374.87 466.885V477.504H365.609C365.127 477.504 364.741 477.794 364.741 478.373C364.741 478.952 365.03 479.242 365.609 479.242H374.87V489.861C374.87 490.344 375.159 490.73 375.738 490.73C376.316 490.73 376.606 490.44 376.606 489.861V479.242H385.866C386.349 479.242 386.734 478.952 386.734 478.373C386.734 477.794 386.252 477.504 385.866 477.504Z" fill="white"/>
</g>
<defs>
<clipPath id="clip0_1_130">
<rect width="435" height="525" fill="white"/>
</clipPath>
</defs>
</svg>
