<svg width="650" height="637" viewBox="0 0 650 637" fill="none" xmlns="http://www.w3.org/2000/svg">
<g clip-path="url(#clip0_1_205)">
<path d="M27.012 24.4622C29.7244 24.4622 31.9233 22.2629 31.9233 19.5501C31.9233 16.8372 29.7244 14.638 27.012 14.638C24.2996 14.638 22.1007 16.8372 22.1007 19.5501C22.1007 22.2629 24.2996 24.4622 27.012 24.4622Z" fill="white"/>
<path d="M45.7731 24.4622C48.4855 24.4622 50.6843 22.2629 50.6843 19.5501C50.6843 16.8372 48.4855 14.638 45.7731 14.638C43.0606 14.638 40.8618 16.8372 40.8618 19.5501C40.8618 22.2629 43.0606 24.4622 45.7731 24.4622Z" fill="white"/>
<path d="M64.6323 24.4622C67.3448 24.4622 69.5436 22.2629 69.5436 19.5501C69.5436 16.8372 67.3448 14.638 64.6323 14.638C61.9199 14.638 59.7211 16.8372 59.7211 19.5501C59.7211 22.2629 61.9199 24.4622 64.6323 24.4622Z" fill="white"/>
<path d="M7.85804 631.202C4.91128 631.202 2.45564 628.746 2.45564 625.798V7.95754C2.45564 5.0103 4.91128 2.55426 7.85804 2.55426H637.876C640.823 2.55426 643.279 5.0103 643.279 7.95754V625.798C643.279 628.746 640.823 631.202 637.876 631.202H7.85804Z" fill="white"/>
<path d="M637.876 3.04546C640.626 3.04546 642.787 5.20678 642.787 7.95754V625.799C642.787 628.549 640.626 630.711 637.876 630.711H7.85803C5.10772 630.711 2.94676 628.549 2.94676 625.799V7.95754C2.94676 5.20678 5.10772 3.04546 7.85803 3.04546H637.876ZM637.876 2.06305H7.85803C4.6166 2.06305 1.96451 4.71557 1.96451 7.95754V625.799C1.96451 629.041 4.6166 631.693 7.85803 631.693H637.876C641.117 631.693 643.77 629.041 643.77 625.799V7.95754C643.77 4.71557 641.117 2.06305 637.876 2.06305Z" fill="#696872"/>
<path d="M263.834 506.337H58.8371C56.0867 506.337 53.9258 504.176 53.9258 501.425V334.021C53.9258 331.27 56.0867 329.109 58.8371 329.109H263.834C266.584 329.109 268.745 331.27 268.745 334.021V501.425C268.745 504.077 266.584 506.337 263.834 506.337Z" stroke="#696872" stroke-miterlimit="10"/>
<path d="M642.787 34.4828H2.94676V8.35054C2.94676 5.50153 5.20595 3.14374 7.85803 3.14374H637.778C640.528 3.14374 642.689 5.50153 642.689 8.35054L642.787 34.4828Z" fill="#E1E7F3"/>
<path d="M30.4499 23.6762C33.1623 23.6762 35.3611 21.477 35.3611 18.7641C35.3611 16.0513 33.1623 13.8521 30.4499 13.8521C27.7375 13.8521 25.5386 16.0513 25.5386 18.7641C25.5386 21.477 27.7375 23.6762 30.4499 23.6762Z" fill="white"/>
<path d="M49.2109 23.6762C51.9233 23.6762 54.1222 21.477 54.1222 18.7641C54.1222 16.0513 51.9233 13.8521 49.2109 13.8521C46.4985 13.8521 44.2997 16.0513 44.2997 18.7641C44.2997 21.477 46.4985 23.6762 49.2109 23.6762Z" fill="white"/>
<path d="M68.0702 23.6762C70.7827 23.6762 72.9815 21.477 72.9815 18.7641C72.9815 16.0513 70.7827 13.8521 68.0702 13.8521C65.3578 13.8521 63.159 16.0513 63.159 18.7641C63.159 21.477 65.3578 23.6762 68.0702 23.6762Z" fill="white"/>
<path d="M618.526 11.4943H596.72C595.836 11.4943 595.246 11.9855 595.246 12.7714C595.246 13.4591 595.934 13.9503 596.72 13.9503H618.526C619.41 13.9503 620.195 13.4591 620.195 12.7714C620.195 12.0837 619.606 11.4943 618.526 11.4943Z" fill="white"/>
<path d="M618.526 17.5852H596.72C595.836 17.5852 595.246 18.0764 595.246 18.8623C595.246 19.55 595.934 20.0412 596.72 20.0412H618.526C619.41 20.0412 620.195 19.55 620.195 18.8623C620.195 18.0764 619.606 17.5852 618.526 17.5852Z" fill="white"/>
<path d="M618.526 23.6762H596.72C595.836 23.6762 595.246 24.1674 595.246 24.9533C595.246 25.641 595.934 26.1322 596.72 26.1322H618.526C619.41 26.1322 620.195 25.641 620.195 24.9533C620.195 24.1674 619.606 23.6762 618.526 23.6762Z" fill="white"/>
<path d="M376.498 268.887H59.8193C57.069 268.887 54.908 266.726 54.908 263.975V136.85H376.498V268.887Z" fill="#E1E7F3"/>
<path d="M332.1 195.795C332.1 248.649 300.668 267.217 261.869 267.217C260.985 267.217 260.003 267.217 259.217 267.217C257.351 267.217 255.681 267.02 253.815 267.02C218.846 264.466 191.54 245.113 191.54 195.992C191.54 145.005 256.467 80.8528 261.378 76.1372C261.574 75.9407 261.673 75.8425 261.673 75.8425C261.673 75.8425 332.1 143.04 332.1 195.795Z" fill="#F8FE91"/>
<path d="M259.315 259.161L284.952 223.205L259.119 262.993V267.02C257.252 267.02 255.583 266.824 253.716 266.824L256.368 213.872V213.577L256.663 208.469L231.026 168.681L256.86 204.834V205.816L258.922 165.832L236.822 124.669L259.217 158.955L261.378 76.039V75.646V75.9407L261.083 141.271L282.988 115.237L260.887 146.773L260.396 182.533L281.023 148.148L260.396 187.838L260.101 207.781L289.962 160.035L259.905 214.854L259.315 259.161Z" fill="#696872"/>
<path d="M261.673 598.88H62.5696C59.3282 598.88 56.6761 596.228 56.6761 592.986V526.869C56.6761 523.627 59.3282 520.975 62.5696 520.975H261.673C264.914 520.975 267.566 523.627 267.566 526.869V592.986C267.664 596.13 264.914 598.88 261.673 598.88Z" fill="#E1E7F3"/>
<path d="M463.919 268.887H59.8193C57.069 268.887 54.908 266.726 54.908 263.975V109.834C54.908 107.083 57.069 104.922 59.8193 104.922H464.017C466.767 104.922 468.928 107.083 468.928 109.834V263.975C468.83 266.627 466.669 268.887 463.919 268.887Z" stroke="#696872" stroke-miterlimit="10"/>
<path d="M493.485 515.08C496.957 515.08 499.771 512.265 499.771 508.793C499.771 505.32 496.957 502.505 493.485 502.505C490.013 502.505 487.198 505.32 487.198 508.793C487.198 512.265 490.013 515.08 493.485 515.08Z" fill="white"/>
<path d="M525.211 407.309C533.511 407.309 540.24 400.58 540.24 392.278C540.24 383.977 533.511 377.247 525.211 377.247C516.911 377.247 510.183 383.977 510.183 392.278C510.183 400.58 516.911 407.309 525.211 407.309Z" fill="white"/>
<path d="M293.596 533.55H94.4929C91.2515 533.55 88.5994 530.897 88.5994 527.655V366.146C88.5994 362.904 91.2515 360.252 94.4929 360.252H293.596C296.837 360.252 299.489 362.904 299.489 366.146V527.655C299.391 530.995 296.837 533.55 293.596 533.55Z" fill="#ADA3F1"/>
<path d="M216.685 493.86H115.12C114.924 493.86 114.826 493.86 114.826 493.86L162.956 410.65C163.84 408.979 166.001 408.488 167.474 409.274C167.966 409.569 168.457 409.962 168.85 410.65L201.068 466.549L202.541 469.202L216.685 493.86Z" fill="white"/>
<path d="M273.361 493.86H185.45L202.541 469.005L203.72 467.139L226.017 434.915C227.49 433.049 230.437 432.754 232.303 434.228C232.5 434.424 232.5 434.424 232.598 434.522C232.696 434.621 232.794 434.817 232.893 434.817L273.361 493.86Z" fill="white"/>
<path d="M267.271 408.488C275.571 408.488 282.3 401.759 282.3 393.457C282.3 385.156 275.571 378.426 267.271 378.426C258.971 378.426 252.243 385.156 252.243 393.457C252.243 401.759 258.971 408.488 267.271 408.488Z" fill="white"/>
<path d="M466.276 142.647C485.643 142.647 501.343 126.944 501.343 107.574C501.343 88.2046 485.643 72.5023 466.276 72.5023C446.91 72.5023 431.21 88.2046 431.21 107.574C431.21 126.944 446.91 142.647 466.276 142.647Z" fill="#ADA3F1"/>
<path d="M479.438 106.396H467.455V92.74C467.455 92.0523 466.964 91.7576 466.473 91.7576C465.982 91.7576 465.49 92.2488 465.49 92.74V106.396H453.507C452.819 106.396 452.525 106.887 452.525 107.378C452.525 107.869 453.016 108.36 453.507 108.36H465.49V122.016C465.49 122.704 465.982 122.998 466.473 122.998C466.964 122.998 467.455 122.507 467.455 122.016V108.557H479.438C480.126 108.557 480.421 108.066 480.421 107.574C480.421 107.083 479.93 106.396 479.438 106.396Z" fill="white"/>
</g>
<defs>
<clipPath id="clip0_1_205">
<rect width="650" height="637" fill="white"/>
</clipPath>
</defs>
</svg>
