<svg width="174" height="54" viewBox="0 0 174 54" fill="none" xmlns="http://www.w3.org/2000/svg">
<path d="M0 27C0 12.0883 12.0883 0 27 0H147C161.912 0 174 12.0883 174 27C174 41.9117 161.912 54 147 54H27C12.0883 54 0 41.9117 0 27Z" fill="#9181FF"/>
<path d="M51.043 28.7773L53.1597 21.3359H54.1851L53.5918 24.229L51.314 32H50.2959L51.043 28.7773ZM48.853 21.3359L50.5376 28.6309L51.043 32H50.0322L47.4468 21.3359H48.853ZM56.9243 28.6235L58.5723 21.3359H59.9858L57.4077 32H56.397L56.9243 28.6235ZM54.3389 21.3359L56.397 28.7773L57.144 32H56.126L53.9287 24.229L53.3281 21.3359H54.3389ZM64.4023 32.1465C63.8506 32.1465 63.3501 32.0537 62.9009 31.8682C62.4565 31.6777 62.0732 31.4116 61.751 31.0698C61.4336 30.728 61.1895 30.3228 61.0186 29.854C60.8477 29.3853 60.7622 28.8726 60.7622 28.3159V28.0083C60.7622 27.3638 60.8574 26.79 61.0479 26.2871C61.2383 25.7793 61.4971 25.3496 61.8242 24.998C62.1514 24.6465 62.5225 24.3804 62.9375 24.1997C63.3525 24.019 63.7822 23.9287 64.2266 23.9287C64.793 23.9287 65.2812 24.0264 65.6914 24.2217C66.1064 24.417 66.4458 24.6904 66.7095 25.042C66.9731 25.3887 67.1685 25.7988 67.2954 26.2725C67.4224 26.7412 67.4858 27.2539 67.4858 27.8105V28.4185H61.5679V27.3125H66.1309V27.21C66.1113 26.8584 66.0381 26.5166 65.9111 26.1846C65.7891 25.8525 65.5938 25.5791 65.3252 25.3643C65.0566 25.1494 64.6904 25.042 64.2266 25.042C63.9189 25.042 63.6357 25.1079 63.377 25.2397C63.1182 25.3667 62.896 25.5571 62.7104 25.811C62.5249 26.0649 62.3809 26.375 62.2783 26.7412C62.1758 27.1074 62.1245 27.5298 62.1245 28.0083V28.3159C62.1245 28.6919 62.1758 29.0459 62.2783 29.3779C62.3857 29.7051 62.5396 29.9932 62.7397 30.2422C62.9448 30.4912 63.1914 30.6865 63.4795 30.8281C63.7725 30.9697 64.1045 31.0405 64.4756 31.0405C64.9541 31.0405 65.3594 30.9429 65.6914 30.7476C66.0234 30.5522 66.314 30.291 66.563 29.9639L67.3833 30.6157C67.2124 30.8745 66.9951 31.1211 66.7314 31.3555C66.4678 31.5898 66.1431 31.7803 65.7573 31.9268C65.3765 32.0732 64.9248 32.1465 64.4023 32.1465ZM69.793 20.75V21.5557L69.6392 24.251H68.6943L68.7017 21.6802V20.75H69.793ZM72.9424 25.3203V32H71.5874V24.0752H72.9058L72.9424 25.3203ZM75.418 24.0312L75.4106 25.291C75.2983 25.2666 75.1909 25.252 75.0884 25.2471C74.9907 25.2373 74.8784 25.2324 74.7515 25.2324C74.439 25.2324 74.1631 25.2812 73.9238 25.3789C73.6846 25.4766 73.4819 25.6133 73.3159 25.7891C73.1499 25.9648 73.0181 26.1748 72.9204 26.4189C72.8276 26.6582 72.7666 26.9219 72.7373 27.21L72.3564 27.4297C72.3564 26.9512 72.4028 26.502 72.4956 26.082C72.5933 25.6621 72.7422 25.291 72.9424 24.9688C73.1426 24.6416 73.3965 24.3877 73.7041 24.207C74.0166 24.0215 74.3877 23.9287 74.8174 23.9287C74.915 23.9287 75.0273 23.9409 75.1543 23.9653C75.2812 23.9849 75.3691 24.0068 75.418 24.0312ZM79.8125 32.1465C79.2607 32.1465 78.7603 32.0537 78.311 31.8682C77.8667 31.6777 77.4834 31.4116 77.1611 31.0698C76.8438 30.728 76.5996 30.3228 76.4287 29.854C76.2578 29.3853 76.1724 28.8726 76.1724 28.3159V28.0083C76.1724 27.3638 76.2676 26.79 76.458 26.2871C76.6484 25.7793 76.9072 25.3496 77.2344 24.998C77.5615 24.6465 77.9326 24.3804 78.3477 24.1997C78.7627 24.019 79.1924 23.9287 79.6367 23.9287C80.2031 23.9287 80.6914 24.0264 81.1016 24.2217C81.5166 24.417 81.856 24.6904 82.1196 25.042C82.3833 25.3887 82.5786 25.7988 82.7056 26.2725C82.8325 26.7412 82.896 27.2539 82.896 27.8105V28.4185H76.978V27.3125H81.541V27.21C81.5215 26.8584 81.4482 26.5166 81.3213 26.1846C81.1992 25.8525 81.0039 25.5791 80.7354 25.3643C80.4668 25.1494 80.1006 25.042 79.6367 25.042C79.3291 25.042 79.0459 25.1079 78.7871 25.2397C78.5283 25.3667 78.3062 25.5571 78.1206 25.811C77.9351 26.0649 77.791 26.375 77.6885 26.7412C77.5859 27.1074 77.5347 27.5298 77.5347 28.0083V28.3159C77.5347 28.6919 77.5859 29.0459 77.6885 29.3779C77.7959 29.7051 77.9497 29.9932 78.1499 30.2422C78.355 30.4912 78.6016 30.6865 78.8896 30.8281C79.1826 30.9697 79.5146 31.0405 79.8857 31.0405C80.3643 31.0405 80.7695 30.9429 81.1016 30.7476C81.4336 30.5522 81.7241 30.291 81.9731 29.9639L82.7935 30.6157C82.6226 30.8745 82.4053 31.1211 82.1416 31.3555C81.8779 31.5898 81.5532 31.7803 81.1675 31.9268C80.7866 32.0732 80.335 32.1465 79.8125 32.1465ZM95.3691 25.9209V27.0708H89.5977V25.9209H95.3691ZM89.8174 21.3359V32H88.4038V21.3359H89.8174ZM96.5996 21.3359V32H95.1934V21.3359H96.5996ZM100.379 24.0752V32H99.0166V24.0752H100.379ZM98.9141 21.9731C98.9141 21.7534 98.98 21.5679 99.1118 21.4165C99.2485 21.2651 99.4487 21.1895 99.7124 21.1895C99.9712 21.1895 100.169 21.2651 100.306 21.4165C100.447 21.5679 100.518 21.7534 100.518 21.9731C100.518 22.1831 100.447 22.3638 100.306 22.5151C100.169 22.6616 99.9712 22.7349 99.7124 22.7349C99.4487 22.7349 99.2485 22.6616 99.1118 22.5151C98.98 22.3638 98.9141 22.1831 98.9141 21.9731ZM103.909 25.3203V32H102.554V24.0752H103.873L103.909 25.3203ZM106.385 24.0312L106.377 25.291C106.265 25.2666 106.158 25.252 106.055 25.2471C105.958 25.2373 105.845 25.2324 105.718 25.2324C105.406 25.2324 105.13 25.2812 104.891 25.3789C104.651 25.4766 104.449 25.6133 104.283 25.7891C104.117 25.9648 103.985 26.1748 103.887 26.4189C103.794 26.6582 103.733 26.9219 103.704 27.21L103.323 27.4297C103.323 26.9512 103.37 26.502 103.462 26.082C103.56 25.6621 103.709 25.291 103.909 24.9688C104.109 24.6416 104.363 24.3877 104.671 24.207C104.983 24.0215 105.354 23.9287 105.784 23.9287C105.882 23.9287 105.994 23.9409 106.121 23.9653C106.248 23.9849 106.336 24.0068 106.385 24.0312ZM109.109 24.0752V32H107.747V24.0752H109.109ZM107.645 21.9731C107.645 21.7534 107.71 21.5679 107.842 21.4165C107.979 21.2651 108.179 21.1895 108.443 21.1895C108.702 21.1895 108.899 21.2651 109.036 21.4165C109.178 21.5679 109.249 21.7534 109.249 21.9731C109.249 22.1831 109.178 22.3638 109.036 22.5151C108.899 22.6616 108.702 22.7349 108.443 22.7349C108.179 22.7349 107.979 22.6616 107.842 22.5151C107.71 22.3638 107.645 22.1831 107.645 21.9731ZM112.64 25.7671V32H111.285V24.0752H112.566L112.64 25.7671ZM112.317 27.7373L111.753 27.7153C111.758 27.1733 111.839 26.6729 111.995 26.2139C112.151 25.75 112.371 25.3472 112.654 25.0054C112.938 24.6636 113.274 24.3999 113.665 24.2144C114.061 24.0239 114.498 23.9287 114.976 23.9287C115.367 23.9287 115.718 23.9824 116.031 24.0898C116.343 24.1924 116.609 24.3584 116.829 24.5879C117.054 24.8174 117.225 25.1152 117.342 25.4814C117.459 25.8428 117.518 26.2847 117.518 26.8071V32H116.155V26.7925C116.155 26.3774 116.094 26.0454 115.972 25.7964C115.85 25.5425 115.672 25.3594 115.438 25.2471C115.203 25.1299 114.915 25.0713 114.573 25.0713C114.236 25.0713 113.929 25.1421 113.65 25.2837C113.377 25.4253 113.14 25.6206 112.94 25.8696C112.745 26.1187 112.591 26.4043 112.479 26.7266C112.371 27.0439 112.317 27.3809 112.317 27.7373ZM124.71 24.0752H125.94V31.8315C125.94 32.5298 125.799 33.1255 125.516 33.6187C125.232 34.1118 124.837 34.4854 124.329 34.7393C123.826 34.998 123.245 35.1274 122.586 35.1274C122.312 35.1274 121.99 35.0835 121.619 34.9956C121.253 34.9126 120.892 34.7686 120.535 34.5635C120.184 34.3633 119.888 34.0923 119.649 33.7505L120.359 32.9448C120.691 33.3452 121.038 33.6235 121.399 33.7798C121.766 33.936 122.127 34.0142 122.483 34.0142C122.913 34.0142 123.284 33.9336 123.597 33.7725C123.909 33.6113 124.151 33.3721 124.322 33.0547C124.498 32.7422 124.585 32.3564 124.585 31.8975V25.8184L124.71 24.0752ZM119.253 28.1255V27.9717C119.253 27.3662 119.324 26.8169 119.466 26.3237C119.612 25.8257 119.82 25.3984 120.088 25.042C120.362 24.6855 120.691 24.4121 121.077 24.2217C121.463 24.0264 121.897 23.9287 122.381 23.9287C122.879 23.9287 123.313 24.0166 123.685 24.1924C124.061 24.3633 124.378 24.6147 124.637 24.9468C124.9 25.2739 125.108 25.6694 125.259 26.1333C125.411 26.5972 125.516 27.1221 125.574 27.708V28.3818C125.521 28.9629 125.416 29.4854 125.259 29.9492C125.108 30.4131 124.9 30.8086 124.637 31.1357C124.378 31.4629 124.061 31.7144 123.685 31.8901C123.309 32.061 122.869 32.1465 122.366 32.1465C121.893 32.1465 121.463 32.0464 121.077 31.8462C120.696 31.646 120.369 31.3652 120.096 31.0039C119.822 30.6426 119.612 30.2178 119.466 29.7295C119.324 29.2363 119.253 28.7017 119.253 28.1255ZM120.608 27.9717V28.1255C120.608 28.521 120.647 28.8921 120.726 29.2388C120.809 29.5854 120.933 29.8906 121.099 30.1543C121.27 30.418 121.487 30.6255 121.751 30.7769C122.015 30.9233 122.33 30.9966 122.696 30.9966C123.145 30.9966 123.516 30.9014 123.809 30.7109C124.102 30.5205 124.334 30.269 124.505 29.9565C124.681 29.644 124.817 29.3047 124.915 28.9385V27.1733C124.861 26.9048 124.778 26.646 124.666 26.397C124.559 26.1431 124.417 25.9185 124.241 25.7231C124.07 25.5229 123.858 25.3643 123.604 25.2471C123.35 25.1299 123.052 25.0713 122.71 25.0713C122.339 25.0713 122.02 25.1494 121.751 25.3057C121.487 25.457 121.27 25.667 121.099 25.9355C120.933 26.1992 120.809 26.5068 120.726 26.8584C120.647 27.2051 120.608 27.5762 120.608 27.9717Z" fill="white"/>
</svg>
