<svg width="368" height="25" viewBox="0 0 368 25" fill="none" xmlns="http://www.w3.org/2000/svg">
<path d="M9.075 8.025V15.625C9.075 16.4737 8.80267 17.1323 8.258 17.601C7.726 18.057 6.92167 18.285 5.845 18.285C4.781 18.285 3.97667 18.057 3.432 17.601C2.88733 17.1323 2.615 16.4737 2.615 15.625V8.025C2.615 7.17633 2.881 6.524 3.413 6.068C3.95767 5.59933 4.762 5.365 5.826 5.365C6.90267 5.365 7.71333 5.59933 8.258 6.068C8.80267 6.524 9.075 7.17633 9.075 8.025ZM7.745 15.625V8.025C7.745 7.01167 7.11167 6.505 5.845 6.505C4.57833 6.505 3.945 7.01167 3.945 8.025V15.625C3.945 16.6383 4.57833 17.145 5.845 17.145C7.11167 17.145 7.745 16.6383 7.745 15.625ZM12.3955 18V16.86L16.0055 11.749C16.0562 11.6857 16.1512 11.5527 16.2905 11.35C16.4299 11.1473 16.5312 11.0017 16.5945 10.913C16.6579 10.8243 16.7465 10.6913 16.8605 10.514C16.9745 10.3367 17.0569 10.1973 17.1075 10.096C17.1709 9.982 17.2342 9.85533 17.2975 9.716C17.4242 9.46267 17.4875 9.21567 17.4875 8.975V7.949C17.4875 7.493 17.3355 7.13833 17.0315 6.885C16.7402 6.63167 16.2969 6.505 15.7015 6.505C15.1062 6.505 14.6565 6.63167 14.3525 6.885C14.0612 7.13833 13.9155 7.493 13.9155 7.949V9.64H12.5855V8.025C12.5855 6.25167 13.6052 5.365 15.6445 5.365C16.7085 5.365 17.5002 5.59933 18.0195 6.068C18.5515 6.524 18.8175 7.17633 18.8175 8.025V8.975C18.8175 9.40567 18.6782 9.88067 18.3995 10.4C18.1335 10.9067 17.6775 11.6223 17.0315 12.547L14.0105 16.86H18.7985V18H12.3955Z" fill="#373C42"/>
<path d="M36 12H156V13H36V12Z" fill="#9181FF"/>
</svg>
