<svg width="368" height="25" viewBox="0 0 368 25" fill="none" xmlns="http://www.w3.org/2000/svg">
<path d="M36 12H156V13H36V12Z" fill="#9181FF"/>
<path d="M9.075 8.025V15.625C9.075 16.4737 8.80267 17.1323 8.258 17.601C7.726 18.057 6.92167 18.285 5.845 18.285C4.781 18.285 3.97667 18.057 3.432 17.601C2.88733 17.1323 2.615 16.4737 2.615 15.625V8.025C2.615 7.17633 2.881 6.524 3.413 6.068C3.95767 5.59933 4.762 5.365 5.826 5.365C6.90267 5.365 7.71333 5.59933 8.258 6.068C8.80267 6.524 9.075 7.17633 9.075 8.025ZM7.745 15.625V8.025C7.745 7.01167 7.11167 6.505 5.845 6.505C4.57833 6.505 3.945 7.01167 3.945 8.025V15.625C3.945 16.6383 4.57833 17.145 5.845 17.145C7.11167 17.145 7.745 16.6383 7.745 15.625ZM13.8585 6.79V10.59H15.7395C16.7149 10.59 17.4622 10.837 17.9815 11.331C18.5009 11.825 18.7605 12.4963 18.7605 13.345V15.625C18.7605 17.3983 17.6902 18.285 15.5495 18.285C13.4089 18.285 12.3385 17.3983 12.3385 15.625V14.01H13.6685V15.701C13.6685 16.157 13.8269 16.5117 14.1435 16.765C14.4602 17.0183 14.9289 17.145 15.5495 17.145C16.1702 17.145 16.6389 17.0183 16.9555 16.765C17.2722 16.5117 17.4305 16.157 17.4305 15.701V13.345C17.4305 12.9397 17.2785 12.5723 16.9745 12.243C16.6705 11.901 16.2589 11.73 15.7395 11.73H12.5285V5.65H18.5705V6.79H13.8585Z" fill="#373C42"/>
</svg>
