<svg width="372" height="73" viewBox="0 0 372 73" fill="none" xmlns="http://www.w3.org/2000/svg">
<path d="M41.375 54.525C39.6017 54.525 37.9683 54.0233 36.475 53.02C34.9817 52.0167 33.7917 50.5583 32.905 48.645C32.0183 46.7083 31.575 44.41 31.575 41.75C31.575 39.0667 32.03 36.7683 32.94 34.855C33.8733 32.9183 35.1683 31.46 36.825 30.48C38.505 29.4767 40.4417 28.975 42.635 28.975C43.965 28.975 45.3067 29.36 46.66 30.13C47.1733 30.41 47.6867 30.7833 48.2 31.25C48.5967 30.6433 49.005 30.165 49.425 29.815C49.845 29.5117 50.0783 29.3483 50.125 29.325H51V35.975H49.6C49.2967 34.855 48.8417 33.84 48.235 32.93C47.675 32.0433 46.975 31.3083 46.135 30.725C45.3183 30.1417 44.3733 29.85 43.3 29.85C41.69 29.85 40.3483 30.7833 39.275 32.65C38.225 34.5167 37.7 37.55 37.7 41.75C37.7 45.95 38.1667 48.925 39.1 50.675C40.0567 52.425 41.2817 53.3 42.775 53.3C43.6383 53.3 44.42 52.8333 45.12 51.9C45.3767 51.55 45.645 51.0833 45.925 50.5V42.45L43.825 41.925V41.4H53.8V41.925L51.7 42.45V54.175H51.175C49.4717 54.175 48.1767 53.7083 47.29 52.775C46.8933 52.355 46.6133 51.8883 46.45 51.375C46.1233 51.9583 45.7383 52.4833 45.295 52.95C44.245 54 42.9383 54.525 41.375 54.525ZM64.84 54.525C61.9467 54.525 59.6717 53.7083 58.015 52.075C56.3817 50.4183 55.565 48.1433 55.565 45.25C55.565 42.3567 56.3817 40.0933 58.015 38.46C59.6717 36.8033 61.9467 35.975 64.84 35.975C67.7334 35.975 69.9967 36.8033 71.63 38.46C73.2867 40.0933 74.115 42.3567 74.115 45.25C74.115 48.1433 73.2867 50.4183 71.63 52.075C69.9967 53.7083 67.7334 54.525 64.84 54.525ZM64.84 53.825C65.7734 53.825 66.555 53.1717 67.185 51.865C67.8384 50.5583 68.165 48.3533 68.165 45.25C68.165 42.1467 67.8384 39.9417 67.185 38.635C66.555 37.3283 65.7734 36.675 64.84 36.675C63.9067 36.675 63.1134 37.3283 62.46 38.635C61.83 39.9417 61.515 42.1467 61.515 45.25C61.515 48.3533 61.83 50.5583 62.46 51.865C63.1134 53.1717 63.9067 53.825 64.84 53.825ZM83.7523 54.525C81.6757 54.525 80.0773 54.0817 78.9573 53.195C77.8373 52.3083 77.2773 51.1767 77.2773 49.8C77.2773 48.89 77.4757 47.9917 77.8723 47.105C78.0357 46.685 78.2457 46.3 78.5023 45.95C79.459 45.7167 80.4973 45.5067 81.6173 45.32C84.1373 44.9 86.3657 44.6433 88.3023 44.55V43.5C88.3023 40.91 87.9873 39.125 87.3573 38.145C86.7273 37.165 85.759 36.675 84.4523 36.675C83.9623 36.675 83.5423 36.7333 83.1923 36.85L82.7023 37.025V42.275L82.2473 42.38C81.874 42.4267 81.559 42.45 81.3023 42.45C80.509 42.45 79.8673 42.2167 79.3773 41.75C78.9107 41.26 78.6773 40.6183 78.6773 39.825C78.6773 38.7517 79.214 37.8417 80.2873 37.095C81.384 36.3483 83.0057 35.975 85.1523 35.975C86.9723 35.975 88.5357 36.3017 89.8423 36.955C91.1723 37.585 92.1757 38.4717 92.8523 39.615C93.5523 40.735 93.9023 42.03 93.9023 43.5V52.95L96.0023 53.475V54H92.8523C91.4523 54 90.3673 53.5683 89.5973 52.705C89.2707 52.355 89.014 51.9117 88.8273 51.375C88.5007 51.9583 88.1157 52.4833 87.6723 52.95C86.6223 54 85.3157 54.525 83.7523 54.525ZM85.1523 53.3C86.0157 53.3 86.7973 52.8333 87.4973 51.9C87.754 51.55 88.0223 51.0833 88.3023 50.5V45.425C87.229 45.425 86.2023 45.4833 85.2223 45.6C84.499 45.6933 84.009 45.7517 83.7523 45.775C83.6357 46.0317 83.519 46.3817 83.4023 46.825C83.169 47.7117 83.0523 48.5867 83.0523 49.45C83.0523 50.7567 83.2507 51.725 83.6473 52.355C84.044 52.985 84.5457 53.3 85.1523 53.3ZM98.1188 53.475L100.219 52.95V30.55L98.1188 30.025V29.5H102.669C104.769 29.5 105.819 30.55 105.819 32.65V52.95L107.919 53.475V54H98.1188V53.475ZM120.173 54V53.475L122.273 52.95V30.55L120.173 30.025V29.5H130.148V30.025L128.048 30.55V52.95L130.148 53.475V54H120.173ZM140.465 54.525C139.088 54.525 137.863 54.175 136.79 53.475C135.716 52.7517 134.865 51.7017 134.235 50.325C133.605 48.925 133.29 47.2333 133.29 45.25C133.29 42.2633 133.978 39.9767 135.355 38.39C136.755 36.78 138.633 35.975 140.99 35.975C142.11 35.975 143.09 36.2083 143.93 36.675C144.28 36.8383 144.641 37.0717 145.015 37.375V30.55L142.915 30.025V29.5H147.465C149.565 29.5 150.615 30.55 150.615 32.65V52.95L152.715 53.475V54H149.565C148.165 54 147.08 53.5683 146.31 52.705C145.983 52.355 145.726 51.9117 145.54 51.375C145.236 51.9583 144.851 52.4833 144.385 52.95C143.335 54 142.028 54.525 140.465 54.525ZM141.865 53.3C142.728 53.3 143.51 52.8333 144.21 51.9C144.466 51.55 144.735 51.0833 145.015 50.5V38.425C144.758 38.1683 144.49 37.935 144.21 37.725C143.58 37.2583 142.973 37.025 142.39 37.025C141.386 37.025 140.605 37.6083 140.045 38.775C139.508 39.9417 139.24 42.1 139.24 45.25C139.24 48.26 139.485 50.36 139.975 51.55C140.488 52.7167 141.118 53.3 141.865 53.3ZM164.444 54.525C161.457 54.525 159.135 53.7083 157.479 52.075C155.822 50.4183 154.994 48.1433 154.994 45.25C154.994 43.36 155.355 41.715 156.079 40.315C156.802 38.915 157.805 37.8417 159.089 37.095C160.395 36.3483 161.889 35.975 163.569 35.975C165.249 35.975 166.719 36.29 167.979 36.92C169.262 37.55 170.242 38.4017 170.919 39.475C171.619 40.525 171.969 41.6917 171.969 42.975C171.969 43.5583 171.91 44.06 171.794 44.48L171.619 45.075C170.615 45.285 169.53 45.46 168.364 45.6C165.914 45.95 163.44 46.125 160.944 46.125C160.944 48.8317 161.317 50.7683 162.064 51.935C162.81 53.0783 163.837 53.65 165.144 53.65C166.054 53.65 166.894 53.44 167.664 53.02C168.457 52.5767 169.075 52.005 169.519 51.305C169.985 50.5817 170.219 49.8467 170.219 49.1H171.094C171.094 50.0333 170.814 50.92 170.254 51.76C169.694 52.6 168.912 53.2767 167.909 53.79C166.905 54.28 165.75 54.525 164.444 54.525ZM160.944 45.25C162.437 45.25 163.65 45.1917 164.584 45.075C164.98 45.0517 165.4 44.9933 165.844 44.9C165.867 44.7833 165.925 44.5267 166.019 44.13C166.135 43.5467 166.194 42.9283 166.194 42.275C166.194 40.3383 165.937 38.9267 165.424 38.04C164.91 37.13 164.292 36.675 163.569 36.675C161.819 36.675 160.944 39.5333 160.944 45.25ZM174.579 53.475L176.679 52.95V37.55L174.579 37.025V36.5H177.729C179.105 36.5 180.19 36.9433 180.984 37.83C181.287 38.18 181.544 38.6117 181.754 39.125C182.08 38.5183 182.465 37.9933 182.909 37.55C183.959 36.5 185.265 35.975 186.829 35.975C188.135 35.975 189.302 36.255 190.329 36.815C191.379 37.3517 192.195 38.0633 192.779 38.95C193.362 39.8367 193.654 40.77 193.654 41.75V52.95L195.754 53.475V54H191.204C189.104 54 188.054 52.95 188.054 50.85V41.75C188.054 40.28 187.785 39.16 187.249 38.39C186.735 37.5967 186.129 37.2 185.429 37.2C184.542 37.2 183.749 37.6667 183.049 38.6C182.745 38.9967 182.489 39.4633 182.279 40V52.95L184.379 53.475V54H174.579V53.475ZM206.955 54.525C205.415 54.525 204.073 54.245 202.93 53.685C201.81 53.125 200.947 52.355 200.34 51.375C199.733 50.395 199.43 49.2867 199.43 48.05V37.375H196.98V36.5H199.43V34.75C199.43 32.65 200.48 31.6 202.58 31.6H205.03V36.5H209.93V37.375H205.03V48.05C205.03 50.1967 205.252 51.6667 205.695 52.46C206.138 53.2533 206.792 53.65 207.655 53.65C208.495 53.65 209.23 53.2417 209.86 52.425C210.49 51.6083 210.805 50.5 210.805 49.1H211.68C211.68 50.8267 211.248 52.1683 210.385 53.125C209.522 54.0583 208.378 54.525 206.955 54.525ZM213.612 53.475L215.712 52.95V37.55L213.612 37.025V36.5H218.162C220.262 36.5 221.312 37.55 221.312 39.65V52.95L223.412 53.475V54H213.612V53.475ZM218.162 34.4C217.462 34.4 216.879 34.1667 216.412 33.7C215.945 33.2333 215.712 32.65 215.712 31.95C215.712 31.25 215.945 30.6667 216.412 30.2C216.879 29.7333 217.462 29.5 218.162 29.5C218.862 29.5 219.445 29.7333 219.912 30.2C220.379 30.6667 220.612 31.25 220.612 31.95C220.612 32.65 220.379 33.2333 219.912 33.7C219.445 34.1667 218.862 34.4 218.162 34.4ZM225.331 53.475L227.431 52.95V38.075H224.981V37.2H227.431V35.45C227.431 34.2133 227.723 33.105 228.306 32.125C228.913 31.145 229.765 30.375 230.861 29.815C231.981 29.255 233.288 28.975 234.781 28.975C235.995 28.975 237.033 29.1617 237.896 29.535C238.783 29.885 239.448 30.3633 239.891 30.97C240.335 31.5533 240.556 32.1717 240.556 32.825C240.556 33.6183 240.311 34.26 239.821 34.75C239.355 35.2167 238.725 35.45 237.931 35.45C237.605 35.45 237.278 35.4267 236.951 35.38L236.531 35.275V29.85L236.216 29.78C236.123 29.7567 236.018 29.7333 235.901 29.71C235.785 29.6867 235.645 29.675 235.481 29.675C234.688 29.675 234.081 30.095 233.661 30.935C233.241 31.7517 233.031 33.2567 233.031 35.45V37.2H238.631V38.075H233.031V52.95L235.131 53.475V54H225.331V53.475ZM240.716 53.475L242.816 52.95V37.55L240.716 37.025V36.5H245.266C247.366 36.5 248.416 37.55 248.416 39.65V52.95L250.516 53.475V54H240.716V53.475ZM245.266 34.4C244.566 34.4 243.983 34.1667 243.516 33.7C243.05 33.2333 242.816 32.65 242.816 31.95C242.816 31.25 243.05 30.6667 243.516 30.2C243.983 29.7333 244.566 29.5 245.266 29.5C245.966 29.5 246.55 29.7333 247.016 30.2C247.483 30.6667 247.716 31.25 247.716 31.95C247.716 32.65 247.483 33.2333 247.016 33.7C246.55 34.1667 245.966 34.4 245.266 34.4ZM262.061 54.525C259.074 54.525 256.753 53.7083 255.096 52.075C253.439 50.4183 252.611 48.1433 252.611 45.25C252.611 42.3567 253.439 40.0933 255.096 38.46C256.753 36.8033 259.074 35.975 262.061 35.975C264.208 35.975 265.818 36.3483 266.891 37.095C267.988 37.8417 268.536 38.7517 268.536 39.825C268.536 40.6183 268.291 41.26 267.801 41.75C267.334 42.2167 266.704 42.45 265.911 42.45C265.584 42.45 265.258 42.4267 264.931 42.38L264.511 42.275V37.025L264.021 36.85C263.671 36.7333 263.251 36.675 262.761 36.675C261.431 36.675 260.393 37.305 259.646 38.565C258.923 39.825 258.561 42.0533 258.561 45.25C258.561 48.3533 258.923 50.535 259.646 51.795C260.393 53.0317 261.431 53.65 262.761 53.65C263.671 53.65 264.511 53.44 265.281 53.02C266.074 52.5767 266.693 52.005 267.136 51.305C267.603 50.5817 267.836 49.8467 267.836 49.1H268.711C268.711 50.0333 268.431 50.92 267.871 51.76C267.311 52.6 266.529 53.2767 265.526 53.79C264.523 54.28 263.368 54.525 262.061 54.525ZM277.996 54.525C275.919 54.525 274.321 54.0817 273.201 53.195C272.081 52.3083 271.521 51.1767 271.521 49.8C271.521 48.89 271.719 47.9917 272.116 47.105C272.279 46.685 272.489 46.3 272.746 45.95C273.702 45.7167 274.741 45.5067 275.861 45.32C278.381 44.9 280.609 44.6433 282.546 44.55V43.5C282.546 40.91 282.231 39.125 281.601 38.145C280.971 37.165 280.002 36.675 278.696 36.675C278.206 36.675 277.786 36.7333 277.436 36.85L276.946 37.025V42.275L276.491 42.38C276.117 42.4267 275.802 42.45 275.546 42.45C274.752 42.45 274.111 42.2167 273.621 41.75C273.154 41.26 272.921 40.6183 272.921 39.825C272.921 38.7517 273.457 37.8417 274.531 37.095C275.627 36.3483 277.249 35.975 279.396 35.975C281.216 35.975 282.779 36.3017 284.086 36.955C285.416 37.585 286.419 38.4717 287.096 39.615C287.796 40.735 288.146 42.03 288.146 43.5V52.95L290.246 53.475V54H287.096C285.696 54 284.611 53.5683 283.841 52.705C283.514 52.355 283.257 51.9117 283.071 51.375C282.744 51.9583 282.359 52.4833 281.916 52.95C280.866 54 279.559 54.525 277.996 54.525ZM279.396 53.3C280.259 53.3 281.041 52.8333 281.741 51.9C281.997 51.55 282.266 51.0833 282.546 50.5V45.425C281.472 45.425 280.446 45.4833 279.466 45.6C278.742 45.6933 278.252 45.7517 277.996 45.775C277.879 46.0317 277.762 46.3817 277.646 46.825C277.412 47.7117 277.296 48.5867 277.296 49.45C277.296 50.7567 277.494 51.725 277.891 52.355C278.287 52.985 278.789 53.3 279.396 53.3ZM301.462 54.525C299.922 54.525 298.58 54.245 297.437 53.685C296.317 53.125 295.454 52.355 294.847 51.375C294.24 50.395 293.937 49.2867 293.937 48.05V37.375H291.487V36.5H293.937V34.75C293.937 32.65 294.987 31.6 297.087 31.6H299.537V36.5H304.437V37.375H299.537V48.05C299.537 50.1967 299.759 51.6667 300.202 52.46C300.645 53.2533 301.299 53.65 302.162 53.65C303.002 53.65 303.737 53.2417 304.367 52.425C304.997 51.6083 305.312 50.5 305.312 49.1H306.187C306.187 50.8267 305.755 52.1683 304.892 53.125C304.029 54.0583 302.885 54.525 301.462 54.525ZM308.119 53.475L310.219 52.95V37.55L308.119 37.025V36.5H312.669C314.769 36.5 315.819 37.55 315.819 39.65V52.95L317.919 53.475V54H308.119V53.475ZM312.669 34.4C311.969 34.4 311.385 34.1667 310.919 33.7C310.452 33.2333 310.219 32.65 310.219 31.95C310.219 31.25 310.452 30.6667 310.919 30.2C311.385 29.7333 311.969 29.5 312.669 29.5C313.369 29.5 313.952 29.7333 314.419 30.2C314.885 30.6667 315.119 31.25 315.119 31.95C315.119 32.65 314.885 33.2333 314.419 33.7C313.952 34.1667 313.369 34.4 312.669 34.4ZM329.288 54.525C326.395 54.525 324.12 53.7083 322.463 52.075C320.83 50.4183 320.013 48.1433 320.013 45.25C320.013 42.3567 320.83 40.0933 322.463 38.46C324.12 36.8033 326.395 35.975 329.288 35.975C332.182 35.975 334.445 36.8033 336.078 38.46C337.735 40.0933 338.563 42.3567 338.563 45.25C338.563 48.1433 337.735 50.4183 336.078 52.075C334.445 53.7083 332.182 54.525 329.288 54.525ZM329.288 53.825C330.222 53.825 331.003 53.1717 331.633 51.865C332.287 50.5583 332.613 48.3533 332.613 45.25C332.613 42.1467 332.287 39.9417 331.633 38.635C331.003 37.3283 330.222 36.675 329.288 36.675C328.355 36.675 327.562 37.3283 326.908 38.635C326.278 39.9417 325.963 42.1467 325.963 45.25C325.963 48.3533 326.278 50.5583 326.908 51.865C327.562 53.1717 328.355 53.825 329.288 53.825ZM341.376 53.475L343.476 52.95V37.55L341.376 37.025V36.5H344.526C345.902 36.5 346.987 36.9433 347.781 37.83C348.084 38.18 348.341 38.6117 348.551 39.125C348.877 38.5183 349.262 37.9933 349.706 37.55C350.756 36.5 352.062 35.975 353.626 35.975C354.932 35.975 356.099 36.255 357.126 36.815C358.176 37.3517 358.992 38.0633 359.576 38.95C360.159 39.8367 360.451 40.77 360.451 41.75V52.95L362.551 53.475V54H358.001C355.901 54 354.851 52.95 354.851 50.85V41.75C354.851 40.28 354.582 39.16 354.046 38.39C353.532 37.5967 352.926 37.2 352.226 37.2C351.339 37.2 350.546 37.6667 349.846 38.6C349.542 38.9967 349.286 39.4633 349.076 40V52.95L351.176 53.475V54H341.376V53.475Z" fill="#373C42"/>
<path d="M8.075 32.025V39.625C8.075 40.4737 7.80267 41.1323 7.258 41.601C6.726 42.057 5.92167 42.285 4.845 42.285C3.781 42.285 2.97667 42.057 2.432 41.601C1.88733 41.1323 1.615 40.4737 1.615 39.625V32.025C1.615 31.1763 1.881 30.524 2.413 30.068C2.95767 29.5993 3.762 29.365 4.826 29.365C5.90267 29.365 6.71333 29.5993 7.258 30.068C7.80267 30.524 8.075 31.1763 8.075 32.025ZM6.745 39.625V32.025C6.745 31.0117 6.11167 30.505 4.845 30.505C3.57833 30.505 2.945 31.0117 2.945 32.025V39.625C2.945 40.6383 3.57833 41.145 4.845 41.145C6.11167 41.145 6.745 40.6383 6.745 39.625ZM15.4995 29.65V40.86H17.5895V42H12.0795V40.86H14.1695V30.961L11.6235 32.424L11.0535 31.455L14.1695 29.65H15.4995Z" fill="#373C42"/>
</svg>
