<svg width="329" height="73" viewBox="0 0 329 73" fill="none" xmlns="http://www.w3.org/2000/svg">
<path d="M41.325 54.525C39.6683 54.525 38.1167 54.1517 36.67 53.405C36.0167 53.0783 35.4683 52.6933 35.025 52.25C34.6983 52.7867 34.29 53.265 33.8 53.685C33.38 53.9883 33.1467 54.1517 33.1 54.175H32.225V47.525H33.625C33.975 48.6683 34.465 49.695 35.095 50.605C36.5183 52.635 38.3617 53.65 40.625 53.65C41.955 53.65 43.0167 53.2533 43.81 52.46C44.6033 51.6667 45 50.605 45 49.275C45 48.505 44.7667 47.8167 44.3 47.21C43.8567 46.6033 43.2967 46.0667 42.62 45.6C41.9433 45.1333 40.9983 44.55 39.785 43.85C38.245 42.9867 36.9967 42.205 36.04 41.505C35.0833 40.805 34.2667 39.93 33.59 38.88C32.9133 37.8067 32.575 36.5467 32.575 35.1C32.575 33.9567 32.89 32.93 33.52 32.02C34.1733 31.0867 35.1417 30.3517 36.425 29.815C37.7083 29.255 39.2833 28.975 41.15 28.975C42.5033 28.975 43.8567 29.36 45.21 30.13C45.7233 30.41 46.2367 30.7833 46.75 31.25C47.1467 30.6433 47.555 30.165 47.975 29.815C48.395 29.5117 48.6283 29.3483 48.675 29.325H49.55V35.975H48.15C47.8467 34.855 47.3917 33.84 46.785 32.93C46.225 32.0433 45.525 31.3083 44.685 30.725C43.8683 30.1417 42.9233 29.85 41.85 29.85C40.94 29.85 40.1583 30.2117 39.505 30.935C38.8517 31.6583 38.525 32.58 38.525 33.7C38.525 34.5633 38.77 35.345 39.26 36.045C39.7733 36.7217 40.3917 37.3167 41.115 37.83C41.8617 38.3433 42.865 38.9617 44.125 39.685C45.595 40.525 46.785 41.2717 47.695 41.925C48.605 42.5783 49.375 43.395 50.005 44.375C50.635 45.3317 50.95 46.44 50.95 47.7C50.95 48.96 50.5883 50.115 49.865 51.165C49.1417 52.1917 48.0567 53.0083 46.61 53.615C45.1633 54.2217 43.4017 54.525 41.325 54.525ZM62.6654 54.525C59.6788 54.525 57.3571 53.7083 55.7004 52.075C54.0438 50.4183 53.2154 48.1433 53.2154 45.25C53.2154 42.3567 54.0438 40.0933 55.7004 38.46C57.3571 36.8033 59.6788 35.975 62.6654 35.975C64.8121 35.975 66.4221 36.3483 67.4954 37.095C68.5921 37.8417 69.1404 38.7517 69.1404 39.825C69.1404 40.6183 68.8954 41.26 68.4054 41.75C67.9388 42.2167 67.3088 42.45 66.5154 42.45C66.1888 42.45 65.8621 42.4267 65.5354 42.38L65.1154 42.275V37.025L64.6254 36.85C64.2754 36.7333 63.8554 36.675 63.3654 36.675C62.0354 36.675 60.9971 37.305 60.2504 38.565C59.5271 39.825 59.1654 42.0533 59.1654 45.25C59.1654 48.3533 59.5271 50.535 60.2504 51.795C60.9971 53.0317 62.0354 53.65 63.3654 53.65C64.2754 53.65 65.1154 53.44 65.8854 53.02C66.6788 52.5767 67.2971 52.005 67.7404 51.305C68.2071 50.5817 68.4404 49.8467 68.4404 49.1H69.3154C69.3154 50.0333 69.0354 50.92 68.4754 51.76C67.9154 52.6 67.1338 53.2767 66.1304 53.79C65.1271 54.28 63.9721 54.525 62.6654 54.525ZM81.05 54.525C78.1567 54.525 75.8817 53.7083 74.225 52.075C72.5917 50.4183 71.775 48.1433 71.775 45.25C71.775 42.3567 72.5917 40.0933 74.225 38.46C75.8817 36.8033 78.1567 35.975 81.05 35.975C83.9433 35.975 86.2067 36.8033 87.84 38.46C89.4967 40.0933 90.325 42.3567 90.325 45.25C90.325 48.1433 89.4967 50.4183 87.84 52.075C86.2067 53.7083 83.9433 54.525 81.05 54.525ZM81.05 53.825C81.9833 53.825 82.765 53.1717 83.395 51.865C84.0483 50.5583 84.375 48.3533 84.375 45.25C84.375 42.1467 84.0483 39.9417 83.395 38.635C82.765 37.3283 81.9833 36.675 81.05 36.675C80.1167 36.675 79.3233 37.3283 78.67 38.635C78.04 39.9417 77.725 42.1467 77.725 45.25C77.725 48.3533 78.04 50.5583 78.67 51.865C79.3233 53.1717 80.1167 53.825 81.05 53.825ZM92.7873 60.475L94.8873 59.95V37.55L92.7873 37.025V36.5H95.9373C97.314 36.5 98.399 36.9433 99.1923 37.83C99.4956 38.18 99.7523 38.6117 99.9623 39.125C100.266 38.5183 100.651 37.9933 101.117 37.55C102.167 36.5 103.474 35.975 105.037 35.975C106.414 35.975 107.639 36.3367 108.712 37.06C109.786 37.76 110.637 38.81 111.267 40.21C111.897 41.5867 112.212 43.2667 112.212 45.25C112.212 48.2367 111.512 50.535 110.112 52.145C108.736 53.7317 106.869 54.525 104.512 54.525C103.392 54.525 102.412 54.2917 101.572 53.825C101.222 53.6617 100.861 53.4283 100.487 53.125V59.95L102.587 60.475V61H92.7873V60.475ZM103.112 53.475C104.116 53.475 104.886 52.8917 105.422 51.725C105.982 50.5583 106.262 48.4 106.262 45.25C106.262 42.24 106.006 40.1517 105.492 38.985C105.002 37.795 104.384 37.2 103.637 37.2C102.751 37.2 101.957 37.6667 101.257 38.6C100.954 38.9967 100.697 39.4633 100.487 40V52.075C100.814 52.4017 101.071 52.635 101.257 52.775C101.887 53.2417 102.506 53.475 103.112 53.475ZM124.462 54.525C121.476 54.525 119.154 53.7083 117.497 52.075C115.841 50.4183 115.012 48.1433 115.012 45.25C115.012 43.36 115.374 41.715 116.097 40.315C116.821 38.915 117.824 37.8417 119.107 37.095C120.414 36.3483 121.907 35.975 123.587 35.975C125.267 35.975 126.737 36.29 127.997 36.92C129.281 37.55 130.261 38.4017 130.937 39.475C131.637 40.525 131.987 41.6917 131.987 42.975C131.987 43.5583 131.929 44.06 131.812 44.48L131.637 45.075C130.634 45.285 129.549 45.46 128.382 45.6C125.932 45.95 123.459 46.125 120.962 46.125C120.962 48.8317 121.336 50.7683 122.082 51.935C122.829 53.0783 123.856 53.65 125.162 53.65C126.072 53.65 126.912 53.44 127.682 53.02C128.476 52.5767 129.094 52.005 129.537 51.305C130.004 50.5817 130.237 49.8467 130.237 49.1H131.112C131.112 50.0333 130.832 50.92 130.272 51.76C129.712 52.6 128.931 53.2767 127.927 53.79C126.924 54.28 125.769 54.525 124.462 54.525ZM120.962 45.25C122.456 45.25 123.669 45.1917 124.602 45.075C124.999 45.0517 125.419 44.9933 125.862 44.9C125.886 44.7833 125.944 44.5267 126.037 44.13C126.154 43.5467 126.212 42.9283 126.212 42.275C126.212 40.3383 125.956 38.9267 125.442 38.04C124.929 37.13 124.311 36.675 123.587 36.675C121.837 36.675 120.962 39.5333 120.962 45.25ZM144.757 53.475L146.857 52.95V30.55L144.757 30.025V29.5H153.682C157.859 29.5 161.055 30.5733 163.272 32.72C165.512 34.8667 166.632 37.8767 166.632 41.75C166.632 45.6233 165.512 48.6333 163.272 50.78C161.055 52.9267 157.859 54 153.682 54H144.757V53.475ZM153.682 53.125C155.852 53.125 157.532 52.25 158.722 50.5C159.912 48.7267 160.507 45.81 160.507 41.75C160.507 37.69 159.912 34.785 158.722 33.035C157.532 31.2617 155.852 30.375 153.682 30.375H152.632V53.125H153.682ZM178.876 54.525C175.89 54.525 173.568 53.7083 171.911 52.075C170.255 50.4183 169.426 48.1433 169.426 45.25C169.426 43.36 169.788 41.715 170.511 40.315C171.235 38.915 172.238 37.8417 173.521 37.095C174.828 36.3483 176.321 35.975 178.001 35.975C179.681 35.975 181.151 36.29 182.411 36.92C183.695 37.55 184.675 38.4017 185.351 39.475C186.051 40.525 186.401 41.6917 186.401 42.975C186.401 43.5583 186.343 44.06 186.226 44.48L186.051 45.075C185.048 45.285 183.963 45.46 182.796 45.6C180.346 45.95 177.873 46.125 175.376 46.125C175.376 48.8317 175.75 50.7683 176.496 51.935C177.243 53.0783 178.27 53.65 179.576 53.65C180.486 53.65 181.326 53.44 182.096 53.02C182.89 52.5767 183.508 52.005 183.951 51.305C184.418 50.5817 184.651 49.8467 184.651 49.1H185.526C185.526 50.0333 185.246 50.92 184.686 51.76C184.126 52.6 183.345 53.2767 182.341 53.79C181.338 54.28 180.183 54.525 178.876 54.525ZM175.376 45.25C176.87 45.25 178.083 45.1917 179.016 45.075C179.413 45.0517 179.833 44.9933 180.276 44.9C180.3 44.7833 180.358 44.5267 180.451 44.13C180.568 43.5467 180.626 42.9283 180.626 42.275C180.626 40.3383 180.37 38.9267 179.856 38.04C179.343 37.13 178.725 36.675 178.001 36.675C176.251 36.675 175.376 39.5333 175.376 45.25ZM188.836 53.475L190.936 52.95V38.075H188.486V37.2H190.936V35.45C190.936 34.2133 191.228 33.105 191.811 32.125C192.418 31.145 193.27 30.375 194.366 29.815C195.486 29.255 196.793 28.975 198.286 28.975C199.5 28.975 200.538 29.1617 201.401 29.535C202.288 29.885 202.953 30.3633 203.396 30.97C203.84 31.5533 204.061 32.1717 204.061 32.825C204.061 33.6183 203.816 34.26 203.326 34.75C202.86 35.2167 202.23 35.45 201.436 35.45C201.11 35.45 200.783 35.4267 200.456 35.38L200.036 35.275V29.85L199.721 29.78C199.628 29.7567 199.523 29.7333 199.406 29.71C199.29 29.6867 199.15 29.675 198.986 29.675C198.193 29.675 197.586 30.095 197.166 30.935C196.746 31.7517 196.536 33.2567 196.536 35.45V37.2H202.136V38.075H196.536V52.95L198.636 53.475V54H188.836V53.475ZM204.221 53.475L206.321 52.95V37.55L204.221 37.025V36.5H208.771C210.871 36.5 211.921 37.55 211.921 39.65V52.95L214.021 53.475V54H204.221V53.475ZM208.771 34.4C208.071 34.4 207.488 34.1667 207.021 33.7C206.555 33.2333 206.321 32.65 206.321 31.95C206.321 31.25 206.555 30.6667 207.021 30.2C207.488 29.7333 208.071 29.5 208.771 29.5C209.471 29.5 210.055 29.7333 210.521 30.2C210.988 30.6667 211.221 31.25 211.221 31.95C211.221 32.65 210.988 33.2333 210.521 33.7C210.055 34.1667 209.471 34.4 208.771 34.4ZM216.116 53.475L218.216 52.95V37.55L216.116 37.025V36.5H219.266C220.642 36.5 221.727 36.9433 222.521 37.83C222.824 38.18 223.081 38.6117 223.291 39.125C223.617 38.5183 224.002 37.9933 224.446 37.55C225.496 36.5 226.802 35.975 228.366 35.975C229.672 35.975 230.839 36.255 231.866 36.815C232.916 37.3517 233.732 38.0633 234.316 38.95C234.899 39.8367 235.191 40.77 235.191 41.75V52.95L237.291 53.475V54H232.741C230.641 54 229.591 52.95 229.591 50.85V41.75C229.591 40.28 229.322 39.16 228.786 38.39C228.272 37.5967 227.666 37.2 226.966 37.2C226.079 37.2 225.286 37.6667 224.586 38.6C224.282 38.9967 224.026 39.4633 223.816 40V52.95L225.916 53.475V54H216.116V53.475ZM239.392 53.475L241.492 52.95V37.55L239.392 37.025V36.5H243.942C246.042 36.5 247.092 37.55 247.092 39.65V52.95L249.192 53.475V54H239.392V53.475ZM243.942 34.4C243.242 34.4 242.659 34.1667 242.192 33.7C241.726 33.2333 241.492 32.65 241.492 31.95C241.492 31.25 241.726 30.6667 242.192 30.2C242.659 29.7333 243.242 29.5 243.942 29.5C244.642 29.5 245.226 29.7333 245.692 30.2C246.159 30.6667 246.392 31.25 246.392 31.95C246.392 32.65 246.159 33.2333 245.692 33.7C245.226 34.1667 244.642 34.4 243.942 34.4ZM260.387 54.525C258.847 54.525 257.505 54.245 256.362 53.685C255.242 53.125 254.378 52.355 253.772 51.375C253.165 50.395 252.862 49.2867 252.862 48.05V37.375H250.412V36.5H252.862V34.75C252.862 32.65 253.912 31.6 256.012 31.6H258.462V36.5H263.362V37.375H258.462V48.05C258.462 50.1967 258.683 51.6667 259.127 52.46C259.57 53.2533 260.223 53.65 261.087 53.65C261.927 53.65 262.662 53.2417 263.292 52.425C263.922 51.6083 264.237 50.5 264.237 49.1H265.112C265.112 50.8267 264.68 52.1683 263.817 53.125C262.953 54.0583 261.81 54.525 260.387 54.525ZM267.044 53.475L269.144 52.95V37.55L267.044 37.025V36.5H271.594C273.694 36.5 274.744 37.55 274.744 39.65V52.95L276.844 53.475V54H267.044V53.475ZM271.594 34.4C270.894 34.4 270.31 34.1667 269.844 33.7C269.377 33.2333 269.144 32.65 269.144 31.95C269.144 31.25 269.377 30.6667 269.844 30.2C270.31 29.7333 270.894 29.5 271.594 29.5C272.294 29.5 272.877 29.7333 273.344 30.2C273.81 30.6667 274.044 31.25 274.044 31.95C274.044 32.65 273.81 33.2333 273.344 33.7C272.877 34.1667 272.294 34.4 271.594 34.4ZM288.213 54.525C285.32 54.525 283.045 53.7083 281.388 52.075C279.755 50.4183 278.938 48.1433 278.938 45.25C278.938 42.3567 279.755 40.0933 281.388 38.46C283.045 36.8033 285.32 35.975 288.213 35.975C291.106 35.975 293.37 36.8033 295.003 38.46C296.66 40.0933 297.488 42.3567 297.488 45.25C297.488 48.1433 296.66 50.4183 295.003 52.075C293.37 53.7083 291.106 54.525 288.213 54.525ZM288.213 53.825C289.146 53.825 289.928 53.1717 290.558 51.865C291.211 50.5583 291.538 48.3533 291.538 45.25C291.538 42.1467 291.211 39.9417 290.558 38.635C289.928 37.3283 289.146 36.675 288.213 36.675C287.28 36.675 286.486 37.3283 285.833 38.635C285.203 39.9417 284.888 42.1467 284.888 45.25C284.888 48.3533 285.203 50.5583 285.833 51.865C286.486 53.1717 287.28 53.825 288.213 53.825ZM300.3 53.475L302.4 52.95V37.55L300.3 37.025V36.5H303.45C304.827 36.5 305.912 36.9433 306.705 37.83C307.009 38.18 307.265 38.6117 307.475 39.125C307.802 38.5183 308.187 37.9933 308.63 37.55C309.68 36.5 310.987 35.975 312.55 35.975C313.857 35.975 315.024 36.255 316.05 36.815C317.1 37.3517 317.917 38.0633 318.5 38.95C319.084 39.8367 319.375 40.77 319.375 41.75V52.95L321.475 53.475V54H316.925C314.825 54 313.775 52.95 313.775 50.85V41.75C313.775 40.28 313.507 39.16 312.97 38.39C312.457 37.5967 311.85 37.2 311.15 37.2C310.264 37.2 309.47 37.6667 308.77 38.6C308.467 38.9967 308.21 39.4633 308 40V52.95L310.1 53.475V54H300.3V53.475Z" fill="#373C42"/>
<path d="M9.075 32.025V39.625C9.075 40.4737 8.80267 41.1323 8.258 41.601C7.726 42.057 6.92167 42.285 5.845 42.285C4.781 42.285 3.97667 42.057 3.432 41.601C2.88733 41.1323 2.615 40.4737 2.615 39.625V32.025C2.615 31.1763 2.881 30.524 3.413 30.068C3.95767 29.5993 4.762 29.365 5.826 29.365C6.90267 29.365 7.71333 29.5993 8.258 30.068C8.80267 30.524 9.075 31.1763 9.075 32.025ZM7.745 39.625V32.025C7.745 31.0117 7.11167 30.505 5.845 30.505C4.57833 30.505 3.945 31.0117 3.945 32.025V39.625C3.945 40.6383 4.57833 41.145 5.845 41.145C7.11167 41.145 7.745 40.6383 7.745 39.625ZM12.3955 42V40.86L16.0055 35.749C16.0562 35.6857 16.1512 35.5527 16.2905 35.35C16.4299 35.1473 16.5312 35.0017 16.5945 34.913C16.6579 34.8243 16.7465 34.6913 16.8605 34.514C16.9745 34.3367 17.0569 34.1973 17.1075 34.096C17.1709 33.982 17.2342 33.8553 17.2975 33.716C17.4242 33.4627 17.4875 33.2157 17.4875 32.975V31.949C17.4875 31.493 17.3355 31.1383 17.0315 30.885C16.7402 30.6317 16.2969 30.505 15.7015 30.505C15.1062 30.505 14.6565 30.6317 14.3525 30.885C14.0612 31.1383 13.9155 31.493 13.9155 31.949V33.64H12.5855V32.025C12.5855 30.2517 13.6052 29.365 15.6445 29.365C16.7085 29.365 17.5002 29.5993 18.0195 30.068C18.5515 30.524 18.8175 31.1763 18.8175 32.025V32.975C18.8175 33.4057 18.6782 33.8807 18.3995 34.4C18.1335 34.9067 17.6775 35.6223 17.0315 36.547L14.0105 40.86H18.7985V42H12.3955Z" fill="#373C42"/>
</svg>
