<svg width="344" height="73" viewBox="0 0 344 73" fill="none" xmlns="http://www.w3.org/2000/svg">
<path d="M37.125 53.475L39.225 52.95V30.375H35.2C35.2 31.7983 34.815 33.1633 34.045 34.47C33.7183 35.0067 33.345 35.45 32.925 35.8H31.875V29.5H52.35V35.8H51.3C50.8567 35.45 50.4717 35.0067 50.145 34.47C49.3983 33.21 49.025 31.845 49.025 30.375H45V52.95L47.1 53.475V54H37.125V53.475ZM62.3236 54.525C59.337 54.525 57.0153 53.7083 55.3586 52.075C53.702 50.4183 52.8736 48.1433 52.8736 45.25C52.8736 43.36 53.2353 41.715 53.9586 40.315C54.682 38.915 55.6853 37.8417 56.9686 37.095C58.2753 36.3483 59.7686 35.975 61.4486 35.975C63.1286 35.975 64.5986 36.29 65.8586 36.92C67.142 37.55 68.122 38.4017 68.7986 39.475C69.4986 40.525 69.8486 41.6917 69.8486 42.975C69.8486 43.5583 69.7903 44.06 69.6736 44.48L69.4986 45.075C68.4953 45.285 67.4103 45.46 66.2436 45.6C63.7936 45.95 61.3203 46.125 58.8236 46.125C58.8236 48.8317 59.197 50.7683 59.9436 51.935C60.6903 53.0783 61.717 53.65 63.0236 53.65C63.9336 53.65 64.7736 53.44 65.5436 53.02C66.337 52.5767 66.9553 52.005 67.3986 51.305C67.8653 50.5817 68.0986 49.8467 68.0986 49.1H68.9736C68.9736 50.0333 68.6936 50.92 68.1336 51.76C67.5736 52.6 66.792 53.2767 65.7886 53.79C64.7853 54.28 63.6303 54.525 62.3236 54.525ZM58.8236 45.25C60.317 45.25 61.5303 45.1917 62.4636 45.075C62.8603 45.0517 63.2803 44.9933 63.7236 44.9C63.747 44.7833 63.8053 44.5267 63.8986 44.13C64.0153 43.5467 64.0736 42.9283 64.0736 42.275C64.0736 40.3383 63.817 38.9267 63.3036 38.04C62.7903 37.13 62.172 36.675 61.4486 36.675C59.6986 36.675 58.8236 39.5333 58.8236 45.25ZM80.6836 54.525C79.2369 54.525 77.9419 54.21 76.7986 53.58C76.2386 53.2767 75.7836 52.95 75.4336 52.6C75.0603 53.1133 74.6519 53.51 74.2086 53.79C73.9986 53.93 73.7653 54.0583 73.5086 54.175H72.6336V48.225H74.0336C74.3369 49.205 74.7803 50.115 75.3636 50.955C76.6003 52.7517 78.1403 53.65 79.9836 53.65C80.9636 53.65 81.6986 53.4167 82.1886 52.95C82.7019 52.46 82.9586 51.76 82.9586 50.85C82.9586 50.08 82.6086 49.4383 81.9086 48.925C81.2319 48.3883 80.1586 47.735 78.6886 46.965C77.4286 46.335 76.4019 45.775 75.6086 45.285C74.8386 44.7717 74.1736 44.1417 73.6136 43.395C73.0769 42.625 72.8086 41.7267 72.8086 40.7C72.8086 39.3 73.4036 38.1683 74.5936 37.305C75.8069 36.4183 77.6619 35.975 80.1586 35.975C81.3953 35.975 82.5386 36.3017 83.5886 36.955C84.1019 37.2583 84.5453 37.5733 84.9186 37.9C85.2219 37.48 85.6303 37.0833 86.1436 36.71C86.5403 36.4767 86.7736 36.3483 86.8436 36.325H87.7186V42.275H86.3186C85.9686 41.2717 85.5369 40.3733 85.0236 39.58C83.8569 37.76 82.4686 36.85 80.8586 36.85C80.2286 36.85 79.6919 37.0833 79.2486 37.55C78.8053 38.0167 78.5836 38.6 78.5836 39.3C78.5836 40.1867 78.9569 40.9333 79.7036 41.54C80.4503 42.1233 81.5819 42.8 83.0986 43.57C84.3353 44.2 85.3153 44.76 86.0386 45.25C86.7853 45.7167 87.4153 46.3 87.9286 47C88.4653 47.7 88.7336 48.5167 88.7336 49.45C88.7336 52.8333 86.0503 54.525 80.6836 54.525ZM100.46 54.525C98.92 54.525 97.5783 54.245 96.435 53.685C95.315 53.125 94.4516 52.355 93.845 51.375C93.2383 50.395 92.935 49.2867 92.935 48.05V37.375H90.485V36.5H92.935V34.75C92.935 32.65 93.985 31.6 96.085 31.6H98.535V36.5H103.435V37.375H98.535V48.05C98.535 50.1967 98.7566 51.6667 99.2 52.46C99.6433 53.2533 100.297 53.65 101.16 53.65C102 53.65 102.735 53.2417 103.365 52.425C103.995 51.6083 104.31 50.5 104.31 49.1H105.185C105.185 50.8267 104.753 52.1683 103.89 53.125C103.027 54.0583 101.883 54.525 100.46 54.525ZM107.117 53.475L109.217 52.95V37.55L107.117 37.025V36.5H111.667C113.767 36.5 114.817 37.55 114.817 39.65V52.95L116.917 53.475V54H107.117V53.475ZM111.667 34.4C110.967 34.4 110.383 34.1667 109.917 33.7C109.45 33.2333 109.217 32.65 109.217 31.95C109.217 31.25 109.45 30.6667 109.917 30.2C110.383 29.7333 110.967 29.5 111.667 29.5C112.367 29.5 112.95 29.7333 113.417 30.2C113.883 30.6667 114.117 31.25 114.117 31.95C114.117 32.65 113.883 33.2333 113.417 33.7C112.95 34.1667 112.367 34.4 111.667 34.4ZM119.011 53.475L121.111 52.95V37.55L119.011 37.025V36.5H122.161C123.538 36.5 124.623 36.9433 125.416 37.83C125.72 38.18 125.976 38.6117 126.186 39.125C126.513 38.5183 126.898 37.9933 127.341 37.55C128.391 36.5 129.698 35.975 131.261 35.975C132.568 35.975 133.735 36.255 134.761 36.815C135.811 37.3517 136.628 38.0633 137.211 38.95C137.795 39.8367 138.086 40.77 138.086 41.75V52.95L140.186 53.475V54H135.636C133.536 54 132.486 52.95 132.486 50.85V41.75C132.486 40.28 132.218 39.16 131.681 38.39C131.168 37.5967 130.561 37.2 129.861 37.2C128.975 37.2 128.181 37.6667 127.481 38.6C127.178 38.9967 126.921 39.4633 126.711 40V52.95L128.811 53.475V54H119.011V53.475ZM150.513 61.525C148.436 61.525 146.744 61.3383 145.438 60.965C144.131 60.5917 143.186 60.1133 142.603 59.53C142.043 58.9467 141.763 58.3283 141.763 57.675C141.763 56.8817 141.996 56.24 142.463 55.75C142.953 55.2833 143.594 55.05 144.388 55.05C144.574 55.05 144.913 55.085 145.403 55.155L145.788 55.225V60.125C146.068 60.2183 146.511 60.335 147.118 60.475C148.191 60.7083 149.206 60.825 150.163 60.825C153.009 60.825 155.086 60.4167 156.393 59.6C157.723 58.8067 158.388 57.815 158.388 56.625C158.388 55.1083 156.988 54.35 154.188 54.35H147.538C145.788 54.35 144.446 53.9883 143.513 53.265C142.579 52.5417 142.113 51.62 142.113 50.5C142.113 49.38 142.661 48.3883 143.758 47.525C144.201 47.1983 144.761 46.9067 145.438 46.65C144.574 46.1133 143.944 45.4833 143.548 44.76C143.174 44.0133 142.988 43.1267 142.988 42.1C142.988 40.3733 143.641 38.985 144.948 37.935C146.254 36.8617 148.168 36.325 150.688 36.325C151.784 36.325 152.788 36.4417 153.698 36.675C154.631 36.885 155.378 37.1767 155.938 37.55C156.124 37.1533 156.369 36.8033 156.673 36.5C157.373 35.8 158.236 35.45 159.263 35.45C160.056 35.45 160.721 35.73 161.258 36.29C161.794 36.8267 162.063 37.5383 162.063 38.425C162.063 39.1017 161.876 39.65 161.503 40.07C161.153 40.49 160.698 40.7 160.138 40.7C159.881 40.7 159.589 40.6767 159.263 40.63L158.913 40.525V36.325C158.306 36.325 157.734 36.6167 157.198 37.2C156.988 37.41 156.801 37.7017 156.638 38.075C157.804 39.1017 158.388 40.4433 158.388 42.1C158.388 43.8267 157.734 45.2267 156.428 46.3C155.121 47.35 153.208 47.875 150.688 47.875C149.008 47.875 147.491 47.5833 146.138 47L145.438 47.35C145.204 47.49 145.029 47.63 144.913 47.77C144.796 47.8867 144.738 48.0383 144.738 48.225C144.738 48.6217 144.936 48.925 145.333 49.135C145.753 49.345 146.488 49.45 147.538 49.45H154.188C155.938 49.45 157.303 49.9633 158.283 50.99C159.286 51.9933 159.788 53.405 159.788 55.225C159.788 57.0917 159.006 58.6083 157.443 59.775C155.903 60.9417 153.593 61.525 150.513 61.525ZM150.688 47.175C151.458 47.175 152.053 46.8017 152.473 46.055C152.916 45.3083 153.138 43.99 153.138 42.1C153.138 40.21 152.916 38.8917 152.473 38.145C152.053 37.3983 151.458 37.025 150.688 37.025C149.918 37.025 149.311 37.3983 148.868 38.145C148.448 38.8917 148.238 40.21 148.238 42.1C148.238 43.99 148.448 45.3083 148.868 46.055C149.311 46.8017 149.918 47.175 150.688 47.175ZM181.689 54.525C175.622 54.525 172.589 52.4833 172.589 48.4C172.589 47.1867 172.904 46.1717 173.534 45.355C174.164 44.515 174.98 43.7917 175.984 43.185C177.01 42.625 178.154 42.205 179.414 41.925L177.489 39.125C176.952 38.355 176.52 37.5967 176.194 36.85C175.89 36.1033 175.739 35.2867 175.739 34.4C175.739 33.3967 176.007 32.4867 176.544 31.67C177.104 30.8533 177.92 30.2 178.994 29.71C180.09 29.22 181.397 28.975 182.914 28.975C184.15 28.975 185.34 29.36 186.484 30.13C186.974 30.4567 187.417 30.83 187.814 31.25C188.21 30.6433 188.619 30.165 189.039 29.815C189.459 29.5117 189.692 29.3483 189.739 29.325H190.614V35.975H189.214C188.91 34.925 188.479 33.91 187.919 32.93C187.359 32.02 186.729 31.285 186.029 30.725C185.352 30.1417 184.547 29.85 183.614 29.85C182.89 29.85 182.272 30.1417 181.759 30.725C181.245 31.285 180.989 32.0433 180.989 33C180.989 33.77 181.199 34.54 181.619 35.31C182.039 36.08 182.552 36.885 183.159 37.725L189.389 46.475C189.599 46.0783 189.797 45.6467 189.984 45.18C190.404 44.1067 190.614 43.0217 190.614 41.925L187.814 40.875V40.35H194.289V40.875L191.489 41.925C191.489 43.0917 191.232 44.3517 190.719 45.705C190.439 46.3583 190.194 46.9067 189.984 47.35L193.939 52.95L195.689 53.475V54H190.789C189.832 54 189.004 53.8483 188.304 53.545C187.627 53.2417 187.114 52.81 186.764 52.25C186.367 52.7167 185.935 53.1017 185.469 53.405C184.349 54.1517 183.089 54.525 181.689 54.525ZM182.389 53.65C183.345 53.65 184.267 53.3 185.154 52.6C185.62 52.2267 185.982 51.8767 186.239 51.55L179.939 42.625C179.659 42.9283 179.425 43.325 179.239 43.815C178.772 44.865 178.539 46.3933 178.539 48.4C178.539 50.08 178.9 51.375 179.624 52.285C180.37 53.195 181.292 53.65 182.389 53.65ZM207.613 53.475L209.713 52.95V30.55L207.613 30.025V29.5H217.588V30.025L215.488 30.55V53.125H223.013C223.013 51.655 223.387 50.29 224.133 49.03C224.46 48.4933 224.845 48.05 225.288 47.7H226.338V54H207.613V53.475ZM235.451 54.525C233.374 54.525 231.776 54.0817 230.656 53.195C229.536 52.3083 228.976 51.1767 228.976 49.8C228.976 48.89 229.174 47.9917 229.571 47.105C229.734 46.685 229.944 46.3 230.201 45.95C231.157 45.7167 232.196 45.5067 233.316 45.32C235.836 44.9 238.064 44.6433 240.001 44.55V43.5C240.001 40.91 239.686 39.125 239.056 38.145C238.426 37.165 237.457 36.675 236.151 36.675C235.661 36.675 235.241 36.7333 234.891 36.85L234.401 37.025V42.275L233.946 42.38C233.572 42.4267 233.257 42.45 233.001 42.45C232.207 42.45 231.566 42.2167 231.076 41.75C230.609 41.26 230.376 40.6183 230.376 39.825C230.376 38.7517 230.912 37.8417 231.986 37.095C233.082 36.3483 234.704 35.975 236.851 35.975C238.671 35.975 240.234 36.3017 241.541 36.955C242.871 37.585 243.874 38.4717 244.551 39.615C245.251 40.735 245.601 42.03 245.601 43.5V52.95L247.701 53.475V54H244.551C243.151 54 242.066 53.5683 241.296 52.705C240.969 52.355 240.712 51.9117 240.526 51.375C240.199 51.9583 239.814 52.4833 239.371 52.95C238.321 54 237.014 54.525 235.451 54.525ZM236.851 53.3C237.714 53.3 238.496 52.8333 239.196 51.9C239.452 51.55 239.721 51.0833 240.001 50.5V45.425C238.927 45.425 237.901 45.4833 236.921 45.6C236.197 45.6933 235.707 45.7517 235.451 45.775C235.334 46.0317 235.217 46.3817 235.101 46.825C234.867 47.7117 234.751 48.5867 234.751 49.45C234.751 50.7567 234.949 51.725 235.346 52.355C235.742 52.985 236.244 53.3 236.851 53.3ZM258.217 54.525C256.91 54.525 255.732 54.2567 254.682 53.72C253.655 53.16 252.85 52.4367 252.267 51.55C251.684 50.6633 251.392 49.73 251.392 48.75V37.55L249.292 37.025V36.5H253.842C255.942 36.5 256.992 37.55 256.992 39.65V48.75C256.992 50.22 257.249 51.3517 257.762 52.145C258.299 52.915 258.917 53.3 259.617 53.3C260.48 53.3 261.262 52.8333 261.962 51.9C262.219 51.55 262.487 51.0833 262.767 50.5V37.55L260.667 37.025V36.5H270.467V37.025L268.367 37.55V54.175H268.017C266.314 54.175 265.019 53.7083 264.132 52.775C263.735 52.355 263.455 51.8883 263.292 51.375C262.965 51.9583 262.58 52.4833 262.137 52.95C261.087 54 259.78 54.525 258.217 54.525ZM272.581 53.475L274.681 52.95V37.55L272.581 37.025V36.5H275.731C277.107 36.5 278.192 36.9433 278.986 37.83C279.289 38.18 279.546 38.6117 279.756 39.125C280.082 38.5183 280.467 37.9933 280.911 37.55C281.961 36.5 283.267 35.975 284.831 35.975C286.137 35.975 287.304 36.255 288.331 36.815C289.381 37.3517 290.197 38.0633 290.781 38.95C291.364 39.8367 291.656 40.77 291.656 41.75V52.95L293.756 53.475V54H289.206C287.106 54 286.056 52.95 286.056 50.85V41.75C286.056 40.28 285.787 39.16 285.251 38.39C284.737 37.5967 284.131 37.2 283.431 37.2C282.544 37.2 281.751 37.6667 281.051 38.6C280.747 38.9967 280.491 39.4633 280.281 40V52.95L282.381 53.475V54H272.581V53.475ZM305.307 54.525C302.32 54.525 299.999 53.7083 298.342 52.075C296.685 50.4183 295.857 48.1433 295.857 45.25C295.857 42.3567 296.685 40.0933 298.342 38.46C299.999 36.8033 302.32 35.975 305.307 35.975C307.454 35.975 309.064 36.3483 310.137 37.095C311.234 37.8417 311.782 38.7517 311.782 39.825C311.782 40.6183 311.537 41.26 311.047 41.75C310.58 42.2167 309.95 42.45 309.157 42.45C308.83 42.45 308.504 42.4267 308.177 42.38L307.757 42.275V37.025L307.267 36.85C306.917 36.7333 306.497 36.675 306.007 36.675C304.677 36.675 303.639 37.305 302.892 38.565C302.169 39.825 301.807 42.0533 301.807 45.25C301.807 48.3533 302.169 50.535 302.892 51.795C303.639 53.0317 304.677 53.65 306.007 53.65C306.917 53.65 307.757 53.44 308.527 53.02C309.32 52.5767 309.939 52.005 310.382 51.305C310.849 50.5817 311.082 49.8467 311.082 49.1H311.957C311.957 50.0333 311.677 50.92 311.117 51.76C310.557 52.6 309.775 53.2767 308.772 53.79C307.769 54.28 306.614 54.525 305.307 54.525ZM314.417 53.475L316.517 52.95V30.55L314.417 30.025V29.5H318.967C321.067 29.5 322.117 30.55 322.117 32.65V38.25C322.467 37.7833 322.828 37.41 323.202 37.13C324.205 36.36 325.36 35.975 326.667 35.975C327.973 35.975 329.14 36.255 330.167 36.815C331.217 37.3517 332.033 38.0633 332.617 38.95C333.2 39.8367 333.492 40.77 333.492 41.75V52.95L335.592 53.475V54H331.042C328.942 54 327.892 52.95 327.892 50.85V41.75C327.892 40.28 327.623 39.16 327.087 38.39C326.573 37.5967 325.967 37.2 325.267 37.2C324.38 37.2 323.587 37.6667 322.887 38.6C322.583 38.9967 322.327 39.4633 322.117 40V52.95L324.217 53.475V54H314.417V53.475Z" fill="#373C42"/>
<path d="M9.075 32.025V39.625C9.075 40.4737 8.80267 41.1323 8.258 41.601C7.726 42.057 6.92167 42.285 5.845 42.285C4.781 42.285 3.97667 42.057 3.432 41.601C2.88733 41.1323 2.615 40.4737 2.615 39.625V32.025C2.615 31.1763 2.881 30.524 3.413 30.068C3.95767 29.5993 4.762 29.365 5.826 29.365C6.90267 29.365 7.71333 29.5993 8.258 30.068C8.80267 30.524 9.075 31.1763 9.075 32.025ZM7.745 39.625V32.025C7.745 31.0117 7.11167 30.505 5.845 30.505C4.57833 30.505 3.945 31.0117 3.945 32.025V39.625C3.945 40.6383 4.57833 41.145 5.845 41.145C7.11167 41.145 7.745 40.6383 7.745 39.625ZM12.3005 39.606V32.025C12.3005 30.2517 13.3709 29.365 15.5115 29.365C17.6522 29.365 18.7225 30.2517 18.7225 32.025V33.26H17.3925V31.949C17.3925 30.9863 16.7655 30.505 15.5115 30.505C14.2575 30.505 13.6305 30.9863 13.6305 31.949V35.369C14.0612 34.913 14.7515 34.685 15.7015 34.685C16.6515 34.685 17.3989 34.9193 17.9435 35.388C18.4882 35.844 18.7605 36.4963 18.7605 37.345V39.625C18.7605 40.4737 18.4882 41.1323 17.9435 41.601C17.4115 42.057 16.6072 42.285 15.5305 42.285C14.4665 42.285 13.6622 42.057 13.1175 41.601C12.5729 41.1323 12.3005 40.4737 12.3005 39.625L12.3195 39.606H12.3005ZM13.6305 39.625C13.6305 40.6383 14.2639 41.145 15.5305 41.145C16.7972 41.145 17.4305 40.6383 17.4305 39.625V37.345C17.4305 36.3317 16.8099 35.825 15.5685 35.825C14.3399 35.825 13.6939 36.2873 13.6305 37.212V39.625Z" fill="#373C42"/>
</svg>
