<svg width="320" height="73" viewBox="0 0 320 73" fill="none" xmlns="http://www.w3.org/2000/svg">
<path d="M32.05 30.55L30.3 30.025V29.5H34.5C35.7133 29.5 36.705 29.78 37.475 30.34C38.245 30.8767 38.8283 31.5883 39.225 32.475L45.42 46.58L51.125 31.075L48.5 30.025V29.5H54.975V30.025L52.175 31.075L43.6 54.35H42.55L32.05 30.55ZM54.6168 53.475L56.7168 52.95V37.55L54.6168 37.025V36.5H59.1668C61.2668 36.5 62.3168 37.55 62.3168 39.65V52.95L64.4168 53.475V54H54.6168V53.475ZM59.1668 34.4C58.4668 34.4 57.8835 34.1667 57.4168 33.7C56.9501 33.2333 56.7168 32.65 56.7168 31.95C56.7168 31.25 56.9501 30.6667 57.4168 30.2C57.8835 29.7333 58.4668 29.5 59.1668 29.5C59.8668 29.5 60.4501 29.7333 60.9168 30.2C61.3835 30.6667 61.6168 31.25 61.6168 31.95C61.6168 32.65 61.3835 33.2333 60.9168 33.7C60.4501 34.1667 59.8668 34.4 59.1668 34.4ZM74.7363 54.525C73.2897 54.525 71.9947 54.21 70.8513 53.58C70.2913 53.2767 69.8363 52.95 69.4863 52.6C69.113 53.1133 68.7047 53.51 68.2613 53.79C68.0513 53.93 67.818 54.0583 67.5613 54.175H66.6863V48.225H68.0863C68.3897 49.205 68.833 50.115 69.4163 50.955C70.653 52.7517 72.193 53.65 74.0363 53.65C75.0163 53.65 75.7513 53.4167 76.2413 52.95C76.7547 52.46 77.0113 51.76 77.0113 50.85C77.0113 50.08 76.6613 49.4383 75.9613 48.925C75.2847 48.3883 74.2113 47.735 72.7413 46.965C71.4813 46.335 70.4547 45.775 69.6613 45.285C68.8913 44.7717 68.2263 44.1417 67.6663 43.395C67.1297 42.625 66.8613 41.7267 66.8613 40.7C66.8613 39.3 67.4563 38.1683 68.6463 37.305C69.8597 36.4183 71.7147 35.975 74.2113 35.975C75.448 35.975 76.5913 36.3017 77.6413 36.955C78.1547 37.2583 78.598 37.5733 78.9713 37.9C79.2747 37.48 79.683 37.0833 80.1963 36.71C80.593 36.4767 80.8263 36.3483 80.8963 36.325H81.7713V42.275H80.3713C80.0213 41.2717 79.5897 40.3733 79.0763 39.58C77.9097 37.76 76.5213 36.85 74.9113 36.85C74.2813 36.85 73.7447 37.0833 73.3013 37.55C72.858 38.0167 72.6363 38.6 72.6363 39.3C72.6363 40.1867 73.0097 40.9333 73.7563 41.54C74.503 42.1233 75.6347 42.8 77.1513 43.57C78.388 44.2 79.368 44.76 80.0913 45.25C80.838 45.7167 81.468 46.3 81.9813 47C82.518 47.7 82.7863 48.5167 82.7863 49.45C82.7863 52.8333 80.103 54.525 74.7363 54.525ZM93.8127 54.525C92.506 54.525 91.3277 54.2567 90.2777 53.72C89.251 53.16 88.446 52.4367 87.8627 51.55C87.2794 50.6633 86.9877 49.73 86.9877 48.75V37.55L84.8877 37.025V36.5H89.4377C91.5377 36.5 92.5877 37.55 92.5877 39.65V48.75C92.5877 50.22 92.8444 51.3517 93.3577 52.145C93.8944 52.915 94.5127 53.3 95.2127 53.3C96.076 53.3 96.8577 52.8333 97.5577 51.9C97.8144 51.55 98.0827 51.0833 98.3627 50.5V37.55L96.2627 37.025V36.5H106.063V37.025L103.963 37.55V54.175H103.613C101.909 54.175 100.614 53.7083 99.7277 52.775C99.331 52.355 99.051 51.8883 98.8877 51.375C98.561 51.9583 98.176 52.4833 97.7327 52.95C96.6827 54 95.376 54.525 93.8127 54.525ZM115.001 54.525C112.925 54.525 111.326 54.0817 110.206 53.195C109.086 52.3083 108.526 51.1767 108.526 49.8C108.526 48.89 108.725 47.9917 109.121 47.105C109.285 46.685 109.495 46.3 109.751 45.95C110.708 45.7167 111.746 45.5067 112.866 45.32C115.386 44.9 117.615 44.6433 119.551 44.55V43.5C119.551 40.91 119.236 39.125 118.606 38.145C117.976 37.165 117.008 36.675 115.701 36.675C115.211 36.675 114.791 36.7333 114.441 36.85L113.951 37.025V42.275L113.496 42.38C113.123 42.4267 112.808 42.45 112.551 42.45C111.758 42.45 111.116 42.2167 110.626 41.75C110.16 41.26 109.926 40.6183 109.926 39.825C109.926 38.7517 110.463 37.8417 111.536 37.095C112.633 36.3483 114.255 35.975 116.401 35.975C118.221 35.975 119.785 36.3017 121.091 36.955C122.421 37.585 123.425 38.4717 124.101 39.615C124.801 40.735 125.151 42.03 125.151 43.5V52.95L127.251 53.475V54H124.101C122.701 54 121.616 53.5683 120.846 52.705C120.52 52.355 120.263 51.9117 120.076 51.375C119.75 51.9583 119.365 52.4833 118.921 52.95C117.871 54 116.565 54.525 115.001 54.525ZM116.401 53.3C117.265 53.3 118.046 52.8333 118.746 51.9C119.003 51.55 119.271 51.0833 119.551 50.5V45.425C118.478 45.425 117.451 45.4833 116.471 45.6C115.748 45.6933 115.258 45.7517 115.001 45.775C114.885 46.0317 114.768 46.3817 114.651 46.825C114.418 47.7117 114.301 48.5867 114.301 49.45C114.301 50.7567 114.5 51.725 114.896 52.355C115.293 52.985 115.795 53.3 116.401 53.3ZM129.368 53.475L131.468 52.95V30.55L129.368 30.025V29.5H133.918C136.018 29.5 137.068 30.55 137.068 32.65V52.95L139.168 53.475V54H129.368V53.475ZM151.422 53.475L153.522 52.95V30.55L151.422 30.025V29.5H170.147V35.8H169.097C168.654 35.45 168.269 35.0067 167.942 34.47C167.195 33.21 166.822 31.845 166.822 30.375H159.297V41.4H163.322C163.485 40.5133 163.789 39.685 164.232 38.915C164.419 38.565 164.64 38.2267 164.897 37.9H165.947V45.775H164.897C164.64 45.4483 164.419 45.11 164.232 44.76C163.789 43.99 163.485 43.1617 163.322 42.275H159.297V53.125H167.522C167.522 51.655 167.895 50.29 168.642 49.03C168.969 48.4933 169.354 48.05 169.797 47.7H170.847V54H151.422V53.475ZM173.63 53.475L175.73 52.95V30.55L173.63 30.025V29.5H178.18C180.28 29.5 181.33 30.55 181.33 32.65V52.95L183.43 53.475V54H173.63V53.475ZM194.975 54.525C191.988 54.525 189.667 53.7083 188.01 52.075C186.353 50.4183 185.525 48.1433 185.525 45.25C185.525 43.36 185.887 41.715 186.61 40.315C187.333 38.915 188.337 37.8417 189.62 37.095C190.927 36.3483 192.42 35.975 194.1 35.975C195.78 35.975 197.25 36.29 198.51 36.92C199.793 37.55 200.773 38.4017 201.45 39.475C202.15 40.525 202.5 41.6917 202.5 42.975C202.5 43.5583 202.442 44.06 202.325 44.48L202.15 45.075C201.147 45.285 200.062 45.46 198.895 45.6C196.445 45.95 193.972 46.125 191.475 46.125C191.475 48.8317 191.848 50.7683 192.595 51.935C193.342 53.0783 194.368 53.65 195.675 53.65C196.585 53.65 197.425 53.44 198.195 53.02C198.988 52.5767 199.607 52.005 200.05 51.305C200.517 50.5817 200.75 49.8467 200.75 49.1H201.625C201.625 50.0333 201.345 50.92 200.785 51.76C200.225 52.6 199.443 53.2767 198.44 53.79C197.437 54.28 196.282 54.525 194.975 54.525ZM191.475 45.25C192.968 45.25 194.182 45.1917 195.115 45.075C195.512 45.0517 195.932 44.9933 196.375 44.9C196.398 44.7833 196.457 44.5267 196.55 44.13C196.667 43.5467 196.725 42.9283 196.725 42.275C196.725 40.3383 196.468 38.9267 195.955 38.04C195.442 37.13 194.823 36.675 194.1 36.675C192.35 36.675 191.475 39.5333 191.475 45.25ZM205.11 53.475L207.21 52.95V37.55L205.11 37.025V36.5H208.26C209.637 36.5 210.722 36.9433 211.515 37.83C211.818 38.18 212.075 38.6117 212.285 39.125C212.635 38.4717 213.008 37.9467 213.405 37.55C214.455 36.5 215.657 35.975 217.01 35.975C218.363 35.975 219.553 36.2783 220.58 36.885C221.607 37.4683 222.4 38.2733 222.96 39.3C223.31 38.6233 223.683 38.075 224.08 37.655C225.153 36.535 226.355 35.975 227.685 35.975C228.922 35.975 230.03 36.2317 231.01 36.745C232.013 37.2583 232.783 37.9583 233.32 38.845C233.88 39.7317 234.16 40.7 234.16 41.75V52.95L236.26 53.475V54H231.71C229.61 54 228.56 52.95 228.56 50.85V41.75C228.56 40.2333 228.327 39.1017 227.86 38.355C227.393 37.585 226.868 37.2 226.285 37.2C225.608 37.2 224.92 37.6667 224.22 38.6C223.94 39.0433 223.695 39.51 223.485 40V52.95L225.585 53.475V54H215.785V53.475L217.885 52.95V41.75C217.885 40.2333 217.652 39.1017 217.185 38.355C216.718 37.585 216.193 37.2 215.61 37.2C214.933 37.2 214.245 37.6667 213.545 38.6C213.265 39.0433 213.02 39.51 212.81 40V52.95L214.91 53.475V54H205.11V53.475ZM247.817 54.525C244.83 54.525 242.508 53.7083 240.852 52.075C239.195 50.4183 238.367 48.1433 238.367 45.25C238.367 43.36 238.728 41.715 239.452 40.315C240.175 38.915 241.178 37.8417 242.462 37.095C243.768 36.3483 245.262 35.975 246.942 35.975C248.622 35.975 250.092 36.29 251.352 36.92C252.635 37.55 253.615 38.4017 254.292 39.475C254.992 40.525 255.342 41.6917 255.342 42.975C255.342 43.5583 255.283 44.06 255.167 44.48L254.992 45.075C253.988 45.285 252.903 45.46 251.737 45.6C249.287 45.95 246.813 46.125 244.317 46.125C244.317 48.8317 244.69 50.7683 245.437 51.935C246.183 53.0783 247.21 53.65 248.517 53.65C249.427 53.65 250.267 53.44 251.037 53.02C251.83 52.5767 252.448 52.005 252.892 51.305C253.358 50.5817 253.592 49.8467 253.592 49.1H254.467C254.467 50.0333 254.187 50.92 253.627 51.76C253.067 52.6 252.285 53.2767 251.282 53.79C250.278 54.28 249.123 54.525 247.817 54.525ZM244.317 45.25C245.81 45.25 247.023 45.1917 247.957 45.075C248.353 45.0517 248.773 44.9933 249.217 44.9C249.24 44.7833 249.298 44.5267 249.392 44.13C249.508 43.5467 249.567 42.9283 249.567 42.275C249.567 40.3383 249.31 38.9267 248.797 38.04C248.283 37.13 247.665 36.675 246.942 36.675C245.192 36.675 244.317 39.5333 244.317 45.25ZM257.952 53.475L260.052 52.95V37.55L257.952 37.025V36.5H261.102C262.478 36.5 263.563 36.9433 264.357 37.83C264.66 38.18 264.917 38.6117 265.127 39.125C265.453 38.5183 265.838 37.9933 266.282 37.55C267.332 36.5 268.638 35.975 270.202 35.975C271.508 35.975 272.675 36.255 273.702 36.815C274.752 37.3517 275.568 38.0633 276.152 38.95C276.735 39.8367 277.027 40.77 277.027 41.75V52.95L279.127 53.475V54H274.577C272.477 54 271.427 52.95 271.427 50.85V41.75C271.427 40.28 271.158 39.16 270.622 38.39C270.108 37.5967 269.502 37.2 268.802 37.2C267.915 37.2 267.122 37.6667 266.422 38.6C266.118 38.9967 265.862 39.4633 265.652 40V52.95L267.752 53.475V54H257.952V53.475ZM290.328 54.525C288.788 54.525 287.446 54.245 286.303 53.685C285.183 53.125 284.32 52.355 283.713 51.375C283.106 50.395 282.803 49.2867 282.803 48.05V37.375H280.353V36.5H282.803V34.75C282.803 32.65 283.853 31.6 285.953 31.6H288.403V36.5H293.303V37.375H288.403V48.05C288.403 50.1967 288.625 51.6667 289.068 52.46C289.511 53.2533 290.165 53.65 291.028 53.65C291.868 53.65 292.603 53.2417 293.233 52.425C293.863 51.6083 294.178 50.5 294.178 49.1H295.053C295.053 50.8267 294.621 52.1683 293.758 53.125C292.895 54.0583 291.751 54.525 290.328 54.525ZM305.21 54.525C303.763 54.525 302.468 54.21 301.325 53.58C300.765 53.2767 300.31 52.95 299.96 52.6C299.587 53.1133 299.178 53.51 298.735 53.79C298.525 53.93 298.292 54.0583 298.035 54.175H297.16V48.225H298.56C298.863 49.205 299.307 50.115 299.89 50.955C301.127 52.7517 302.667 53.65 304.51 53.65C305.49 53.65 306.225 53.4167 306.715 52.95C307.228 52.46 307.485 51.76 307.485 50.85C307.485 50.08 307.135 49.4383 306.435 48.925C305.758 48.3883 304.685 47.735 303.215 46.965C301.955 46.335 300.928 45.775 300.135 45.285C299.365 44.7717 298.7 44.1417 298.14 43.395C297.603 42.625 297.335 41.7267 297.335 40.7C297.335 39.3 297.93 38.1683 299.12 37.305C300.333 36.4183 302.188 35.975 304.685 35.975C305.922 35.975 307.065 36.3017 308.115 36.955C308.628 37.2583 309.072 37.5733 309.445 37.9C309.748 37.48 310.157 37.0833 310.67 36.71C311.067 36.4767 311.3 36.3483 311.37 36.325H312.245V42.275H310.845C310.495 41.2717 310.063 40.3733 309.55 39.58C308.383 37.76 306.995 36.85 305.385 36.85C304.755 36.85 304.218 37.0833 303.775 37.55C303.332 38.0167 303.11 38.6 303.11 39.3C303.11 40.1867 303.483 40.9333 304.23 41.54C304.977 42.1233 306.108 42.8 307.625 43.57C308.862 44.2 309.842 44.76 310.565 45.25C311.312 45.7167 311.942 46.3 312.455 47C312.992 47.7 313.26 48.5167 313.26 49.45C313.26 52.8333 310.577 54.525 305.21 54.525Z" fill="#373C42"/>
<path d="M9.075 32.025V39.625C9.075 40.4737 8.80267 41.1323 8.258 41.601C7.726 42.057 6.92167 42.285 5.845 42.285C4.781 42.285 3.97667 42.057 3.432 41.601C2.88733 41.1323 2.615 40.4737 2.615 39.625V32.025C2.615 31.1763 2.881 30.524 3.413 30.068C3.95767 29.5993 4.762 29.365 5.826 29.365C6.90267 29.365 7.71333 29.5993 8.258 30.068C8.80267 30.524 9.075 31.1763 9.075 32.025ZM7.745 39.625V32.025C7.745 31.0117 7.11167 30.505 5.845 30.505C4.57833 30.505 3.945 31.0117 3.945 32.025V39.625C3.945 40.6383 4.57833 41.145 5.845 41.145C7.11167 41.145 7.745 40.6383 7.745 39.625ZM13.8585 30.79V34.59H15.7395C16.7149 34.59 17.4622 34.837 17.9815 35.331C18.5009 35.825 18.7605 36.4963 18.7605 37.345V39.625C18.7605 41.3983 17.6902 42.285 15.5495 42.285C13.4089 42.285 12.3385 41.3983 12.3385 39.625V38.01H13.6685V39.701C13.6685 40.157 13.8269 40.5117 14.1435 40.765C14.4602 41.0183 14.9289 41.145 15.5495 41.145C16.1702 41.145 16.6389 41.0183 16.9555 40.765C17.2722 40.5117 17.4305 40.157 17.4305 39.701V37.345C17.4305 36.9397 17.2785 36.5723 16.9745 36.243C16.6705 35.901 16.2589 35.73 15.7395 35.73H12.5285V29.65H18.5705V30.79H13.8585Z" fill="#373C42"/>
</svg>
